SplineFontDB: 3.0
FontName: PhilosopherTwo-Regular
FullName: Philosopher Two Regular
FamilyName: Philosopher Two
Weight: Regular
Copyright: Copyright (c) 2011 by Jovanny Lemonad. All rights reserved.
Version: 2
ItalicAngle: 0
UnderlinePosition: -150
UnderlineWidth: 50
Ascent: 800
Descent: 200
sfntRevision: 0x00010000
LayerCount: 2
Layer: 0 1 "Back"  1
Layer: 1 1 "Fore"  0
XUID: [1021 288 713564382 8722578]
FSType: 0
OS2Version: 3
OS2_WeightWidthSlopeOnly: 0
OS2_UseTypoMetrics: 1
CreationTime: 1303645751
ModificationTime: 1304081816
PfmFamily: 17
TTFWeight: 400
TTFWidth: 5
LineGap: 0
VLineGap: 0
Panose: 2 0 5 3 0 0 0 2 0 4
OS2TypoAscent: 854
OS2TypoAOffset: 0
OS2TypoDescent: -212
OS2TypoDOffset: 0
OS2TypoLinegap: 0
OS2WinAscent: 854
OS2WinAOffset: 0
OS2WinDescent: 212
OS2WinDOffset: 0
HheadAscent: 854
HheadAOffset: 0
HheadDescent: -212
HheadDOffset: 0
OS2SubXSize: 700
OS2SubYSize: 650
OS2SubXOff: 0
OS2SubYOff: 143
OS2SupXSize: 700
OS2SupYSize: 650
OS2SupXOff: 0
OS2SupYOff: 453
OS2StrikeYSize: 50
OS2StrikeYPos: 250
OS2Vendor: 'MONO'
OS2CodePages: 20000011.00000000
OS2UnicodeRanges: 8000002f.0000000a.00000000.00000000
Lookup: 4 0 0 "'frac' Diagonal Fractions in Latin lookup 0"  {"'frac' Diagonal Fractions in Latin lookup 0 subtable"  } ['frac' ('latn' <'dflt' > ) ]
Lookup: 258 0 0 "'kern' Horizontal Kerning in Latin lookup 0"  {"'kern' Horizontal Kerning in Latin lookup 0 per glyph data 0"  "'kern' Horizontal Kerning in Latin lookup 0 kerning class 1"  } ['kern' ('latn' <'dflt' > ) ]
MarkAttachClasses: 1
DEI: 91125
KernClass2: 69+ 56 "'kern' Horizontal Kerning in Latin lookup 0 kerning class 1" 
 27 guilsinglleft guillemotleft
 29 guilsinglright guillemotright
 22 quotedblleft quoteleft
 24 quotedblright quoteright
 9 trademark
 20 quotedbl quotesingle
 8 asterisk
 28 emdash endash hyphen uni00AD
 40 quotedblbase quotesinglbase comma period
 5 slash
 9 backslash
 10 exclamdown
 10 registered
 12 questiondown
 9 ampersand

StartChar: plusminus
Encoding: 177 177 4
Width: 574
Flags: W
LayerCount: 2
Fore
SplineSet
57 60 m 1,0,-1
 57 120 l 1,1,-1
 257 120 l 1,2,-1
 257 300 l 1,3,-1
 57 300 l 1,4,-1
 57 360 l 1,5,-1
 257 360 l 1,6,-1
 257 560 l 1,7,-1
 317 560 l 1,8,-1
 317 360 l 1,9,-1
 517 360 l 1,10,-1
 517 300 l 1,11,-1
 317 300 l 1,12,-1
 317 120 l 1,13,-1
 517 120 l 1,14,-1
 517 60 l 1,15,-1
 57 60 l 1,0,-1
EndSplineSet
EndChar

StartChar: emdash
Encoding: 8212 8212 5
Width: 880
Flags: W
LayerCount: 2
Fore
SplineSet
810 230 m 1,0,-1
 70 230 l 1,1,-1
 70 290 l 1,2,-1
 810 290 l 1,3,-1
 810 230 l 1,0,-1
EndSplineSet
EndChar

StartChar: quotedblleft
Encoding: 8220 8220 6
Width: 406
Flags: W
LayerCount: 2
Fore
SplineSet
351 665 m 1,0,1
 313 639 313 639 292 607 c 128,-1,2
 271 575 271 575 271 530 c 1,3,-1
 301 540 l 1,4,5
 324 540 324 540 340 524 c 128,-1,6
 356 508 356 508 356 485 c 0,7,8
 356 459 356 459 339 442 c 128,-1,9
 322 425 322 425 296 425 c 0,10,11
 266 425 266 425 248.5 443 c 128,-1,12
 231 461 231 461 231 495 c 0,13,14
 231 559 231 559 259.5 604.5 c 128,-1,15
 288 650 288 650 341 680 c 1,16,-1
 351 665 l 1,0,1
171 665 m 1,17,18
 133 639 133 639 112 607 c 128,-1,19
 91 575 91 575 91 530 c 1,20,-1
 121 540 l 1,21,22
 144 540 144 540 160 524 c 128,-1,23
 176 508 176 508 176 485 c 0,24,25
 176 459 176 459 159 442 c 128,-1,26
 142 425 142 425 116 425 c 0,27,28
 86 425 86 425 68.5 443 c 128,-1,29
 51 461 51 461 51 495 c 0,30,31
 51 559 51 559 79.5 604.5 c 128,-1,32
 108 650 108 650 161 680 c 1,33,-1
 171 665 l 1,17,18
EndSplineSet
EndChar

StartChar: quotedblright
Encoding: 8221 8221 7
Width: 408
Flags: W
LayerCount: 2
Fore
SplineSet
62 440 m 1,0,1
 100 466 100 466 121 498 c 128,-1,2
 142 530 142 530 142 575 c 1,3,-1
 112 565 l 1,4,5
 89 565 89 565 73 581 c 128,-1,6
 57 597 57 597 57 620 c 0,7,8
 57 646 57 646 74 663 c 128,-1,9
 91 680 91 680 117 680 c 0,10,11
 147 680 147 680 164.5 662 c 128,-1,12
 182 644 182 644 182 610 c 0,13,14
 182 546 182 546 153.5 500.5 c 128,-1,15
 125 455 125 455 72 425 c 1,16,-1
 62 440 l 1,0,1
242 440 m 1,17,18
 280 466 280 466 301 498 c 128,-1,19
 322 530 322 530 322 575 c 1,20,-1
 292 565 l 1,21,22
 269 565 269 565 253 581 c 128,-1,23
 237 597 237 597 237 620 c 0,24,25
 237 646 237 646 254 663 c 128,-1,26
 271 680 271 680 297 680 c 0,27,28
 327 680 327 680 344.5 662 c 128,-1,29
 362 644 362 644 362 610 c 0,30,31
 362 546 362 546 333.5 500.5 c 128,-1,32
 305 455 305 455 252 425 c 1,33,-1
 242 440 l 1,17,18
EndSplineSet
EndChar

StartChar: guilsinglleft
Encoding: 8249 8249 8
Width: 302
Flags: W
LayerCount: 2
Fore
SplineSet
34 225 m 1,0,-1
 209 420 l 1,1,-1
 249 420 l 1,2,-1
 139 225 l 1,3,-1
 249 30 l 1,4,-1
 209 30 l 1,5,-1
 34 225 l 1,0,-1
EndSplineSet
EndChar

StartChar: quotedblbase
Encoding: 8222 8222 9
Width: 417
Flags: W
LayerCount: 2
Fore
SplineSet
61 -140 m 1,0,1
 99 -114 99 -114 120 -82 c 128,-1,2
 141 -50 141 -50 141 -5 c 1,3,-1
 111 -15 l 1,4,5
 88 -15 88 -15 72 1 c 128,-1,6
 56 17 56 17 56 40 c 0,7,8
 56 66 56 66 73 83 c 128,-1,9
 90 100 90 100 116 100 c 0,10,11
 146 100 146 100 163.5 82 c 128,-1,12
 181 64 181 64 181 30 c 0,13,14
 181 -34 181 -34 152.5 -79.5 c 128,-1,15
 124 -125 124 -125 71 -155 c 1,16,-1
 61 -140 l 1,0,1
241 -140 m 1,17,18
 279 -114 279 -114 300 -82 c 128,-1,19
 321 -50 321 -50 321 -5 c 1,20,-1
 291 -15 l 1,21,22
 268 -15 268 -15 252 1 c 128,-1,23
 236 17 236 17 236 40 c 0,24,25
 236 66 236 66 253 83 c 128,-1,26
 270 100 270 100 296 100 c 0,27,28
 326 100 326 100 343.5 82 c 128,-1,29
 361 64 361 64 361 30 c 0,30,31
 361 -34 361 -34 332.5 -79.5 c 128,-1,32
 304 -125 304 -125 251 -155 c 1,33,-1
 241 -140 l 1,17,18
EndSplineSet
EndChar

StartChar: endash
Encoding: 8211 8211 10
Width: 610
Flags: W
LayerCount: 2
Fore
SplineSet
540 230 m 1,0,-1
 70 230 l 1,1,-1
 70 290 l 1,2,-1
 540 290 l 1,3,-1
 540 230 l 1,0,-1
EndSplineSet
EndChar

StartChar: Euro
Encoding: 8364 8364 11
Width: 728
Flags: W
LayerCount: 2
Fore
SplineSet
378 255 m 1,0,-1
 202 255 l 1,1,2
 209 208 209 208 226 165 c 128,-1,3
 243 122 243 122 272 90 c 128,-1,4
 301 58 301 58 342 39 c 128,-1,5
 383 20 383 20 438 20 c 0,6,7
 513 20 513 20 567 56 c 128,-1,8
 621 92 621 92 663 160 c 1,9,-1
 683 145 l 1,10,11
 659 98 659 98 629.5 66.5 c 128,-1,12
 600 35 600 35 566 15.5 c 128,-1,13
 532 -4 532 -4 492.5 -12 c 128,-1,14
 453 -20 453 -20 408 -20 c 0,15,16
 345 -20 345 -20 293 0.5 c 128,-1,17
 241 21 241 21 201.5 58 c 128,-1,18
 162 95 162 95 137 145.5 c 128,-1,19
 112 196 112 196 103 255 c 1,20,-1
 28 255 l 1,21,-1
 38 295 l 1,22,-1
 98 295 l 1,23,-1
 98 355 l 1,24,-1
 43 355 l 1,25,-1
 53 395 l 1,26,-1
 105 395 l 1,27,28
 116 456 116 456 144 508 c 128,-1,29
 172 560 172 560 212 598.5 c 128,-1,30
 252 637 252 637 302 658.5 c 128,-1,31
 352 680 352 680 408 680 c 0,32,33
 491 680 491 680 551 656.5 c 128,-1,34
 611 633 611 633 638 600 c 0,35,36
 657 577 657 577 660 536 c 128,-1,37
 663 495 663 495 663 450 c 1,38,-1
 643 450 l 1,39,40
 624 548 624 548 572.5 594 c 128,-1,41
 521 640 521 640 438 640 c 0,42,43
 394 640 394 640 355 627.5 c 128,-1,44
 316 615 316 615 284.5 586 c 128,-1,45
 253 557 253 557 231.5 510 c 128,-1,46
 210 463 210 463 202 395 c 1,47,-1
 403 395 l 1,48,-1
 393 355 l 1,49,-1
 198 355 l 1,50,-1
 198 295 l 1,51,-1
 388 295 l 1,52,-1
 378 255 l 1,0,-1
EndSplineSet
EndChar

StartChar: percent
Encoding: 37 37 12
Width: 674
Flags: W
LayerCount: 2
Fore
SplineSet
72 0 m 1,0,-1
 527 660 l 1,1,-1
 602 660 l 1,2,-1
 147 0 l 1,3,-1
 72 0 l 1,0,-1
582 130 m 256,4,5
 582 230 582 230 497 230 c 256,6,7
 412 230 412 230 412 130 c 256,8,9
 412 30 412 30 497 30 c 256,10,11
 582 30 582 30 582 130 c 256,4,5
642 130 m 256,12,13
 642 66 642 66 603.5 30.5 c 128,-1,14
 565 -5 565 -5 497 -5 c 256,15,16
 429 -5 429 -5 390.5 30.5 c 128,-1,17
 352 66 352 66 352 130 c 256,18,19
 352 194 352 194 390.5 229.5 c 128,-1,20
 429 265 429 265 497 265 c 256,21,22
 565 265 565 265 603.5 229.5 c 128,-1,23
 642 194 642 194 642 130 c 256,12,13
262 530 m 256,24,25
 262 630 262 630 177 630 c 256,26,27
 92 630 92 630 92 530 c 256,28,29
 92 430 92 430 177 430 c 256,30,31
 262 430 262 430 262 530 c 256,24,25
322 530 m 256,32,33
 322 466 322 466 283.5 430.5 c 128,-1,34
 245 395 245 395 177 395 c 256,35,36
 109 395 109 395 70.5 430.5 c 128,-1,37
 32 466 32 466 32 530 c 256,38,39
 32 594 32 594 70.5 629.5 c 128,-1,40
 109 665 109 665 177 665 c 256,41,42
 245 665 245 665 283.5 629.5 c 128,-1,43
 322 594 322 594 322 530 c 256,32,33
EndSplineSet
EndChar

StartChar: perthousand
Encoding: 8240 8240 13
Width: 1006
Flags: W
LayerCount: 2
Fore
SplineSet
77 0 m 1,0,-1
 532 660 l 1,1,-1
 607 660 l 1,2,-1
 152 0 l 1,3,-1
 77 0 l 1,0,-1
587 130 m 256,4,5
 587 230 587 230 502 230 c 256,6,7
 417 230 417 230 417 130 c 256,8,9
 417 30 417 30 502 30 c 256,10,11
 587 30 587 30 587 130 c 256,4,5
647 130 m 256,12,13
 647 66 647 66 608.5 30.5 c 128,-1,14
 570 -5 570 -5 502 -5 c 256,15,16
 434 -5 434 -5 395.5 30.5 c 128,-1,17
 357 66 357 66 357 130 c 256,18,19
 357 194 357 194 395.5 229.5 c 128,-1,20
 434 265 434 265 502 265 c 256,21,22
 570 265 570 265 608.5 229.5 c 128,-1,23
 647 194 647 194 647 130 c 256,12,13
267 530 m 256,24,25
 267 630 267 630 182 630 c 256,26,27
 97 630 97 630 97 530 c 256,28,29
 97 430 97 430 182 430 c 256,30,31
 267 430 267 430 267 530 c 256,24,25
327 530 m 256,32,33
 327 466 327 466 288.5 430.5 c 128,-1,34
 250 395 250 395 182 395 c 256,35,36
 114 395 114 395 75.5 430.5 c 128,-1,37
 37 466 37 466 37 530 c 256,38,39
 37 594 37 594 75.5 629.5 c 128,-1,40
 114 665 114 665 182 665 c 256,41,42
 250 665 250 665 288.5 629.5 c 128,-1,43
 327 594 327 594 327 530 c 256,32,33
917 130 m 256,44,45
 917 230 917 230 832 230 c 256,46,47
 747 230 747 230 747 130 c 256,48,49
 747 30 747 30 832 30 c 256,50,51
 917 30 917 30 917 130 c 256,44,45
977 130 m 256,52,53
 977 66 977 66 938.5 30.5 c 128,-1,54
 900 -5 900 -5 832 -5 c 256,55,56
 764 -5 764 -5 725.5 30.5 c 128,-1,57
 687 66 687 66 687 130 c 256,58,59
 687 194 687 194 725.5 229.5 c 128,-1,60
 764 265 764 265 832 265 c 256,61,62
 900 265 900 265 938.5 229.5 c 128,-1,63
 977 194 977 194 977 130 c 256,52,53
EndSplineSet
Ligature2: "'frac' Diagonal Fractions in Latin lookup 0 subtable" zero slash zero zero
EndChar

StartChar: ellipsis
Encoding: 8230 8230 14
Width: 641
Flags: W
LayerCount: 2
Fore
SplineSet
110 95 m 0,0,1
 133 95 133 95 148.5 79 c 128,-1,2
 164 63 164 63 164 41 c 0,3,4
 164 18 164 18 148 2 c 128,-1,5
 132 -14 132 -14 110 -14 c 256,6,7
 88 -14 88 -14 72 2 c 128,-1,8
 56 18 56 18 56 41 c 0,9,10
 56 63 56 63 72 79 c 128,-1,11
 88 95 88 95 110 95 c 0,0,1
320 95 m 0,12,13
 343 95 343 95 358.5 79 c 128,-1,14
 374 63 374 63 374 41 c 0,15,16
 374 18 374 18 358 2 c 128,-1,17
 342 -14 342 -14 320 -14 c 256,18,19
 298 -14 298 -14 282 2 c 128,-1,20
 266 18 266 18 266 41 c 0,21,22
 266 63 266 63 282 79 c 128,-1,23
 298 95 298 95 320 95 c 0,12,13
530 95 m 0,24,25
 553 95 553 95 568.5 79 c 128,-1,26
 584 63 584 63 584 41 c 0,27,28
 584 18 584 18 568 2 c 128,-1,29
 552 -14 552 -14 530 -14 c 256,30,31
 508 -14 508 -14 492 2 c 128,-1,32
 476 18 476 18 476 41 c 0,33,34
 476 63 476 63 492 79 c 128,-1,35
 508 95 508 95 530 95 c 0,24,25
EndSplineSet
EndChar

StartChar: guilsinglright
Encoding: 8250 8250 15
Width: 302
Flags: W
LayerCount: 2
Fore
SplineSet
93 30 m 1,0,-1
 53 30 l 1,1,-1
 163 225 l 1,2,-1
 53 420 l 1,3,-1
 93 420 l 1,4,-1
 268 225 l 1,5,-1
 93 30 l 1,0,-1
EndSplineSet
EndChar

StartChar: guillemotright
Encoding: 187 187 16
Width: 372
Flags: W
LayerCount: 2
Fore
SplineSet
197 225 m 1,0,-1
 97 80 l 1,1,-1
 57 80 l 1,2,-1
 117 225 l 1,3,-1
 57 370 l 1,4,-1
 97 370 l 1,5,-1
 197 225 l 1,0,-1
142 420 m 1,6,-1
 182 420 l 1,7,-1
 337 225 l 1,8,-1
 182 30 l 1,9,-1
 142 30 l 1,10,-1
 237 225 l 1,11,-1
 142 420 l 1,6,-1
EndSplineSet
EndChar

StartChar: quotesinglbase
Encoding: 8218 8218 17
Width: 237
Flags: W
LayerCount: 2
Fore
SplineSet
61 -140 m 1,0,1
 99 -114 99 -114 120 -82 c 128,-1,2
 141 -50 141 -50 141 -5 c 1,3,-1
 111 -15 l 1,4,5
 88 -15 88 -15 72 1 c 128,-1,6
 56 17 56 17 56 40 c 0,7,8
 56 66 56 66 73 83 c 128,-1,9
 90 100 90 100 116 100 c 0,10,11
 146 100 146 100 163.5 82 c 128,-1,12
 181 64 181 64 181 30 c 0,13,14
 181 -34 181 -34 152.5 -79.5 c 128,-1,15
 124 -125 124 -125 71 -155 c 1,16,-1
 61 -140 l 1,0,1
EndSplineSet
EndChar

StartChar: quoteleft
Encoding: 8216 8216 18
Width: 226
Flags: W
LayerCount: 2
Fore
SplineSet
171 665 m 1,0,1
 133 639 133 639 112 607 c 128,-1,2
 91 575 91 575 91 530 c 1,3,-1
 121 540 l 1,4,5
 144 540 144 540 160 524 c 128,-1,6
 176 508 176 508 176 485 c 0,7,8
 176 459 176 459 159 442 c 128,-1,9
 142 425 142 425 116 425 c 0,10,11
 86 425 86 425 68.5 443 c 128,-1,12
 51 461 51 461 51 495 c 0,13,14
 51 559 51 559 79.5 604.5 c 128,-1,15
 108 650 108 650 161 680 c 1,16,-1
 171 665 l 1,0,1
EndSplineSet
EndChar

StartChar: quoteright
Encoding: 8217 8217 19
Width: 228
Flags: W
LayerCount: 2
Fore
SplineSet
62 440 m 1,0,1
 100 466 100 466 121 498 c 128,-1,2
 142 530 142 530 142 575 c 1,3,-1
 112 565 l 1,4,5
 89 565 89 565 73 581 c 128,-1,6
 57 597 57 597 57 620 c 0,7,8
 57 646 57 646 74 663 c 128,-1,9
 91 680 91 680 117 680 c 0,10,11
 147 680 147 680 164.5 662 c 128,-1,12
 182 644 182 644 182 610 c 0,13,14
 182 546 182 546 153.5 500.5 c 128,-1,15
 125 455 125 455 72 425 c 1,16,-1
 62 440 l 1,0,1
EndSplineSet
EndChar

StartChar: trademark
Encoding: 8482 8482 20
Width: 885
Flags: W
LayerCount: 2
Fore
SplineSet
146 630 m 2,0,1
 112 630 112 630 90 611 c 128,-1,2
 68 592 68 592 68 555 c 1,3,-1
 53 555 l 1,4,-1
 53 600 l 2,5,6
 53 623 53 623 64 641.5 c 128,-1,7
 75 660 75 660 109 660 c 2,8,-1
 382 660 l 1,9,-1
 382 630 l 1,10,-1
 251 630 l 1,11,-1
 251 307 l 1,12,-1
 184 307 l 1,13,-1
 184 630 l 1,14,-1
 146 630 l 2,0,1
588 307 m 1,15,-1
 573 307 l 1,16,-1
 446 589 l 1,17,-1
 446 307 l 1,18,-1
 416 307 l 1,19,-1
 416 660 l 1,20,-1
 487 660 l 1,21,-1
 599 412 l 1,22,-1
 711 660 l 1,23,-1
 778 660 l 1,24,-1
 778 420 l 2,25,26
 778 399 778 399 782 378.5 c 128,-1,27
 786 358 786 358 794 342 c 128,-1,28
 802 326 802 326 813 316.5 c 128,-1,29
 824 307 824 307 838 307 c 1,30,-1
 838 292 l 1,31,32
 802 292 802 292 777.5 301 c 128,-1,33
 753 310 753 310 738 326.5 c 128,-1,34
 723 343 723 343 717 366.5 c 128,-1,35
 711 390 711 390 711 420 c 2,36,-1
 711 582 l 1,37,-1
 588 307 l 1,15,-1
EndSplineSet
EndChar

StartChar: exclam
Encoding: 33 33 21
Width: 234
Flags: W
LayerCount: 2
Fore
SplineSet
146 155 m 1,0,-1
 88 155 l 1,1,-1
 70 660 l 1,2,-1
 164 660 l 1,3,-1
 146 155 l 1,0,-1
117 94 m 256,4,5
 139 94 139 94 155 78.5 c 128,-1,6
 171 63 171 63 171 41 c 0,7,8
 171 18 171 18 155 2 c 128,-1,9
 139 -14 139 -14 117 -14 c 256,10,11
 95 -14 95 -14 79 2 c 128,-1,12
 63 18 63 18 63 41 c 0,13,14
 63 63 63 63 79 78.5 c 128,-1,15
 95 94 95 94 117 94 c 256,4,5
EndSplineSet
EndChar

StartChar: quotedbl
Encoding: 34 34 22
Width: 366
Flags: W
LayerCount: 2
Fore
SplineSet
243 390 m 1,0,-1
 213 660 l 1,1,-1
 313 660 l 1,2,-1
 283 390 l 1,3,-1
 243 390 l 1,0,-1
83 390 m 1,4,-1
 53 660 l 1,5,-1
 153 660 l 1,6,-1
 123 390 l 1,7,-1
 83 390 l 1,4,-1
EndSplineSet
EndChar

StartChar: numbersign
Encoding: 35 35 23
Width: 668
Flags: W
LayerCount: 2
Fore
SplineSet
126 0 m 1,0,-1
 161 175 l 1,1,-1
 31 175 l 1,2,-1
 31 235 l 1,3,-1
 175 235 l 1,4,-1
 211 415 l 1,5,-1
 91 415 l 1,6,-1
 91 475 l 1,7,-1
 224 475 l 1,8,-1
 266 675 l 1,9,-1
 331 675 l 1,10,-1
 289 475 l 1,11,-1
 434 475 l 1,12,-1
 476 675 l 1,13,-1
 541 675 l 1,14,-1
 499 475 l 1,15,-1
 636 475 l 1,16,-1
 636 415 l 1,17,-1
 486 415 l 1,18,-1
 449 235 l 1,19,-1
 576 235 l 1,20,-1
 576 175 l 1,21,-1
 436 175 l 1,22,-1
 401 0 l 1,23,-1
 336 0 l 1,24,-1
 371 175 l 1,25,-1
 226 175 l 1,26,-1
 191 0 l 1,27,-1
 126 0 l 1,0,-1
239 235 m 1,28,-1
 385 235 l 1,29,-1
 421 415 l 1,30,-1
 276 415 l 1,31,-1
 239 235 l 1,28,-1
EndSplineSet
EndChar

StartChar: dollar
Encoding: 36 36 24
Width: 527
Flags: W
LayerCount: 2
Fore
SplineSet
237 -80 m 1,0,-1
 237 -15 l 1,1,2
 201 -11 201 -11 167.5 -1 c 128,-1,3
 134 9 134 9 107.5 24 c 128,-1,4
 81 39 81 39 65.5 59.5 c 128,-1,5
 50 80 50 80 50 105 c 2,6,-1
 50 212 l 1,7,-1
 68 212 l 1,8,9
 83 121 83 121 125 76.5 c 128,-1,10
 167 32 167 32 237 24 c 1,11,-1
 237 294 l 1,12,-1
 167 336 l 2,13,14
 103 374 103 374 76.5 413 c 128,-1,15
 50 452 50 452 50 508 c 0,16,17
 50 546 50 546 63.5 577 c 128,-1,18
 77 608 77 608 101.5 630 c 128,-1,19
 126 652 126 652 160.5 664.5 c 128,-1,20
 195 677 195 677 237 678 c 1,21,-1
 237 735 l 1,22,-1
 277 735 l 1,23,-1
 277 676 l 1,24,25
 311 673 311 673 343.5 663.5 c 128,-1,26
 376 654 376 654 402 639 c 128,-1,27
 428 624 428 624 444 603.5 c 128,-1,28
 460 583 460 583 460 558 c 2,29,-1
 460 451 l 1,30,-1
 442 451 l 1,31,32
 427 542 427 542 386.5 585 c 128,-1,33
 346 628 346 628 277 636 c 1,34,-1
 277 383 l 1,35,-1
 362 333 l 2,36,37
 394 314 394 314 417.5 296.5 c 128,-1,38
 441 279 441 279 456 259.5 c 128,-1,39
 471 240 471 240 478.5 218 c 128,-1,40
 486 196 486 196 486 168 c 0,41,42
 486 83 486 83 430.5 33 c 128,-1,43
 375 -17 375 -17 277 -17 c 1,44,-1
 277 -80 l 1,45,-1
 237 -80 l 1,0,-1
277 270 m 1,46,-1
 277 23 l 1,47,48
 301 24 301 24 323.5 31 c 128,-1,49
 346 38 346 38 363 51 c 128,-1,50
 380 64 380 64 390 82.5 c 128,-1,51
 400 101 400 101 400 125 c 0,52,53
 400 169 400 169 372.5 200 c 128,-1,54
 345 231 345 231 290 263 c 1,55,-1
 277 270 l 1,46,-1
128 537 m 256,56,57
 128 515 128 515 135 498 c 128,-1,58
 142 481 142 481 155.5 466 c 128,-1,59
 169 451 169 451 189.5 437 c 128,-1,60
 210 423 210 423 237 407 c 1,61,-1
 237 638 l 1,62,63
 216 637 216 637 196 629.5 c 128,-1,64
 176 622 176 622 161 608.5 c 128,-1,65
 146 595 146 595 137 577 c 128,-1,66
 128 559 128 559 128 537 c 256,56,57
EndSplineSet
EndChar

StartChar: ampersand
Encoding: 38 38 25
Width: 616
Flags: W
LayerCount: 2
Fore
SplineSet
42 140 m 0,0,1
 42 171 42 171 54 196.5 c 128,-1,2
 66 222 66 222 86 244.5 c 128,-1,3
 106 267 106 267 132 286.5 c 128,-1,4
 158 306 158 306 185 326 c 1,5,6
 156 351 156 351 133 382 c 0,7,8
 113 408 113 408 97.5 444.5 c 128,-1,9
 82 481 82 481 82 524 c 0,10,11
 82 596 82 596 130.5 638 c 128,-1,12
 179 680 179 680 262 680 c 0,13,14
 341 680 341 680 384 640 c 128,-1,15
 427 600 427 600 427 540 c 0,16,17
 427 505 427 505 415 477 c 128,-1,18
 403 449 403 449 383 425.5 c 128,-1,19
 363 402 363 402 336.5 381 c 128,-1,20
 310 360 310 360 281 340 c 1,21,-1
 482 120 l 1,22,23
 503 143 503 143 519.5 165 c 128,-1,24
 536 187 536 187 548 205 c 0,25,26
 561 226 561 226 572 245 c 1,27,-1
 592 230 l 1,28,29
 583 210 583 210 570 188 c 0,30,31
 559 169 559 169 542 145 c 128,-1,32
 525 121 525 121 503 97 c 1,33,-1
 592 0 l 1,34,-1
 482 0 l 1,35,-1
 442 43 l 1,36,37
 406 16 406 16 359 -2 c 128,-1,38
 312 -20 312 -20 252 -20 c 0,39,40
 199 -20 199 -20 160 -7.5 c 128,-1,41
 121 5 121 5 94.5 26.5 c 128,-1,42
 68 48 68 48 55 77 c 128,-1,43
 42 106 42 106 42 140 c 0,0,1
271 15 m 0,44,45
 317 15 317 15 354 29 c 128,-1,46
 391 43 391 43 421 66 c 1,47,-1
 215 291 l 1,48,49
 181 262 181 262 159 228.5 c 128,-1,50
 137 195 137 195 137 150 c 0,51,52
 137 15 137 15 271 15 c 0,44,45
177 524 m 0,53,54
 177 494 177 494 187.5 468 c 128,-1,55
 198 442 198 442 211 422 c 128,-1,56
 224 402 224 402 235.5 389.5 c 128,-1,57
 247 377 247 377 250 375 c 1,58,59
 288 407 288 407 315 443.5 c 128,-1,60
 342 480 342 480 342 530 c 0,61,62
 342 562 342 562 334.5 584 c 128,-1,63
 327 606 327 606 315 619.5 c 128,-1,64
 303 633 303 633 289 639 c 128,-1,65
 275 645 275 645 262 645 c 0,66,67
 247 645 247 645 232 639 c 128,-1,68
 217 633 217 633 204.5 618.5 c 128,-1,69
 192 604 192 604 184.5 581 c 128,-1,70
 177 558 177 558 177 524 c 0,53,54
EndSplineSet
EndChar

StartChar: quotesingle
Encoding: 39 39 26
Width: 206
Flags: W
LayerCount: 2
Fore
SplineSet
83 390 m 1,0,-1
 53 660 l 1,1,-1
 153 660 l 1,2,-1
 123 390 l 1,3,-1
 83 390 l 1,0,-1
EndSplineSet
EndChar

StartChar: parenleft
Encoding: 40 40 27
Width: 309
Flags: W
LayerCount: 2
Fore
SplineSet
34 240 m 256,0,1
 34 315 34 315 50.5 378 c 128,-1,2
 67 441 67 441 99 495 c 128,-1,3
 131 549 131 549 177.5 597 c 128,-1,4
 224 645 224 645 284 690 c 1,5,-1
 294 675 l 1,6,7
 245 632 245 632 212.5 581 c 128,-1,8
 180 530 180 530 160.5 474.5 c 128,-1,9
 141 419 141 419 132.5 359.5 c 128,-1,10
 124 300 124 300 124 240 c 256,11,12
 124 180 124 180 132.5 120.5 c 128,-1,13
 141 61 141 61 160.5 5.5 c 128,-1,14
 180 -50 180 -50 212.5 -101 c 128,-1,15
 245 -152 245 -152 294 -195 c 1,16,-1
 284 -210 l 1,17,18
 224 -165 224 -165 177.5 -117 c 128,-1,19
 131 -69 131 -69 99 -15 c 128,-1,20
 67 39 67 39 50.5 102 c 128,-1,21
 34 165 34 165 34 240 c 256,0,1
EndSplineSet
EndChar

StartChar: parenright
Encoding: 41 41 28
Width: 309
Flags: W
LayerCount: 2
Fore
SplineSet
275 240 m 256,0,1
 275 165 275 165 258.5 102 c 128,-1,2
 242 39 242 39 210 -15 c 128,-1,3
 178 -69 178 -69 131.5 -117 c 128,-1,4
 85 -165 85 -165 25 -210 c 1,5,-1
 15 -195 l 1,6,7
 64 -152 64 -152 96.5 -101 c 128,-1,8
 129 -50 129 -50 148.5 5.5 c 128,-1,9
 168 61 168 61 176.5 120.5 c 128,-1,10
 185 180 185 180 185 240 c 256,11,12
 185 300 185 300 176.5 359.5 c 128,-1,13
 168 419 168 419 148.5 474.5 c 128,-1,14
 129 530 129 530 96.5 581 c 128,-1,15
 64 632 64 632 15 675 c 1,16,-1
 25 690 l 1,17,18
 85 645 85 645 131.5 597 c 128,-1,19
 178 549 178 549 210 495 c 128,-1,20
 242 441 242 441 258.5 378 c 128,-1,21
 275 315 275 315 275 240 c 256,0,1
EndSplineSet
EndChar

StartChar: asterisk
Encoding: 42 42 29
Width: 424
Flags: W
LayerCount: 2
Fore
SplineSet
172 660 m 1,0,-1
 252 660 l 1,1,-1
 222 510 l 1,2,-1
 337 615 l 1,3,-1
 377 545 l 1,4,-1
 232 495 l 1,5,-1
 377 445 l 1,6,-1
 337 375 l 1,7,-1
 222 480 l 1,8,-1
 252 330 l 1,9,-1
 172 330 l 1,10,-1
 202 480 l 1,11,-1
 87 375 l 1,12,-1
 47 445 l 1,13,-1
 192 495 l 1,14,-1
 47 545 l 1,15,-1
 87 615 l 1,16,-1
 202 510 l 1,17,-1
 172 660 l 1,0,-1
EndSplineSet
EndChar

StartChar: plus
Encoding: 43 43 30
Width: 530
Flags: W
LayerCount: 2
Fore
SplineSet
235 300 m 1,0,-1
 35 300 l 1,1,-1
 35 360 l 1,2,-1
 235 360 l 1,3,-1
 235 560 l 1,4,-1
 295 560 l 1,5,-1
 295 360 l 1,6,-1
 495 360 l 1,7,-1
 495 300 l 1,8,-1
 295 300 l 1,9,-1
 295 100 l 1,10,-1
 235 100 l 1,11,-1
 235 300 l 1,0,-1
EndSplineSet
EndChar

StartChar: comma
Encoding: 44 44 31
Width: 237
Flags: W
LayerCount: 2
Fore
SplineSet
61 -140 m 1,0,1
 99 -114 99 -114 120 -82 c 128,-1,2
 141 -50 141 -50 141 -5 c 1,3,-1
 111 -15 l 1,4,5
 88 -15 88 -15 72 1 c 128,-1,6
 56 17 56 17 56 40 c 0,7,8
 56 66 56 66 73 83 c 128,-1,9
 90 100 90 100 116 100 c 0,10,11
 146 100 146 100 163.5 82 c 128,-1,12
 181 64 181 64 181 30 c 0,13,14
 181 -34 181 -34 152.5 -79.5 c 128,-1,15
 124 -125 124 -125 71 -155 c 1,16,-1
 61 -140 l 1,0,1
EndSplineSet
EndChar

StartChar: hyphen
Encoding: 45 45 32
Width: 387
Flags: W
LayerCount: 2
Fore
SplineSet
66 300 m 1,0,-1
 321 300 l 1,1,-1
 321 230 l 1,2,-1
 66 230 l 1,3,-1
 66 300 l 1,0,-1
EndSplineSet
EndChar

StartChar: period
Encoding: 46 46 33
Width: 221
Flags: W
LayerCount: 2
Fore
SplineSet
110 95 m 0,0,1
 133 95 133 95 148.5 79 c 128,-1,2
 164 63 164 63 164 41 c 0,3,4
 164 18 164 18 148 2 c 128,-1,5
 132 -14 132 -14 110 -14 c 256,6,7
 88 -14 88 -14 72 2 c 128,-1,8
 56 18 56 18 56 41 c 0,9,10
 56 63 56 63 72 79 c 128,-1,11
 88 95 88 95 110 95 c 0,0,1
EndSplineSet
EndChar

StartChar: slash
Encoding: 47 47 34
Width: 440
Flags: W
LayerCount: 2
Fore
SplineSet
23 0 m 1,0,-1
 344 660 l 1,1,-1
 417 660 l 1,2,-1
 96 0 l 1,3,-1
 23 0 l 1,0,-1
EndSplineSet
EndChar

StartChar: zero
Encoding: 48 48 35
Width: 584
Flags: W
LayerCount: 2
Fore
SplineSet
292 640 m 256,0,1
 251 640 251 640 224 621 c 128,-1,2
 197 602 197 602 181 563.5 c 128,-1,3
 165 525 165 525 158.5 467 c 128,-1,4
 152 409 152 409 152 330 c 256,5,6
 152 251 152 251 158.5 193 c 128,-1,7
 165 135 165 135 181 96.5 c 128,-1,8
 197 58 197 58 224 39 c 128,-1,9
 251 20 251 20 292 20 c 256,10,11
 333 20 333 20 360 39 c 128,-1,12
 387 58 387 58 403 96.5 c 128,-1,13
 419 135 419 135 425.5 193 c 128,-1,14
 432 251 432 251 432 330 c 256,15,16
 432 409 432 409 425.5 467 c 128,-1,17
 419 525 419 525 403 563.5 c 128,-1,18
 387 602 387 602 360 621 c 128,-1,19
 333 640 333 640 292 640 c 256,0,1
292 680 m 256,20,21
 358 680 358 680 403.5 655 c 128,-1,22
 449 630 449 630 477.5 584 c 128,-1,23
 506 538 506 538 519 473.5 c 128,-1,24
 532 409 532 409 532 330 c 256,25,26
 532 251 532 251 519 186.5 c 128,-1,27
 506 122 506 122 477.5 76 c 128,-1,28
 449 30 449 30 403.5 5 c 128,-1,29
 358 -20 358 -20 292 -20 c 256,30,31
 226 -20 226 -20 180.5 5 c 128,-1,32
 135 30 135 30 106.5 76 c 128,-1,33
 78 122 78 122 65 186.5 c 128,-1,34
 52 251 52 251 52 330 c 256,35,36
 52 409 52 409 65 473.5 c 128,-1,37
 78 538 78 538 106.5 584 c 128,-1,38
 135 630 135 630 180.5 655 c 128,-1,39
 226 680 226 680 292 680 c 256,20,21
EndSplineSet
EndChar

StartChar: one
Encoding: 49 49 36
Width: 305
Flags: W
LayerCount: 2
Fore
SplineSet
219 0 m 1,0,-1
 129 0 l 1,1,-1
 129 560 l 1,2,-1
 32 497 l 1,3,-1
 14 520 l 1,4,-1
 169 660 l 1,5,-1
 219 660 l 1,6,-1
 219 0 l 1,0,-1
EndSplineSet
EndChar

StartChar: two
Encoding: 50 50 37
Width: 530
Flags: W
LayerCount: 2
Fore
SplineSet
336 40 m 2,0,1
 396 40 396 40 428.5 66 c 128,-1,2
 461 92 461 92 461 145 c 1,3,-1
 481 145 l 1,4,-1
 481 80 l 2,5,6
 481 65 481 65 477.5 50.5 c 128,-1,7
 474 36 474 36 464.5 25 c 128,-1,8
 455 14 455 14 438.5 7 c 128,-1,9
 422 0 422 0 396 0 c 2,10,-1
 41 0 l 1,11,-1
 41 50 l 1,12,13
 120 127 120 127 180.5 184 c 128,-1,14
 241 241 241 241 282 290.5 c 128,-1,15
 323 340 323 340 344.5 387 c 128,-1,16
 366 434 366 434 366 490 c 0,17,18
 366 527 366 527 355.5 555.5 c 128,-1,19
 345 584 345 584 327 602.5 c 128,-1,20
 309 621 309 621 285.5 630.5 c 128,-1,21
 262 640 262 640 236 640 c 0,22,23
 176 640 176 640 131 596.5 c 128,-1,24
 86 553 86 553 71 470 c 1,25,-1
 51 470 l 1,26,27
 51 508 51 508 54 542.5 c 128,-1,28
 57 577 57 577 75 600 c 0,29,30
 102 633 102 633 154 656.5 c 128,-1,31
 206 680 206 680 266 680 c 0,32,33
 296 680 296 680 331 673 c 128,-1,34
 366 666 366 666 396 645 c 128,-1,35
 426 624 426 624 446 587 c 128,-1,36
 466 550 466 550 466 490 c 0,37,38
 466 426 466 426 436.5 372.5 c 128,-1,39
 407 319 407 319 358 267 c 128,-1,40
 309 215 309 215 244.5 160.5 c 128,-1,41
 180 106 180 106 111 40 c 1,42,-1
 336 40 l 2,0,1
EndSplineSet
EndChar

StartChar: three
Encoding: 51 51 38
Width: 530
Flags: W
LayerCount: 2
Fore
SplineSet
191 370 m 1,0,1
 217 377 217 377 244.5 378.5 c 128,-1,2
 272 380 272 380 281 380 c 0,3,4
 303 380 303 380 338.5 372.5 c 128,-1,5
 374 365 374 365 408 344 c 128,-1,6
 442 323 442 323 466.5 285 c 128,-1,7
 491 247 491 247 491 185 c 0,8,9
 491 119 491 119 466.5 79 c 128,-1,10
 442 39 442 39 406.5 17 c 128,-1,11
 371 -5 371 -5 332.5 -12.5 c 128,-1,12
 294 -20 294 -20 266 -20 c 0,13,14
 191 -20 191 -20 136.5 9 c 128,-1,15
 82 38 82 38 40 87 c 1,16,-1
 56 105 l 1,17,18
 94 63 94 63 139 41.5 c 128,-1,19
 184 20 184 20 241 20 c 0,20,21
 271 20 271 20 298 29.5 c 128,-1,22
 325 39 325 39 346 59.5 c 128,-1,23
 367 80 367 80 379 111 c 128,-1,24
 391 142 391 142 391 185 c 0,25,26
 391 224 391 224 379 253.5 c 128,-1,27
 367 283 367 283 348.5 302 c 128,-1,28
 330 321 330 321 306.5 330.5 c 128,-1,29
 283 340 283 340 261 340 c 0,30,31
 238 340 238 340 223 339 c 128,-1,32
 208 338 208 338 195.5 336 c 128,-1,33
 183 334 183 334 170.5 331.5 c 128,-1,34
 158 329 158 329 141 325 c 1,35,-1
 115 367 l 1,36,-1
 386 620 l 1,37,-1
 201 620 l 2,38,39
 141 620 141 620 108.5 594 c 128,-1,40
 76 568 76 568 76 515 c 1,41,-1
 56 515 l 1,42,-1
 56 580 l 2,43,44
 56 595 56 595 59.5 609.5 c 128,-1,45
 63 624 63 624 72.5 635 c 128,-1,46
 82 646 82 646 98.5 653 c 128,-1,47
 115 660 115 660 141 660 c 2,48,-1
 459 660 l 1,49,-1
 459 620 l 1,50,-1
 191 370 l 1,0,1
EndSplineSet
EndChar

StartChar: four
Encoding: 52 52 39
Width: 546
Flags: W
LayerCount: 2
Fore
SplineSet
428 210 m 1,0,-1
 518 210 l 1,1,-1
 518 170 l 1,2,-1
 428 170 l 1,3,-1
 428 0 l 1,4,-1
 338 0 l 1,5,-1
 338 170 l 1,6,-1
 18 170 l 1,7,-1
 18 210 l 1,8,-1
 348 660 l 1,9,-1
 428 660 l 1,10,-1
 428 210 l 1,0,-1
338 210 m 1,11,-1
 338 564 l 1,12,-1
 78 210 l 1,13,-1
 338 210 l 1,11,-1
EndSplineSet
EndChar

StartChar: five
Encoding: 53 53 40
Width: 530
Flags: W
LayerCount: 2
Fore
SplineSet
252 380 m 0,0,1
 289 380 289 380 331.5 372 c 128,-1,2
 374 364 374 364 409.5 342.5 c 128,-1,3
 445 321 445 321 468.5 283 c 128,-1,4
 492 245 492 245 492 185 c 0,5,6
 492 121 492 121 467 81 c 128,-1,7
 442 41 442 41 406 18.5 c 128,-1,8
 370 -4 370 -4 329.5 -12 c 128,-1,9
 289 -20 289 -20 257 -20 c 0,10,11
 182 -20 182 -20 132.5 8 c 128,-1,12
 83 36 83 36 42 85 c 1,13,-1
 61 102 l 1,14,15
 99 60 99 60 143 40 c 128,-1,16
 187 20 187 20 242 20 c 0,17,18
 272 20 272 20 299 29.5 c 128,-1,19
 326 39 326 39 347 59.5 c 128,-1,20
 368 80 368 80 380 111 c 128,-1,21
 392 142 392 142 392 185 c 0,22,23
 392 264 392 264 349.5 302 c 128,-1,24
 307 340 307 340 232 340 c 0,25,26
 209 340 209 340 187 338.5 c 128,-1,27
 165 337 165 337 147 335 c 2,28,-1
 107 330 l 1,29,-1
 67 370 l 1,30,-1
 77 660 l 1,31,-1
 452 660 l 1,32,-1
 452 620 l 1,33,-1
 159 620 l 1,34,-1
 150 375 l 1,35,36
 165 376 165 376 182 377 c 0,37,38
 196 378 196 378 214.5 379 c 128,-1,39
 233 380 233 380 252 380 c 0,0,1
EndSplineSet
EndChar

StartChar: six
Encoding: 54 54 41
Width: 536
Flags: W
LayerCount: 2
Fore
SplineSet
147 340 m 1,0,1
 147 254 147 254 157 193 c 128,-1,2
 167 132 167 132 184.5 93.5 c 128,-1,3
 202 55 202 55 227 37.5 c 128,-1,4
 252 20 252 20 282 20 c 0,5,6
 310 20 310 20 332.5 35.5 c 128,-1,7
 355 51 355 51 370.5 77 c 128,-1,8
 386 103 386 103 394 136 c 128,-1,9
 402 169 402 169 402 205 c 0,10,11
 402 291 402 291 370 340.5 c 128,-1,12
 338 390 338 390 267 390 c 0,13,14
 229 390 229 390 201 376.5 c 128,-1,15
 173 363 173 363 147 340 c 1,0,1
52 330 m 0,16,17
 52 504 52 504 113 592 c 128,-1,18
 174 680 174 680 302 680 c 0,19,20
 351 680 351 680 389 670.5 c 128,-1,21
 427 661 427 661 457 650 c 1,22,-1
 452 630 l 1,23,24
 429 634 429 634 394.5 637 c 128,-1,25
 360 640 360 640 322 640 c 0,26,27
 277 640 277 640 244 622 c 128,-1,28
 211 604 211 604 189.5 570.5 c 128,-1,29
 168 537 168 537 157.5 490 c 128,-1,30
 147 443 147 443 147 385 c 1,31,32
 173 404 173 404 208.5 417 c 128,-1,33
 244 430 244 430 297 430 c 0,34,35
 349 430 349 430 387 414 c 128,-1,36
 425 398 425 398 449.5 368.5 c 128,-1,37
 474 339 474 339 485.5 297.5 c 128,-1,38
 497 256 497 256 497 205 c 0,39,40
 497 162 497 162 484 121.5 c 128,-1,41
 471 81 471 81 444 49.5 c 128,-1,42
 417 18 417 18 376.5 -1 c 128,-1,43
 336 -20 336 -20 282 -20 c 0,44,45
 162 -20 162 -20 107 68.5 c 128,-1,46
 52 157 52 157 52 330 c 0,16,17
EndSplineSet
EndChar

StartChar: seven
Encoding: 55 55 42
Width: 474
Flags: W
LayerCount: 2
Fore
SplineSet
211 0 m 1,0,-1
 121 0 l 1,1,-1
 371 620 l 1,2,-1
 171 620 l 2,3,4
 111 620 111 620 78.5 594 c 128,-1,5
 46 568 46 568 46 515 c 1,6,-1
 26 515 l 1,7,-1
 26 580 l 2,8,9
 26 595 26 595 29.5 609.5 c 128,-1,10
 33 624 33 624 42.5 635 c 128,-1,11
 52 646 52 646 68.5 653 c 128,-1,12
 85 660 85 660 111 660 c 2,13,-1
 461 660 l 1,14,-1
 461 620 l 1,15,-1
 211 0 l 1,0,-1
EndSplineSet
EndChar

StartChar: eight
Encoding: 56 56 43
Width: 554
Flags: W
LayerCount: 2
Fore
SplineSet
482 520 m 0,0,1
 482 490 482 490 471.5 465 c 128,-1,2
 461 440 461 440 443.5 419.5 c 128,-1,3
 426 399 426 399 403.5 383 c 128,-1,4
 381 367 381 367 357 355 c 1,5,6
 385 338 385 338 412 320 c 128,-1,7
 439 302 439 302 460 279 c 128,-1,8
 481 256 481 256 494 227 c 128,-1,9
 507 198 507 198 507 160 c 0,10,11
 507 111 507 111 488.5 77 c 128,-1,12
 470 43 470 43 438.5 21.5 c 128,-1,13
 407 0 407 0 365.5 -10 c 128,-1,14
 324 -20 324 -20 277 -20 c 256,15,16
 230 -20 230 -20 188.5 -10.5 c 128,-1,17
 147 -1 147 -1 115.5 20 c 128,-1,18
 84 41 84 41 65.5 73 c 128,-1,19
 47 105 47 105 47 150 c 0,20,21
 47 187 47 187 60.5 216 c 128,-1,22
 74 245 74 245 96.5 267 c 128,-1,23
 119 289 119 289 148 305.5 c 128,-1,24
 177 322 177 322 207 335 c 1,25,26
 181 350 181 350 156.5 367 c 128,-1,27
 132 384 132 384 113 404.5 c 128,-1,28
 94 425 94 425 83 451 c 128,-1,29
 72 477 72 477 72 510 c 0,30,31
 72 559 72 559 88.5 591.5 c 128,-1,32
 105 624 105 624 133 643.5 c 128,-1,33
 161 663 161 663 198.5 671.5 c 128,-1,34
 236 680 236 680 277 680 c 256,35,36
 318 680 318 680 355.5 672 c 128,-1,37
 393 664 393 664 421 645 c 128,-1,38
 449 626 449 626 465.5 595.5 c 128,-1,39
 482 565 482 565 482 520 c 0,0,1
412 140 m 0,40,41
 412 172 412 172 399 197 c 128,-1,42
 386 222 386 222 364 243 c 128,-1,43
 342 264 342 264 313 281 c 128,-1,44
 284 298 284 298 252 315 c 1,45,46
 230 304 230 304 210 290.5 c 128,-1,47
 190 277 190 277 175 257.5 c 128,-1,48
 160 238 160 238 151 212 c 128,-1,49
 142 186 142 186 142 150 c 0,50,51
 142 116 142 116 153 91.5 c 128,-1,52
 164 67 164 67 183 51 c 128,-1,53
 202 35 202 35 226.5 27.5 c 128,-1,54
 251 20 251 20 277 20 c 256,55,56
 303 20 303 20 327.5 27.5 c 128,-1,57
 352 35 352 35 370.5 50 c 128,-1,58
 389 65 389 65 400.5 87.5 c 128,-1,59
 412 110 412 110 412 140 c 0,40,41
167 530 m 0,60,61
 167 506 167 506 179 484 c 128,-1,62
 191 462 191 462 211.5 443.5 c 128,-1,63
 232 425 232 425 258 409 c 128,-1,64
 284 393 284 393 312 380 c 1,65,66
 342 402 342 402 364.5 433 c 128,-1,67
 387 464 387 464 387 520 c 0,68,69
 387 556 387 556 377 579 c 128,-1,70
 367 602 367 602 351 615.5 c 128,-1,71
 335 629 335 629 315.5 634.5 c 128,-1,72
 296 640 296 640 277 640 c 256,73,74
 258 640 258 640 238.5 635 c 128,-1,75
 219 630 219 630 203 617 c 128,-1,76
 187 604 187 604 177 583 c 128,-1,77
 167 562 167 562 167 530 c 0,60,61
EndSplineSet
EndChar

StartChar: nine
Encoding: 57 57 44
Width: 537
Flags: W
LayerCount: 2
Fore
SplineSet
390 320 m 1,0,1
 390 406 390 406 380 467 c 128,-1,2
 370 528 370 528 352.5 566.5 c 128,-1,3
 335 605 335 605 310 622.5 c 128,-1,4
 285 640 285 640 255 640 c 0,5,6
 227 640 227 640 204.5 624.5 c 128,-1,7
 182 609 182 609 166.5 583 c 128,-1,8
 151 557 151 557 143 524 c 128,-1,9
 135 491 135 491 135 455 c 0,10,11
 135 369 135 369 167 319.5 c 128,-1,12
 199 270 199 270 270 270 c 0,13,14
 308 270 308 270 336 283.5 c 128,-1,15
 364 297 364 297 390 320 c 1,0,1
485 330 m 0,16,17
 485 156 485 156 424 68 c 128,-1,18
 363 -20 363 -20 235 -20 c 0,19,20
 186 -20 186 -20 148 -10.5 c 128,-1,21
 110 -1 110 -1 80 10 c 1,22,-1
 85 30 l 1,23,24
 108 26 108 26 142.5 23 c 128,-1,25
 177 20 177 20 215 20 c 0,26,27
 260 20 260 20 293 38 c 128,-1,28
 326 56 326 56 347.5 89.5 c 128,-1,29
 369 123 369 123 379.5 170 c 128,-1,30
 390 217 390 217 390 275 c 1,31,32
 364 256 364 256 328.5 243 c 128,-1,33
 293 230 293 230 240 230 c 256,34,35
 187 230 187 230 149.5 246 c 128,-1,36
 112 262 112 262 87.5 291.5 c 128,-1,37
 63 321 63 321 51.5 362.5 c 128,-1,38
 40 404 40 404 40 455 c 0,39,40
 40 498 40 498 53 538.5 c 128,-1,41
 66 579 66 579 93 610.5 c 128,-1,42
 120 642 120 642 160.5 661 c 128,-1,43
 201 680 201 680 255 680 c 0,44,45
 375 680 375 680 430 591 c 128,-1,46
 485 502 485 502 485 330 c 0,16,17
EndSplineSet
EndChar

StartChar: colon
Encoding: 58 58 45
Width: 241
Flags: W
LayerCount: 2
Fore
SplineSet
121 461 m 0,0,1
 144 461 144 461 159.5 445 c 128,-1,2
 175 429 175 429 175 407 c 0,3,4
 175 384 175 384 159.5 368.5 c 128,-1,5
 144 353 144 353 121 353 c 0,6,7
 99 353 99 353 83 368.5 c 128,-1,8
 67 384 67 384 67 407 c 0,9,10
 67 429 67 429 83 445 c 128,-1,11
 99 461 99 461 121 461 c 0,0,1
120 95 m 0,12,13
 143 95 143 95 159 79 c 128,-1,14
 175 63 175 63 175 41 c 0,15,16
 175 18 175 18 159 2 c 128,-1,17
 143 -14 143 -14 120 -14 c 0,18,19
 98 -14 98 -14 82 2 c 128,-1,20
 66 18 66 18 66 41 c 0,21,22
 66 63 66 63 82 79 c 128,-1,23
 98 95 98 95 120 95 c 0,12,13
EndSplineSet
EndChar

StartChar: semicolon
Encoding: 59 59 46
Width: 258
Flags: W
LayerCount: 2
Fore
SplineSet
131 461 m 0,0,1
 153 461 153 461 169 445.5 c 128,-1,2
 185 430 185 430 185 408 c 0,3,4
 185 385 185 385 169 369.5 c 128,-1,5
 153 354 153 354 131 354 c 0,6,7
 108 354 108 354 92 369.5 c 128,-1,8
 76 385 76 385 76 408 c 0,9,10
 76 430 76 430 92 445.5 c 128,-1,11
 108 461 108 461 131 461 c 0,0,1
70 -140 m 1,12,13
 108 -110 108 -110 129.5 -79.5 c 128,-1,14
 151 -49 151 -49 151 0 c 1,15,16
 147 -4 147 -4 139 -9.5 c 128,-1,17
 131 -15 131 -15 116 -15 c 0,18,19
 93 -15 93 -15 79.5 1 c 128,-1,20
 66 17 66 17 66 40 c 0,21,22
 66 62 66 62 83.5 81 c 128,-1,23
 101 100 101 100 131 100 c 0,24,25
 157 100 157 100 174 79 c 128,-1,26
 191 58 191 58 191 20 c 0,27,28
 191 -33 191 -33 166 -73 c 128,-1,29
 141 -113 141 -113 81 -154 c 1,30,-1
 70 -140 l 1,12,13
EndSplineSet
EndChar

StartChar: less
Encoding: 60 60 47
Width: 618
Flags: W
LayerCount: 2
Fore
SplineSet
133 335 m 1,0,-1
 550 155 l 1,1,-1
 550 95 l 1,2,-1
 30 320 l 1,3,-1
 30 350 l 1,4,-1
 550 575 l 1,5,-1
 550 515 l 1,6,-1
 133 335 l 1,0,-1
EndSplineSet
EndChar

StartChar: equal
Encoding: 61 61 48
Width: 657
Flags: W
LayerCount: 2
Fore
SplineSet
66 450 m 1,0,-1
 591 450 l 1,1,-1
 591 390 l 1,2,-1
 66 390 l 1,3,-1
 66 450 l 1,0,-1
66 270 m 1,4,-1
 591 270 l 1,5,-1
 591 210 l 1,6,-1
 66 210 l 1,7,-1
 66 270 l 1,4,-1
EndSplineSet
EndChar

StartChar: greater
Encoding: 62 62 49
Width: 618
Flags: W
LayerCount: 2
Fore
SplineSet
68 515 m 1,0,-1
 68 575 l 1,1,-1
 588 350 l 1,2,-1
 588 320 l 1,3,-1
 68 95 l 1,4,-1
 68 155 l 1,5,-1
 485 335 l 1,6,-1
 68 515 l 1,0,-1
EndSplineSet
EndChar

StartChar: question
Encoding: 63 63 50
Width: 478
Flags: W
LayerCount: 2
Fore
SplineSet
226 96 m 256,0,1
 249 96 249 96 265 80 c 128,-1,2
 281 64 281 64 281 41 c 0,3,4
 281 19 281 19 264.5 3 c 128,-1,5
 248 -13 248 -13 226 -13 c 0,6,7
 203 -13 203 -13 187.5 3 c 128,-1,8
 172 19 172 19 172 41 c 0,9,10
 172 64 172 64 187.5 80 c 128,-1,11
 203 96 203 96 226 96 c 256,0,1
206 156 m 1,12,13
 207 197 207 197 218 227.5 c 128,-1,14
 229 258 229 258 244.5 282.5 c 128,-1,15
 260 307 260 307 278 328.5 c 128,-1,16
 296 350 296 350 311 373.5 c 128,-1,17
 326 397 326 397 336 424.5 c 128,-1,18
 346 452 346 452 346 490 c 0,19,20
 346 527 346 527 335.5 555.5 c 128,-1,21
 325 584 325 584 307 602.5 c 128,-1,22
 289 621 289 621 265.5 630.5 c 128,-1,23
 242 640 242 640 216 640 c 0,24,25
 156 640 156 640 110.5 596.5 c 128,-1,26
 65 553 65 553 50 470 c 1,27,-1
 30 470 l 1,28,29
 30 508 30 508 33 542.5 c 128,-1,30
 36 577 36 577 55 600 c 0,31,32
 82 633 82 633 134 656.5 c 128,-1,33
 186 680 186 680 246 680 c 0,34,35
 276 680 276 680 311 673 c 128,-1,36
 346 666 346 666 376 645 c 128,-1,37
 406 624 406 624 426 587 c 128,-1,38
 446 550 446 550 446 490 c 0,39,40
 446 448 446 448 431.5 416 c 128,-1,41
 417 384 417 384 395 358 c 128,-1,42
 373 332 373 332 347.5 309.5 c 128,-1,43
 322 287 322 287 300 264 c 128,-1,44
 278 241 278 241 262.5 215 c 128,-1,45
 247 189 247 189 246 156 c 1,46,-1
 206 156 l 1,12,13
EndSplineSet
EndChar

StartChar: at
Encoding: 64 64 51
Width: 856
Flags: W
LayerCount: 2
Fore
SplineSet
515 245 m 1,0,-1
 485 245 l 2,1,2
 410 245 410 245 367.5 217.5 c 128,-1,3
 325 190 325 190 325 145 c 0,4,5
 325 121 325 121 333 103 c 128,-1,6
 341 85 341 85 354 73 c 128,-1,7
 367 61 367 61 384 55.5 c 128,-1,8
 401 50 401 50 420 50 c 0,9,10
 457 50 457 50 478.5 68.5 c 128,-1,11
 500 87 500 87 515 110 c 1,12,-1
 515 245 l 1,0,-1
430 -180 m 0,13,14
 344 -180 344 -180 272 -152 c 128,-1,15
 200 -124 200 -124 148.5 -70 c 128,-1,16
 97 -16 97 -16 68.5 64.5 c 128,-1,17
 40 145 40 145 40 250 c 256,18,19
 40 355 40 355 68.5 435.5 c 128,-1,20
 97 516 97 516 148.5 570 c 128,-1,21
 200 624 200 624 272 652 c 128,-1,22
 344 680 344 680 430 680 c 256,23,24
 516 680 516 680 588 652.5 c 128,-1,25
 660 625 660 625 711.5 572.5 c 128,-1,26
 763 520 763 520 791.5 443.5 c 128,-1,27
 820 367 820 367 820 270 c 0,28,29
 820 210 820 210 808.5 161 c 128,-1,30
 797 112 797 112 773 77.5 c 128,-1,31
 749 43 749 43 712.5 24 c 128,-1,32
 676 5 676 5 625 5 c 0,33,34
 583 5 583 5 557 19.5 c 128,-1,35
 531 34 531 34 520 60 c 1,36,-1
 515 60 l 1,37,38
 500 41 500 41 466 23 c 128,-1,39
 432 5 432 5 375 5 c 0,40,41
 354 5 354 5 329 11.5 c 128,-1,42
 304 18 304 18 282 34 c 128,-1,43
 260 50 260 50 245 77 c 128,-1,44
 230 104 230 104 230 145 c 256,45,46
 230 186 230 186 251 213 c 128,-1,47
 272 240 272 240 307 256 c 128,-1,48
 342 272 342 272 388 278.5 c 128,-1,49
 434 285 434 285 485 285 c 2,50,-1
 515 285 l 1,51,52
 515 337 515 337 507 370.5 c 128,-1,53
 499 404 499 404 485 422.5 c 128,-1,54
 471 441 471 441 451.5 448 c 128,-1,55
 432 455 432 455 410 455 c 0,56,57
 368 455 368 455 339.5 437 c 128,-1,58
 311 419 311 419 300 370 c 1,59,-1
 255 370 l 1,60,61
 255 396 255 396 258 418.5 c 128,-1,62
 261 441 261 441 280 460 c 0,63,64
 289 469 289 469 305.5 476 c 128,-1,65
 322 483 322 483 342 487 c 128,-1,66
 362 491 362 491 384.5 493 c 128,-1,67
 407 495 407 495 430 495 c 0,68,69
 464 495 464 495 495.5 487.5 c 128,-1,70
 527 480 527 480 551.5 457.5 c 128,-1,71
 576 435 576 435 590.5 393.5 c 128,-1,72
 605 352 605 352 605 285 c 2,73,-1
 605 105 l 2,74,75
 605 82 605 82 617 63.5 c 128,-1,76
 629 45 629 45 655 45 c 0,77,78
 679 45 679 45 702 60.5 c 128,-1,79
 725 76 725 76 742 105 c 128,-1,80
 759 134 759 134 769.5 175.5 c 128,-1,81
 780 217 780 217 780 270 c 0,82,83
 780 360 780 360 755 429 c 128,-1,84
 730 498 730 498 684 545 c 128,-1,85
 638 592 638 592 573.5 616 c 128,-1,86
 509 640 509 640 430 640 c 256,87,88
 351 640 351 640 286.5 615.5 c 128,-1,89
 222 591 222 591 176 542.5 c 128,-1,90
 130 494 130 494 105 420.5 c 128,-1,91
 80 347 80 347 80 250 c 0,92,93
 80 152 80 152 105 79 c 128,-1,94
 130 6 130 6 176 -42.5 c 128,-1,95
 222 -91 222 -91 286.5 -115.5 c 128,-1,96
 351 -140 351 -140 430 -140 c 0,97,98
 528 -140 528 -140 604 -118.5 c 128,-1,99
 680 -97 680 -97 740 -55 c 1,100,-1
 760 -85 l 1,101,102
 700 -127 700 -127 619.5 -153.5 c 128,-1,103
 539 -180 539 -180 430 -180 c 0,13,14
EndSplineSet
EndChar

StartChar: A
Encoding: 65 65 52
Width: 635
Flags: W
LayerCount: 2
Fore
SplineSet
662 0 m 1,0,1
 645 -5 645 -5 622 -5 c 0,2,3
 605 -5 605 -5 582.5 -1 c 128,-1,4
 560 3 560 3 536.5 16.5 c 128,-1,5
 513 30 513 30 490.5 56 c 128,-1,6
 468 82 468 82 452 125 c 2,7,-1
 427 190 l 1,8,-1
 147 190 l 1,9,-1
 67 0 l 1,10,-1
 22 0 l 1,11,-1
 302 660 l 1,12,-1
 332 660 l 1,13,-1
 552 125 l 2,14,15
 564 97 564 97 574.5 77.5 c 128,-1,16
 585 58 585 58 598 46 c 128,-1,17
 611 34 611 34 626 28 c 128,-1,18
 641 22 641 22 662 20 c 1,19,-1
 662 0 l 1,0,1
162 230 m 1,20,-1
 407 230 l 1,21,-1
 287 520 l 1,22,-1
 162 230 l 1,20,-1
EndSplineSet
EndChar

StartChar: B
Encoding: 66 66 53
Width: 622
Flags: W
LayerCount: 2
Fore
SplineSet
196 315 m 1,0,-1
 196 49 l 1,1,2
 219 42 219 42 243.5 38.5 c 128,-1,3
 268 35 268 35 291 35 c 0,4,5
 382 35 382 35 431.5 71 c 128,-1,6
 481 107 481 107 481 175 c 256,7,8
 481 243 481 243 433 279 c 128,-1,9
 385 315 385 315 291 315 c 2,10,-1
 196 315 l 1,0,-1
291 355 m 2,11,12
 321 355 321 355 349.5 363.5 c 128,-1,13
 378 372 378 372 400.5 389 c 128,-1,14
 423 406 423 406 437 431 c 128,-1,15
 451 456 451 456 451 490 c 0,16,17
 451 526 451 526 434 551.5 c 128,-1,18
 417 577 417 577 391 593.5 c 128,-1,19
 365 610 365 610 333 617.5 c 128,-1,20
 301 625 301 625 271 625 c 0,21,22
 252 625 252 625 231.5 622 c 128,-1,23
 211 619 211 619 196 615 c 1,24,-1
 196 355 l 1,25,-1
 291 355 l 2,11,12
276 660 m 2,26,27
 315 660 315 660 362.5 654.5 c 128,-1,28
 410 649 410 649 450.5 630.5 c 128,-1,29
 491 612 491 612 518.5 577.5 c 128,-1,30
 546 543 546 543 546 485 c 0,31,32
 546 440 546 440 515 401.5 c 128,-1,33
 484 363 484 363 416 340 c 1,34,35
 465 332 465 332 496.5 317.5 c 128,-1,36
 528 303 528 303 547 282.5 c 128,-1,37
 566 262 566 262 573.5 236 c 128,-1,38
 581 210 581 210 581 180 c 0,39,40
 581 124 581 124 555.5 88.5 c 128,-1,41
 530 53 530 53 490.5 33.5 c 128,-1,42
 451 14 451 14 402 7 c 128,-1,43
 353 0 353 0 306 0 c 2,44,-1
 106 0 l 1,45,-1
 106 540 l 2,46,47
 106 585 106 585 93.5 612.5 c 128,-1,48
 81 640 81 640 36 640 c 2,49,-1
 16 640 l 1,50,-1
 16 660 l 1,51,-1
 276 660 l 2,26,27
EndSplineSet
EndChar

StartChar: C
Encoding: 67 67 54
Width: 665
Flags: W
LayerCount: 2
Fore
SplineSet
589 450 m 1,0,1
 570 548 570 548 518.5 594 c 128,-1,2
 467 640 467 640 384 640 c 0,3,4
 335 640 335 640 291.5 623.5 c 128,-1,5
 248 607 248 607 215 569.5 c 128,-1,6
 182 532 182 532 163 471 c 128,-1,7
 144 410 144 410 144 320 c 0,8,9
 144 264 144 264 157.5 210 c 128,-1,10
 171 156 171 156 200 114 c 128,-1,11
 229 72 229 72 274.5 46 c 128,-1,12
 320 20 320 20 384 20 c 0,13,14
 459 20 459 20 513 56 c 128,-1,15
 567 92 567 92 609 160 c 1,16,-1
 629 145 l 1,17,18
 605 98 605 98 575.5 66.5 c 128,-1,19
 546 35 546 35 512 15.5 c 128,-1,20
 478 -4 478 -4 438.5 -12 c 128,-1,21
 399 -20 399 -20 354 -20 c 0,22,23
 283 -20 283 -20 225.5 6.5 c 128,-1,24
 168 33 168 33 127.5 79 c 128,-1,25
 87 125 87 125 65.5 187 c 128,-1,26
 44 249 44 249 44 320 c 0,27,28
 44 395 44 395 68.5 460.5 c 128,-1,29
 93 526 93 526 135 575 c 128,-1,30
 177 624 177 624 233.5 652 c 128,-1,31
 290 680 290 680 354 680 c 0,32,33
 437 680 437 680 497 656.5 c 128,-1,34
 557 633 557 633 584 600 c 0,35,36
 603 577 603 577 606 536 c 128,-1,37
 609 495 609 495 609 450 c 1,38,-1
 589 450 l 1,0,1
EndSplineSet
EndChar

StartChar: D
Encoding: 68 68 55
Width: 715
Flags: W
LayerCount: 2
Fore
SplineSet
199 48 m 1,0,1
 258 35 258 35 301 35 c 0,2,3
 356 35 356 35 404 55.5 c 128,-1,4
 452 76 452 76 487 114.5 c 128,-1,5
 522 153 522 153 542 207.5 c 128,-1,6
 562 262 562 262 562 330 c 0,7,8
 562 396 562 396 542.5 450.5 c 128,-1,9
 523 505 523 505 488 544 c 128,-1,10
 453 583 453 583 404.5 604 c 128,-1,11
 356 625 356 625 299 625 c 0,12,13
 277 625 277 625 251.5 621 c 128,-1,14
 226 617 226 617 199 609 c 1,15,-1
 199 48 l 1,0,1
278 660 m 2,16,17
 377 660 377 660 451 637 c 128,-1,18
 525 614 525 614 573.5 572 c 128,-1,19
 622 530 622 530 646.5 469.5 c 128,-1,20
 671 409 671 409 671 334 c 0,21,22
 671 261 671 261 647.5 199.5 c 128,-1,23
 624 138 624 138 578 94 c 128,-1,24
 532 50 532 50 463.5 25 c 128,-1,25
 395 0 395 0 304 0 c 2,26,-1
 106 0 l 1,27,-1
 106 540 l 2,28,29
 106 585 106 585 93.5 612.5 c 128,-1,30
 81 640 81 640 36 640 c 2,31,-1
 16 640 l 1,32,-1
 16 660 l 1,33,-1
 278 660 l 2,16,17
EndSplineSet
EndChar

StartChar: E
Encoding: 69 69 56
Width: 590
Flags: W
LayerCount: 2
Fore
SplineSet
442 660 m 2,0,1
 468 660 468 660 484.5 653 c 128,-1,2
 501 646 501 646 510.5 635 c 128,-1,3
 520 624 520 624 523.5 609.5 c 128,-1,4
 527 595 527 595 527 580 c 2,5,-1
 527 505 l 1,6,-1
 507 505 l 1,7,8
 507 565 507 565 474.5 592.5 c 128,-1,9
 442 620 442 620 382 620 c 2,10,-1
 196 620 l 1,11,-1
 196 360 l 1,12,-1
 466 360 l 1,13,-1
 466 320 l 1,14,-1
 196 320 l 1,15,-1
 196 40 l 1,16,-1
 371 40 l 2,17,18
 439 40 439 40 478.5 65 c 128,-1,19
 518 90 518 90 541 150 c 1,20,-1
 561 145 l 1,21,-1
 526 50 l 2,22,23
 518 27 518 27 499.5 13.5 c 128,-1,24
 481 0 481 0 451 0 c 2,25,-1
 106 0 l 1,26,-1
 106 540 l 2,27,28
 106 585 106 585 93.5 612.5 c 128,-1,29
 81 640 81 640 36 640 c 2,30,-1
 16 640 l 1,31,-1
 16 660 l 1,32,-1
 442 660 l 2,0,1
EndSplineSet
EndChar

StartChar: F
Encoding: 70 70 57
Width: 527
Flags: W
LayerCount: 2
Fore
SplineSet
415 660 m 2,0,1
 441 660 441 660 457.5 653 c 128,-1,2
 474 646 474 646 483.5 635 c 128,-1,3
 493 624 493 624 496.5 609.5 c 128,-1,4
 500 595 500 595 500 580 c 2,5,-1
 500 505 l 1,6,-1
 480 505 l 1,7,8
 480 565 480 565 447.5 592.5 c 128,-1,9
 415 620 415 620 355 620 c 2,10,-1
 196 620 l 1,11,-1
 196 355 l 1,12,-1
 422 355 l 1,13,-1
 422 315 l 1,14,-1
 196 315 l 1,15,-1
 196 0 l 1,16,-1
 106 0 l 1,17,-1
 106 540 l 2,18,19
 106 585 106 585 93.5 612.5 c 128,-1,20
 81 640 81 640 36 640 c 2,21,-1
 16 640 l 1,22,-1
 16 660 l 1,23,-1
 415 660 l 2,0,1
EndSplineSet
EndChar

StartChar: G
Encoding: 71 71 58
Width: 720
Flags: W
LayerCount: 2
Fore
SplineSet
384 640 m 0,0,1
 320 640 320 640 274.5 614 c 128,-1,2
 229 588 229 588 200 546 c 128,-1,3
 171 504 171 504 157.5 450 c 128,-1,4
 144 396 144 396 144 340 c 0,5,6
 144 250 144 250 163 188.5 c 128,-1,7
 182 127 182 127 215 89.5 c 128,-1,8
 248 52 248 52 291.5 36 c 128,-1,9
 335 20 335 20 384 20 c 0,10,11
 438 20 438 20 474 29.5 c 128,-1,12
 510 39 510 39 539 55 c 1,13,-1
 539 229 l 2,14,15
 539 250 539 250 543.5 270.5 c 128,-1,16
 548 291 548 291 565 308 c 128,-1,17
 582 325 582 325 615 335.5 c 128,-1,18
 648 346 648 346 704 346 c 1,19,-1
 704 326 l 1,20,21
 680 326 680 326 665 319.5 c 128,-1,22
 650 313 650 313 642 300.5 c 128,-1,23
 634 288 634 288 631.5 270.5 c 128,-1,24
 629 253 629 253 629 231 c 2,25,-1
 629 43 l 1,26,27
 575 10 575 10 516 -5 c 128,-1,28
 457 -20 457 -20 384 -20 c 0,29,30
 309 -20 309 -20 246.5 8 c 128,-1,31
 184 36 184 36 139 85 c 128,-1,32
 94 134 94 134 69 199.5 c 128,-1,33
 44 265 44 265 44 340 c 0,34,35
 44 411 44 411 65.5 473 c 128,-1,36
 87 535 87 535 127.5 581 c 128,-1,37
 168 627 168 627 225.5 653.5 c 128,-1,38
 283 680 283 680 354 680 c 0,39,40
 445 680 445 680 506 656.5 c 128,-1,41
 567 633 567 633 594 600 c 0,42,43
 603 589 603 589 608.5 572.5 c 128,-1,44
 614 556 614 556 616 538 c 128,-1,45
 618 520 618 520 618.5 501 c 128,-1,46
 619 482 619 482 619 465 c 1,47,-1
 599 465 l 1,48,49
 580 552 580 552 527.5 596 c 128,-1,50
 475 640 475 640 384 640 c 0,0,1
EndSplineSet
EndChar

StartChar: H
Encoding: 72 72 59
Width: 693
Flags: W
LayerCount: 2
Fore
SplineSet
586 120 m 2,0,1
 586 75 586 75 598.5 47.5 c 128,-1,2
 611 20 611 20 656 20 c 2,3,-1
 676 20 l 1,4,-1
 676 0 l 1,5,-1
 586 0 l 2,6,7
 560 0 560 0 542.5 4.5 c 128,-1,8
 525 9 525 9 514.5 22.5 c 128,-1,9
 504 36 504 36 500 59 c 128,-1,10
 496 82 496 82 496 120 c 2,11,-1
 496 320 l 1,12,-1
 196 320 l 1,13,-1
 196 0 l 1,14,-1
 106 0 l 1,15,-1
 106 540 l 2,16,17
 106 585 106 585 93.5 612.5 c 128,-1,18
 81 640 81 640 36 640 c 2,19,-1
 16 640 l 1,20,-1
 16 660 l 1,21,-1
 106 660 l 2,22,23
 132 660 132 660 149.5 655.5 c 128,-1,24
 167 651 167 651 177.5 637.5 c 128,-1,25
 188 624 188 624 192 600.5 c 128,-1,26
 196 577 196 577 196 540 c 2,27,-1
 196 360 l 1,28,-1
 496 360 l 1,29,-1
 496 660 l 1,30,-1
 586 660 l 1,31,-1
 586 120 l 2,0,1
EndSplineSet
EndChar

StartChar: I
Encoding: 73 73 60
Width: 285
Flags: W
LayerCount: 2
Fore
SplineSet
89 660 m 1,0,-1
 179 660 l 1,1,-1
 179 120 l 2,2,3
 179 75 179 75 191.5 47.5 c 128,-1,4
 204 20 204 20 249 20 c 2,5,-1
 269 20 l 1,6,-1
 269 0 l 1,7,-1
 179 0 l 2,8,9
 153 0 153 0 135.5 4.5 c 128,-1,10
 118 9 118 9 107.5 22.5 c 128,-1,11
 97 36 97 36 93 59 c 128,-1,12
 89 82 89 82 89 120 c 2,13,-1
 89 660 l 1,0,-1
EndSplineSet
EndChar

StartChar: J
Encoding: 74 74 61
Width: 261
Flags: W
LayerCount: 2
Fore
SplineSet
-9 -117 m 1,0,1
 40 -117 40 -117 63 -65 c 128,-1,2
 86 -13 86 -13 86 78 c 2,3,-1
 86 660 l 1,4,-1
 176 660 l 1,5,-1
 176 78 l 2,6,7
 176 22 176 22 167.5 -19 c 128,-1,8
 159 -60 159 -60 138 -86 c 128,-1,9
 117 -112 117 -112 81 -124.5 c 128,-1,10
 45 -137 45 -137 -9 -137 c 1,11,-1
 -9 -117 l 1,0,1
EndSplineSet
EndChar

StartChar: K
Encoding: 75 75 62
Width: 677
Flags: W
LayerCount: 2
Fore
SplineSet
106 660 m 2,0,1
 132 660 132 660 149.5 655.5 c 128,-1,2
 167 651 167 651 177.5 637.5 c 128,-1,3
 188 624 188 624 192 600.5 c 128,-1,4
 196 577 196 577 196 540 c 2,5,-1
 196 345 l 1,6,-1
 406 555 l 2,7,8
 425 574 425 574 442.5 592.5 c 128,-1,9
 460 611 460 611 479.5 626 c 128,-1,10
 499 641 499 641 522.5 650.5 c 128,-1,11
 546 660 546 660 576 660 c 2,12,-1
 626 660 l 1,13,-1
 626 635 l 1,14,15
 585 635 585 635 553.5 620.5 c 128,-1,16
 522 606 522 606 481 565 c 2,17,-1
 286 370 l 1,18,-1
 516 130 l 2,19,20
 557 87 557 87 602.5 55.5 c 128,-1,21
 648 24 648 24 686 19 c 1,22,-1
 686 0 l 1,23,24
 675 -4 675 -4 659.5 -7 c 128,-1,25
 644 -10 644 -10 621 -10 c 0,26,27
 600 -10 600 -10 577.5 -5.5 c 128,-1,28
 555 -1 555 -1 528.5 12.5 c 128,-1,29
 502 26 502 26 472 49 c 128,-1,30
 442 72 442 72 406 110 c 2,31,-1
 196 330 l 1,32,-1
 196 0 l 1,33,-1
 106 0 l 1,34,-1
 106 540 l 2,35,36
 106 585 106 585 93.5 612.5 c 128,-1,37
 81 640 81 640 36 640 c 2,38,-1
 16 640 l 1,39,-1
 16 660 l 1,40,-1
 106 660 l 2,0,1
EndSplineSet
EndChar

StartChar: L
Encoding: 76 76 63
Width: 558
Flags: W
LayerCount: 2
Fore
SplineSet
196 40 m 1,0,-1
 551 40 l 1,1,-1
 551 0 l 1,2,-1
 106 0 l 1,3,-1
 106 540 l 2,4,5
 106 585 106 585 93.5 612.5 c 128,-1,6
 81 640 81 640 36 640 c 2,7,-1
 16 640 l 1,8,-1
 16 660 l 1,9,-1
 106 660 l 2,10,11
 132 660 132 660 149.5 655.5 c 128,-1,12
 167 651 167 651 177.5 637.5 c 128,-1,13
 188 624 188 624 192 600.5 c 128,-1,14
 196 577 196 577 196 540 c 2,15,-1
 196 40 l 1,0,-1
EndSplineSet
EndChar

StartChar: M
Encoding: 77 77 64
Width: 855
Flags: W
LayerCount: 2
Fore
SplineSet
841 -45 m 1,0,1
 787 -45 787 -45 751 -32.5 c 128,-1,2
 715 -20 715 -20 694 6 c 128,-1,3
 673 32 673 32 664.5 73 c 128,-1,4
 656 114 656 114 656 170 c 2,5,-1
 656 555 l 1,6,-1
 406 0 l 1,7,-1
 386 0 l 1,8,-1
 126 565 l 1,9,-1
 126 0 l 1,10,-1
 86 0 l 1,11,-1
 86 660 l 1,12,-1
 181 660 l 1,13,-1
 421 140 l 1,14,-1
 656 660 l 1,15,-1
 746 660 l 1,16,-1
 746 170 l 2,17,18
 746 79 746 79 769 27 c 128,-1,19
 792 -25 792 -25 841 -25 c 1,20,-1
 841 -45 l 1,0,1
EndSplineSet
EndChar

StartChar: N
Encoding: 78 78 65
Width: 685
Flags: W
LayerCount: 2
Fore
SplineSet
110 540 m 2,0,1
 110 585 110 585 91 612.5 c 128,-1,2
 72 640 72 640 20 640 c 2,3,-1
 10 640 l 1,4,-1
 10 660 l 1,5,-1
 75 660 l 2,6,7
 124 660 124 660 155.5 644 c 128,-1,8
 187 628 187 628 210 600 c 2,9,-1
 560 165 l 1,10,-1
 560 660 l 1,11,-1
 600 660 l 1,12,-1
 600 -10 l 1,13,-1
 580 -10 l 1,14,-1
 150 525 l 1,15,-1
 150 0 l 1,16,-1
 110 0 l 1,17,-1
 110 540 l 2,0,1
EndSplineSet
EndChar

StartChar: O
Encoding: 79 79 66
Width: 712
Flags: W
LayerCount: 2
Fore
SplineSet
566 330 m 256,0,1
 566 401 566 401 551.5 458.5 c 128,-1,2
 537 516 537 516 510 556.5 c 128,-1,3
 483 597 483 597 444 618.5 c 128,-1,4
 405 640 405 640 356 640 c 256,5,6
 307 640 307 640 268 618.5 c 128,-1,7
 229 597 229 597 202 556.5 c 128,-1,8
 175 516 175 516 160.5 458.5 c 128,-1,9
 146 401 146 401 146 330 c 256,10,11
 146 259 146 259 160.5 201.5 c 128,-1,12
 175 144 175 144 202 103.5 c 128,-1,13
 229 63 229 63 268 41.5 c 128,-1,14
 307 20 307 20 356 20 c 256,15,16
 405 20 405 20 444 41.5 c 128,-1,17
 483 63 483 63 510 103.5 c 128,-1,18
 537 144 537 144 551.5 201.5 c 128,-1,19
 566 259 566 259 566 330 c 256,0,1
46 330 m 0,20,21
 46 403 46 403 67.5 467 c 128,-1,22
 89 531 89 531 129.5 578.5 c 128,-1,23
 170 626 170 626 227.5 653 c 128,-1,24
 285 680 285 680 356 680 c 256,25,26
 427 680 427 680 484.5 653 c 128,-1,27
 542 626 542 626 582.5 578.5 c 128,-1,28
 623 531 623 531 644.5 467 c 128,-1,29
 666 403 666 403 666 330 c 0,30,31
 666 256 666 256 644.5 192.5 c 128,-1,32
 623 129 623 129 582.5 81.5 c 128,-1,33
 542 34 542 34 484.5 7 c 128,-1,34
 427 -20 427 -20 356 -20 c 256,35,36
 285 -20 285 -20 227.5 7 c 128,-1,37
 170 34 170 34 129.5 81.5 c 128,-1,38
 89 129 89 129 67.5 192.5 c 128,-1,39
 46 256 46 256 46 330 c 0,20,21
EndSplineSet
EndChar

StartChar: P
Encoding: 80 80 67
Width: 552
Flags: W
LayerCount: 2
Fore
SplineSet
271 305 m 0,0,1
 292 305 292 305 318.5 313 c 128,-1,2
 345 321 345 321 369 340 c 128,-1,3
 393 359 393 359 409.5 389.5 c 128,-1,4
 426 420 426 420 426 465 c 256,5,6
 426 510 426 510 409.5 540.5 c 128,-1,7
 393 571 393 571 369 590 c 128,-1,8
 345 609 345 609 318.5 617 c 128,-1,9
 292 625 292 625 271 625 c 0,10,11
 252 625 252 625 231.5 622 c 128,-1,12
 211 619 211 619 196 615 c 1,13,-1
 196 315 l 1,14,15
 211 311 211 311 231.5 308 c 128,-1,16
 252 305 252 305 271 305 c 0,0,1
196 0 m 1,17,-1
 106 0 l 1,18,-1
 106 540 l 2,19,20
 106 585 106 585 93.5 612.5 c 128,-1,21
 81 640 81 640 36 640 c 2,22,-1
 16 640 l 1,23,-1
 16 660 l 1,24,-1
 276 660 l 2,25,26
 308 660 308 660 351 654 c 128,-1,27
 394 648 394 648 433 627.5 c 128,-1,28
 472 607 472 607 499 567 c 128,-1,29
 526 527 526 527 526 460 c 0,30,31
 526 417 526 417 513.5 386.5 c 128,-1,32
 501 356 501 356 481 335 c 128,-1,33
 461 314 461 314 436.5 301 c 128,-1,34
 412 288 412 288 387.5 281.5 c 128,-1,35
 363 275 363 275 341.5 272.5 c 128,-1,36
 320 270 320 270 306 270 c 2,37,-1
 196 270 l 1,38,-1
 196 0 l 1,17,-1
EndSplineSet
EndChar

StartChar: Q
Encoding: 81 81 68
Width: 714
Flags: W
LayerCount: 2
Fore
SplineSet
47 330 m 0,0,1
 47 403 47 403 68.5 467 c 128,-1,2
 90 531 90 531 130.5 578.5 c 128,-1,3
 171 626 171 626 228.5 653 c 128,-1,4
 286 680 286 680 357 680 c 256,5,6
 428 680 428 680 485.5 653 c 128,-1,7
 543 626 543 626 583.5 578.5 c 128,-1,8
 624 531 624 531 645.5 467 c 128,-1,9
 667 403 667 403 667 330 c 0,10,11
 667 268 667 268 651.5 212.5 c 128,-1,12
 636 157 636 157 606.5 112.5 c 128,-1,13
 577 68 577 68 534.5 36.5 c 128,-1,14
 492 5 492 5 439 -9 c 1,15,16
 451 -47 451 -47 477.5 -79 c 128,-1,17
 504 -111 504 -111 537.5 -134.5 c 128,-1,18
 571 -158 571 -158 608 -171.5 c 128,-1,19
 645 -185 645 -185 677 -185 c 1,20,-1
 677 -205 l 1,21,22
 623 -205 623 -205 569 -195.5 c 128,-1,23
 515 -186 515 -186 463.5 -163.5 c 128,-1,24
 412 -141 412 -141 362.5 -102.5 c 128,-1,25
 313 -64 313 -64 267 -7 c 1,26,27
 216 8 216 8 175 39.5 c 128,-1,28
 134 71 134 71 105.5 115.5 c 128,-1,29
 77 160 77 160 62 214.5 c 128,-1,30
 47 269 47 269 47 330 c 0,0,1
567 330 m 256,31,32
 567 401 567 401 552.5 458.5 c 128,-1,33
 538 516 538 516 511 556.5 c 128,-1,34
 484 597 484 597 445 618.5 c 128,-1,35
 406 640 406 640 357 640 c 256,36,37
 308 640 308 640 269 618.5 c 128,-1,38
 230 597 230 597 203 556.5 c 128,-1,39
 176 516 176 516 161.5 458.5 c 128,-1,40
 147 401 147 401 147 330 c 256,41,42
 147 259 147 259 161.5 201.5 c 128,-1,43
 176 144 176 144 203 103.5 c 128,-1,44
 230 63 230 63 269 41.5 c 128,-1,45
 308 20 308 20 357 20 c 256,46,47
 406 20 406 20 445 41.5 c 128,-1,48
 484 63 484 63 511 103.5 c 128,-1,49
 538 144 538 144 552.5 201.5 c 128,-1,50
 567 259 567 259 567 330 c 256,31,32
EndSplineSet
EndChar

StartChar: R
Encoding: 82 82 69
Width: 595
Flags: W
LayerCount: 2
Fore
SplineSet
271 340 m 0,0,1
 292 340 292 340 318.5 348 c 128,-1,2
 345 356 345 356 369 372.5 c 128,-1,3
 393 389 393 389 409.5 415.5 c 128,-1,4
 426 442 426 442 426 480 c 0,5,6
 426 519 426 519 409.5 547 c 128,-1,7
 393 575 393 575 369 592 c 128,-1,8
 345 609 345 609 318.5 617 c 128,-1,9
 292 625 292 625 271 625 c 0,10,11
 252 625 252 625 231.5 622 c 128,-1,12
 211 619 211 619 196 615 c 1,13,-1
 196 350 l 1,14,15
 211 346 211 346 231.5 343 c 128,-1,16
 252 340 252 340 271 340 c 0,0,1
266 305 m 1,17,-1
 196 305 l 1,18,-1
 196 0 l 1,19,-1
 106 0 l 1,20,-1
 106 540 l 2,21,22
 106 585 106 585 93.5 612.5 c 128,-1,23
 81 640 81 640 36 640 c 2,24,-1
 16 640 l 1,25,-1
 16 660 l 1,26,-1
 276 660 l 2,27,28
 308 660 308 660 351 654.5 c 128,-1,29
 394 649 394 649 433 630 c 128,-1,30
 472 611 472 611 499 575.5 c 128,-1,31
 526 540 526 540 526 480 c 0,32,33
 526 437 526 437 511 407 c 128,-1,34
 496 377 496 377 472.5 357.5 c 128,-1,35
 449 338 449 338 420.5 327 c 128,-1,36
 392 316 392 316 366 310 c 1,37,-1
 471 135 l 2,38,39
 490 103 490 103 506.5 82 c 128,-1,40
 523 61 523 61 539 47.5 c 128,-1,41
 555 34 555 34 571 28 c 128,-1,42
 587 22 587 22 606 20 c 1,43,-1
 606 0 l 1,44,45
 598 -4 598 -4 581.5 -7 c 128,-1,46
 565 -10 565 -10 546 -10 c 0,47,48
 520 -10 520 -10 497.5 -3 c 128,-1,49
 475 4 475 4 454 21 c 128,-1,50
 433 38 433 38 411.5 66 c 128,-1,51
 390 94 390 94 366 135 c 2,52,-1
 266 305 l 1,17,-1
EndSplineSet
EndChar

StartChar: S
Encoding: 83 83 70
Width: 533
Flags: W
LayerCount: 2
Fore
SplineSet
490 168 m 0,0,1
 490 126 490 126 475.5 92 c 128,-1,2
 461 58 461 58 434 33.5 c 128,-1,3
 407 9 407 9 368.5 -4 c 128,-1,4
 330 -17 330 -17 282 -17 c 0,5,6
 241 -17 241 -17 200.5 -8.5 c 128,-1,7
 160 0 160 0 127.5 16 c 128,-1,8
 95 32 95 32 74.5 54.5 c 128,-1,9
 54 77 54 77 54 105 c 2,10,-1
 54 212 l 1,11,-1
 72 212 l 1,12,13
 89 111 89 111 138.5 67 c 128,-1,14
 188 23 188 23 273 23 c 0,15,16
 299 23 299 23 322.5 29.5 c 128,-1,17
 346 36 346 36 364 49 c 128,-1,18
 382 62 382 62 393 81 c 128,-1,19
 404 100 404 100 404 125 c 0,20,21
 404 169 404 169 376.5 200 c 128,-1,22
 349 231 349 231 294 263 c 2,23,-1
 171 336 l 2,24,25
 107 374 107 374 80.5 413 c 128,-1,26
 54 452 54 452 54 508 c 0,27,28
 54 547 54 547 68 578 c 128,-1,29
 82 609 82 609 107.5 631.5 c 128,-1,30
 133 654 133 654 168.5 666 c 128,-1,31
 204 678 204 678 248 678 c 0,32,33
 285 678 285 678 323.5 670 c 128,-1,34
 362 662 362 662 393 646.5 c 128,-1,35
 424 631 424 631 444 608.5 c 128,-1,36
 464 586 464 586 464 558 c 2,37,-1
 464 451 l 1,38,-1
 446 451 l 1,39,40
 429 552 429 552 381 595 c 128,-1,41
 333 638 333 638 248 638 c 0,42,43
 226 638 226 638 205 631 c 128,-1,44
 184 624 184 624 168 611 c 128,-1,45
 152 598 152 598 142 579 c 128,-1,46
 132 560 132 560 132 537 c 0,47,48
 132 515 132 515 139 498 c 128,-1,49
 146 481 146 481 160 466 c 128,-1,50
 174 451 174 451 195 436.5 c 128,-1,51
 216 422 216 422 243 406 c 2,52,-1
 366 333 l 2,53,54
 398 314 398 314 421.5 296.5 c 128,-1,55
 445 279 445 279 460 259.5 c 128,-1,56
 475 240 475 240 482.5 218 c 128,-1,57
 490 196 490 196 490 168 c 0,0,1
EndSplineSet
EndChar

StartChar: T
Encoding: 84 84 71
Width: 584
Flags: W
LayerCount: 2
Fore
SplineSet
572 660 m 1,0,-1
 572 620 l 1,1,-1
 347 620 l 1,2,-1
 347 0 l 1,3,-1
 257 0 l 1,4,-1
 257 620 l 1,5,-1
 167 620 l 2,6,7
 107 620 107 620 74.5 592.5 c 128,-1,8
 42 565 42 565 42 505 c 1,9,-1
 22 505 l 1,10,-1
 22 580 l 2,11,12
 22 595 22 595 25.5 609.5 c 128,-1,13
 29 624 29 624 38.5 635 c 128,-1,14
 48 646 48 646 64.5 653 c 128,-1,15
 81 660 81 660 107 660 c 2,16,-1
 572 660 l 1,0,-1
EndSplineSet
EndChar

StartChar: U
Encoding: 85 85 72
Width: 686
Flags: W
LayerCount: 2
Fore
SplineSet
98 540 m 2,0,1
 98 585 98 585 85.5 612.5 c 128,-1,2
 73 640 73 640 28 640 c 2,3,-1
 8 640 l 1,4,-1
 8 660 l 1,5,-1
 98 660 l 2,6,7
 124 660 124 660 141.5 655.5 c 128,-1,8
 159 651 159 651 169.5 637.5 c 128,-1,9
 180 624 180 624 184 600.5 c 128,-1,10
 188 577 188 577 188 540 c 2,11,-1
 188 255 l 2,12,13
 188 202 188 202 197 160.5 c 128,-1,14
 206 119 206 119 227 90 c 128,-1,15
 248 61 248 61 281.5 45.5 c 128,-1,16
 315 30 315 30 365 30 c 0,17,18
 422 30 422 30 461 45 c 128,-1,19
 500 60 500 60 524 91.5 c 128,-1,20
 548 123 548 123 558 171 c 128,-1,21
 568 219 568 219 568 285 c 2,22,-1
 568 660 l 1,23,-1
 608 660 l 1,24,-1
 608 285 l 2,25,26
 608 212 608 212 597 156.5 c 128,-1,27
 586 101 586 101 557.5 64 c 128,-1,28
 529 27 529 27 479.5 8.5 c 128,-1,29
 430 -10 430 -10 353 -10 c 0,30,31
 280 -10 280 -10 231 8.5 c 128,-1,32
 182 27 182 27 152.5 64 c 128,-1,33
 123 101 123 101 110.5 156.5 c 128,-1,34
 98 212 98 212 98 285 c 2,35,-1
 98 540 l 2,0,1
EndSplineSet
EndChar

StartChar: V
Encoding: 86 86 73
Width: 640
Flags: W
LayerCount: 2
Fore
SplineSet
350 140 m 1,0,1
 375 198 375 198 391.5 235 c 128,-1,2
 408 272 408 272 418.5 297 c 128,-1,3
 429 322 429 322 436 339 c 128,-1,4
 443 356 443 356 450 372.5 c 128,-1,5
 457 389 457 389 465 409 c 128,-1,6
 473 429 473 429 486.5 461 c 128,-1,7
 500 493 500 493 520 540.5 c 128,-1,8
 540 588 540 588 570 660 c 1,9,-1
 618 660 l 1,10,-1
 331 -10 l 1,11,-1
 313 -10 l 1,12,-1
 81 543 l 2,13,14
 69 571 69 571 58.5 590.5 c 128,-1,15
 48 610 48 610 35 622 c 128,-1,16
 22 634 22 634 7 640 c 128,-1,17
 -8 646 -8 646 -29 648 c 1,18,-1
 -29 668 l 1,19,20
 -25 668 -25 668 -13.5 669 c 128,-1,21
 -2 670 -2 670 5 670 c 0,22,23
 23 670 23 670 46 666 c 128,-1,24
 69 662 69 662 92.5 649 c 128,-1,25
 116 636 116 636 138.5 611 c 128,-1,26
 161 586 161 586 179 543 c 2,27,-1
 350 140 l 1,0,1
EndSplineSet
EndChar

StartChar: W
Encoding: 87 87 74
Width: 866
Flags: W
LayerCount: 2
Fore
SplineSet
78 543 m 2,0,1
 68 571 68 571 58 590.5 c 128,-1,2
 48 610 48 610 35.5 622 c 128,-1,3
 23 634 23 634 6.5 640 c 128,-1,4
 -10 646 -10 646 -32 648 c 1,5,-1
 -32 668 l 1,6,7
 -28 668 -28 668 -16.5 669 c 128,-1,8
 -5 670 -5 670 2 670 c 0,9,10
 23 670 23 670 46.5 666.5 c 128,-1,11
 70 663 70 663 93 650 c 128,-1,12
 116 637 116 637 137 611.5 c 128,-1,13
 158 586 158 586 173 543 c 2,14,-1
 307 157 l 1,15,-1
 414 474 l 1,16,-1
 390 543 l 2,17,18
 380 571 380 571 370 590.5 c 128,-1,19
 360 610 360 610 347.5 622 c 128,-1,20
 335 634 335 634 318.5 640 c 128,-1,21
 302 646 302 646 280 648 c 1,22,-1
 280 668 l 1,23,24
 284 668 284 668 295.5 669 c 128,-1,25
 307 670 307 670 314 670 c 0,26,27
 335 670 335 670 358.5 666.5 c 128,-1,28
 382 663 382 663 405 650 c 128,-1,29
 428 637 428 637 449 611.5 c 128,-1,30
 470 586 470 586 485 543 c 2,31,-1
 619 157 l 1,32,-1
 790 660 l 1,33,-1
 833 660 l 1,34,-1
 604 -10 l 1,35,-1
 584 -10 l 1,36,-1
 436 411 l 1,37,-1
 292 -10 l 1,38,-1
 272 -10 l 1,39,-1
 78 543 l 2,0,1
EndSplineSet
EndChar

StartChar: X
Encoding: 88 88 75
Width: 667
Flags: W
LayerCount: 2
Fore
SplineSet
91 0 m 1,0,-1
 41 0 l 1,1,-1
 291 325 l 1,2,-1
 151 530 l 2,3,4
 138 549 138 549 124 567.5 c 128,-1,5
 110 586 110 586 92 601.5 c 128,-1,6
 74 617 74 617 49.5 627.5 c 128,-1,7
 25 638 25 638 -9 640 c 1,8,-1
 -9 660 l 1,9,-1
 111 660 l 2,10,11
 135 660 135 660 155.5 650 c 128,-1,12
 176 640 176 640 193 624 c 128,-1,13
 210 608 210 608 224 588.5 c 128,-1,14
 238 569 238 569 251 550 c 2,15,-1
 351 400 l 1,16,-1
 551 660 l 1,17,-1
 601 660 l 1,18,-1
 376 365 l 1,19,-1
 536 130 l 2,20,21
 549 111 549 111 564 92.5 c 128,-1,22
 579 74 579 74 597 58.5 c 128,-1,23
 615 43 615 43 636 32.5 c 128,-1,24
 657 22 657 22 681 20 c 1,25,-1
 681 0 l 1,26,-1
 576 0 l 2,27,28
 552 0 552 0 531.5 10 c 128,-1,29
 511 20 511 20 494 36 c 128,-1,30
 477 52 477 52 462.5 71.5 c 128,-1,31
 448 91 448 91 436 110 c 2,32,-1
 316 290 l 1,33,-1
 91 0 l 1,0,-1
EndSplineSet
EndChar

StartChar: Y
Encoding: 89 89 76
Width: 628
Flags: W
LayerCount: 2
Fore
SplineSet
360 325 m 1,0,-1
 569 660 l 1,1,-1
 614 660 l 1,2,-1
 380 280 l 1,3,-1
 380 0 l 1,4,-1
 290 0 l 1,5,-1
 290 273 l 1,6,-1
 120 530 l 2,7,8
 105 552 105 552 90.5 571.5 c 128,-1,9
 76 591 76 591 59 605.5 c 128,-1,10
 42 620 42 620 21.5 629 c 128,-1,11
 1 638 1 638 -25 640 c 1,12,-1
 -25 660 l 1,13,-1
 65 660 l 2,14,15
 93 660 93 660 115 650.5 c 128,-1,16
 137 641 137 641 155 625.5 c 128,-1,17
 173 610 173 610 187.5 590.5 c 128,-1,18
 202 571 202 571 215 550 c 2,19,-1
 360 325 l 1,0,-1
EndSplineSet
EndChar

StartChar: Z
Encoding: 90 90 77
Width: 591
Flags: W
LayerCount: 2
Fore
SplineSet
574 660 m 1,0,-1
 149 40 l 1,1,-1
 559 40 l 1,2,-1
 559 0 l 1,3,-1
 24 0 l 1,4,-1
 24 20 l 1,5,-1
 439 620 l 1,6,-1
 199 620 l 2,7,8
 139 620 139 620 106.5 592.5 c 128,-1,9
 74 565 74 565 74 505 c 1,10,-1
 54 505 l 1,11,-1
 54 580 l 2,12,13
 54 595 54 595 57.5 609.5 c 128,-1,14
 61 624 61 624 70.5 635 c 128,-1,15
 80 646 80 646 96.5 653 c 128,-1,16
 113 660 113 660 139 660 c 2,17,-1
 574 660 l 1,0,-1
EndSplineSet
EndChar

StartChar: bracketleft
Encoding: 91 91 78
Width: 316
Flags: W
LayerCount: 2
Fore
SplineSet
290 -200 m 1,0,-1
 75 -200 l 1,1,-1
 75 680 l 1,2,-1
 290 680 l 1,3,-1
 290 640 l 1,4,-1
 155 640 l 1,5,-1
 155 -160 l 1,6,-1
 290 -160 l 1,7,-1
 290 -200 l 1,0,-1
EndSplineSet
EndChar

StartChar: backslash
Encoding: 92 92 79
Width: 440
Flags: W
LayerCount: 2
Fore
SplineSet
344 0 m 1,0,-1
 23 660 l 1,1,-1
 96 660 l 1,2,-1
 417 0 l 1,3,-1
 344 0 l 1,0,-1
EndSplineSet
EndChar

StartChar: bracketright
Encoding: 93 93 80
Width: 316
Flags: W
LayerCount: 2
Fore
SplineSet
26 -160 m 1,0,-1
 161 -160 l 1,1,-1
 161 640 l 1,2,-1
 26 640 l 1,3,-1
 26 680 l 1,4,-1
 241 680 l 1,5,-1
 241 -200 l 1,6,-1
 26 -200 l 1,7,-1
 26 -160 l 1,0,-1
EndSplineSet
EndChar

StartChar: asciicircum
Encoding: 94 94 81
Width: 490
Flags: W
LayerCount: 2
Fore
SplineSet
235 680 m 1,0,-1
 255 680 l 1,1,-1
 470 330 l 1,2,-1
 403 330 l 1,3,-1
 245 587 l 1,4,-1
 87 330 l 1,5,-1
 20 330 l 1,6,-1
 235 680 l 1,0,-1
EndSplineSet
EndChar

StartChar: underscore
Encoding: 95 95 82
Width: 432
Flags: W
LayerCount: 2
Fore
SplineSet
416 -60 m 1,0,-1
 16 -60 l 1,1,-1
 16 0 l 1,2,-1
 416 0 l 1,3,-1
 416 -60 l 1,0,-1
EndSplineSet
EndChar

StartChar: grave
Encoding: 96 96 83
Width: 200
Flags: W
LayerCount: 2
Fore
SplineSet
20 680 m 1,0,-1
 120 680 l 1,1,-1
 180 480 l 1,2,-1
 130 480 l 1,3,-1
 20 680 l 1,0,-1
EndSplineSet
EndChar

StartChar: a
Encoding: 97 97 84
Width: 482
Flags: W
LayerCount: 2
Fore
SplineSet
325 230 m 1,0,-1
 295 230 l 2,1,2
 220 230 220 230 177.5 202.5 c 128,-1,3
 135 175 135 175 135 130 c 0,4,5
 135 106 135 106 143 88 c 128,-1,6
 151 70 151 70 164 58 c 128,-1,7
 177 46 177 46 194 40.5 c 128,-1,8
 211 35 211 35 230 35 c 0,9,10
 267 35 267 35 288.5 53.5 c 128,-1,11
 310 72 310 72 325 95 c 1,12,-1
 325 230 l 1,0,-1
365 0 m 1,13,-1
 330 45 l 1,14,-1
 325 45 l 1,15,16
 310 26 310 26 276 8 c 128,-1,17
 242 -10 242 -10 185 -10 c 0,18,19
 164 -10 164 -10 139 -3.5 c 128,-1,20
 114 3 114 3 92 19 c 128,-1,21
 70 35 70 35 55 62 c 128,-1,22
 40 89 40 89 40 130 c 256,23,24
 40 171 40 171 61 198 c 128,-1,25
 82 225 82 225 117 241 c 128,-1,26
 152 257 152 257 198 263.5 c 128,-1,27
 244 270 244 270 295 270 c 2,28,-1
 325 270 l 1,29,30
 325 322 325 322 317 355.5 c 128,-1,31
 309 389 309 389 295 407.5 c 128,-1,32
 281 426 281 426 261.5 433 c 128,-1,33
 242 440 242 440 220 440 c 0,34,35
 178 440 178 440 149.5 422 c 128,-1,36
 121 404 121 404 110 355 c 1,37,-1
 65 355 l 1,38,39
 65 381 65 381 68 403.5 c 128,-1,40
 71 426 71 426 90 445 c 0,41,42
 99 454 99 454 115.5 461 c 128,-1,43
 132 468 132 468 152 472 c 128,-1,44
 172 476 172 476 194.5 478 c 128,-1,45
 217 480 217 480 240 480 c 0,46,47
 274 480 274 480 305.5 472.5 c 128,-1,48
 337 465 337 465 361.5 442.5 c 128,-1,49
 386 420 386 420 400.5 378.5 c 128,-1,50
 415 337 415 337 415 270 c 2,51,-1
 415 0 l 1,52,-1
 365 0 l 1,13,-1
EndSplineSet
EndChar

StartChar: b
Encoding: 98 98 85
Width: 523
Flags: W
LayerCount: 2
Fore
SplineSet
162 90 m 1,0,1
 177 67 177 67 201.5 48.5 c 128,-1,2
 226 30 226 30 267 30 c 0,3,4
 297 30 297 30 318.5 46 c 128,-1,5
 340 62 340 62 354.5 89.5 c 128,-1,6
 369 117 369 117 375.5 154.5 c 128,-1,7
 382 192 382 192 382 235 c 256,8,9
 382 278 382 278 375 315.5 c 128,-1,10
 368 353 368 353 353 380.5 c 128,-1,11
 338 408 338 408 314.5 424 c 128,-1,12
 291 440 291 440 257 440 c 0,13,14
 234 440 234 440 209.5 430.5 c 128,-1,15
 185 421 185 421 162 410 c 1,16,-1
 162 90 l 1,0,1
72 540 m 2,17,18
 72 585 72 585 59.5 612.5 c 128,-1,19
 47 640 47 640 2 640 c 2,20,-1
 -18 640 l 1,21,-1
 -18 660 l 1,22,-1
 72 660 l 2,23,24
 98 660 98 660 115.5 655.5 c 128,-1,25
 133 651 133 651 143.5 637.5 c 128,-1,26
 154 624 154 624 158 600.5 c 128,-1,27
 162 577 162 577 162 540 c 2,28,-1
 162 450 l 1,29,30
 185 461 185 461 215 470.5 c 128,-1,31
 245 480 245 480 287 480 c 0,32,33
 336 480 336 480 371.5 460.5 c 128,-1,34
 407 441 407 441 430.5 408 c 128,-1,35
 454 375 454 375 465.5 330.5 c 128,-1,36
 477 286 477 286 477 235 c 256,37,38
 477 184 477 184 465.5 139.5 c 128,-1,39
 454 95 454 95 431.5 62 c 128,-1,40
 409 29 409 29 375.5 9.5 c 128,-1,41
 342 -10 342 -10 297 -10 c 0,42,43
 241 -10 241 -10 209 8 c 128,-1,44
 177 26 177 26 162 45 c 1,45,-1
 157 45 l 1,46,-1
 122 0 l 1,47,-1
 72 0 l 1,48,-1
 72 540 l 2,17,18
EndSplineSet
EndChar

StartChar: c
Encoding: 99 99 86
Width: 483
Flags: W
LayerCount: 2
Fore
SplineSet
265 480 m 0,0,1
 318 480 318 480 354.5 472 c 128,-1,2
 391 464 391 464 410 445 c 0,3,4
 419 436 419 436 424.5 425 c 128,-1,5
 430 414 430 414 432 399 c 128,-1,6
 434 384 434 384 434.5 363.5 c 128,-1,7
 435 343 435 343 435 315 c 1,8,-1
 415 315 l 1,9,10
 411 379 411 379 374.5 409.5 c 128,-1,11
 338 440 338 440 285 440 c 0,12,13
 247 440 247 440 220 424 c 128,-1,14
 193 408 193 408 175 380.5 c 128,-1,15
 157 353 157 353 148.5 315.5 c 128,-1,16
 140 278 140 278 140 235 c 256,17,18
 140 192 140 192 148.5 154.5 c 128,-1,19
 157 117 157 117 175 89.5 c 128,-1,20
 193 62 193 62 220 46 c 128,-1,21
 247 30 247 30 285 30 c 0,22,23
 338 30 338 30 371 51 c 128,-1,24
 404 72 404 72 430 110 c 1,25,-1
 450 95 l 1,26,27
 416 38 416 38 370.5 14 c 128,-1,28
 325 -10 325 -10 265 -10 c 0,29,30
 209 -10 209 -10 167.5 9.5 c 128,-1,31
 126 29 126 29 99 62 c 128,-1,32
 72 95 72 95 58.5 139.5 c 128,-1,33
 45 184 45 184 45 235 c 256,34,35
 45 286 45 286 58.5 330.5 c 128,-1,36
 72 375 72 375 99 408 c 128,-1,37
 126 441 126 441 167.5 460.5 c 128,-1,38
 209 480 209 480 265 480 c 0,0,1
EndSplineSet
EndChar

StartChar: d
Encoding: 100 100 87
Width: 524
Flags: W
LayerCount: 2
Fore
SplineSet
362 410 m 1,0,1
 339 421 339 421 314.5 430.5 c 128,-1,2
 290 440 290 440 267 440 c 0,3,4
 233 440 233 440 209.5 424 c 128,-1,5
 186 408 186 408 171 380.5 c 128,-1,6
 156 353 156 353 149 315.5 c 128,-1,7
 142 278 142 278 142 235 c 256,8,9
 142 192 142 192 148.5 154.5 c 128,-1,10
 155 117 155 117 169.5 89.5 c 128,-1,11
 184 62 184 62 205.5 46 c 128,-1,12
 227 30 227 30 257 30 c 0,13,14
 279 30 279 30 295.5 35 c 128,-1,15
 312 40 312 40 324.5 48.5 c 128,-1,16
 337 57 337 57 345.5 68 c 128,-1,17
 354 79 354 79 362 90 c 1,18,-1
 362 410 l 1,0,1
452 0 m 1,19,-1
 402 0 l 1,20,-1
 367 45 l 1,21,-1
 362 45 l 1,22,23
 354 36 354 36 343.5 26 c 128,-1,24
 333 16 333 16 317 8 c 128,-1,25
 301 0 301 0 279 -5 c 128,-1,26
 257 -10 257 -10 227 -10 c 0,27,28
 182 -10 182 -10 148 9.5 c 128,-1,29
 114 29 114 29 91.5 62 c 128,-1,30
 69 95 69 95 58 139.5 c 128,-1,31
 47 184 47 184 47 235 c 256,32,33
 47 286 47 286 58.5 330.5 c 128,-1,34
 70 375 70 375 93.5 408 c 128,-1,35
 117 441 117 441 152.5 460.5 c 128,-1,36
 188 480 188 480 237 480 c 0,37,38
 279 480 279 480 309 470.5 c 128,-1,39
 339 461 339 461 362 450 c 1,40,-1
 362 540 l 2,41,42
 362 585 362 585 349.5 612.5 c 128,-1,43
 337 640 337 640 292 640 c 2,44,-1
 272 640 l 1,45,-1
 272 660 l 1,46,-1
 362 660 l 2,47,48
 388 660 388 660 405.5 655.5 c 128,-1,49
 423 651 423 651 433.5 637.5 c 128,-1,50
 444 624 444 624 448 600.5 c 128,-1,51
 452 577 452 577 452 540 c 2,52,-1
 452 0 l 1,19,-1
EndSplineSet
EndChar

StartChar: e
Encoding: 101 101 88
Width: 488
Flags: W
LayerCount: 2
Fore
SplineSet
443 220 m 1,0,-1
 140 220 l 1,1,2
 140 179 140 179 149 144 c 128,-1,3
 158 109 158 109 175.5 83.5 c 128,-1,4
 193 58 193 58 218 44 c 128,-1,5
 243 30 243 30 275 30 c 0,6,7
 324 30 324 30 356.5 51 c 128,-1,8
 389 72 389 72 415 110 c 1,9,-1
 435 95 l 1,10,11
 401 38 401 38 356.5 14 c 128,-1,12
 312 -10 312 -10 255 -10 c 0,13,14
 202 -10 202 -10 163 9.5 c 128,-1,15
 124 29 124 29 97.5 62 c 128,-1,16
 71 95 71 95 58 139.5 c 128,-1,17
 45 184 45 184 45 235 c 256,18,19
 45 286 45 286 58.5 330.5 c 128,-1,20
 72 375 72 375 98 408 c 128,-1,21
 124 441 124 441 161 460.5 c 128,-1,22
 198 480 198 480 245 480 c 0,23,24
 347 480 347 480 396 423 c 128,-1,25
 445 366 445 366 445 260 c 1,26,-1
 443 220 l 1,0,-1
350 260 m 1,27,28
 350 347 350 347 324 393.5 c 128,-1,29
 298 440 298 440 245 440 c 0,30,31
 222 440 222 440 203 426.5 c 128,-1,32
 184 413 184 413 170 389 c 128,-1,33
 156 365 156 365 148 332 c 128,-1,34
 140 299 140 299 140 260 c 1,35,-1
 350 260 l 1,27,28
EndSplineSet
EndChar

StartChar: f
Encoding: 102 102 89
Width: 337
Flags: W
LayerCount: 2
Fore
SplineSet
261 630 m 0,0,1
 244 630 244 630 229.5 623.5 c 128,-1,2
 215 617 215 617 204 602 c 128,-1,3
 193 587 193 587 187 562 c 128,-1,4
 181 537 181 537 181 500 c 2,5,-1
 181 470 l 1,6,-1
 321 470 l 1,7,-1
 321 430 l 1,8,-1
 181 430 l 1,9,-1
 181 0 l 1,10,-1
 91 0 l 1,11,-1
 91 430 l 1,12,-1
 21 430 l 1,13,-1
 21 470 l 1,14,-1
 91 470 l 1,15,-1
 91 500 l 2,16,17
 91 552 91 552 106.5 585.5 c 128,-1,18
 122 619 122 619 146.5 637.5 c 128,-1,19
 171 656 171 656 202.5 663 c 128,-1,20
 234 670 234 670 266 670 c 0,21,22
 328 670 328 670 351 655 c 0,23,24
 362 647 362 647 370 636 c 128,-1,25
 378 625 378 625 386 610 c 1,26,-1
 356 585 l 1,27,28
 326 630 326 630 261 630 c 0,0,1
EndSplineSet
EndChar

StartChar: g
Encoding: 103 103 90
Width: 492
Flags: W
LayerCount: 2
Fore
SplineSet
56 330 m 0,0,1
 56 373 56 373 71 402 c 128,-1,2
 86 431 86 431 111.5 448 c 128,-1,3
 137 465 137 465 172 472.5 c 128,-1,4
 207 480 207 480 246 480 c 2,5,-1
 431 480 l 1,6,-1
 431 455 l 1,7,-1
 366 445 l 1,8,-1
 366 440 l 1,9,10
 396 425 396 425 416 396.5 c 128,-1,11
 436 368 436 368 436 330 c 0,12,13
 436 287 436 287 421 258 c 128,-1,14
 406 229 406 229 380.5 212 c 128,-1,15
 355 195 355 195 320 187.5 c 128,-1,16
 285 180 285 180 246 180 c 0,17,18
 141 180 141 180 141 145 c 256,19,20
 141 110 141 110 246 110 c 0,21,22
 291 110 291 110 331 101 c 128,-1,23
 371 92 371 92 401 73.5 c 128,-1,24
 431 55 431 55 448.5 25.5 c 128,-1,25
 466 -4 466 -4 466 -45 c 0,26,27
 466 -88 466 -88 449 -117.5 c 128,-1,28
 432 -147 432 -147 402.5 -165.5 c 128,-1,29
 373 -184 373 -184 333 -192 c 128,-1,30
 293 -200 293 -200 246 -200 c 256,31,32
 199 -200 199 -200 159 -192 c 128,-1,33
 119 -184 119 -184 89.5 -165.5 c 128,-1,34
 60 -147 60 -147 43 -117.5 c 128,-1,35
 26 -88 26 -88 26 -45 c 0,36,37
 26 4 26 4 58.5 37 c 128,-1,38
 91 70 91 70 136 85 c 1,39,40
 121 93 121 93 108.5 107.5 c 128,-1,41
 96 122 96 122 96 145 c 256,42,43
 96 168 96 168 108 180 c 128,-1,44
 120 192 120 192 131 200 c 1,45,46
 101 215 101 215 78.5 248 c 128,-1,47
 56 281 56 281 56 330 c 0,0,1
201 75 m 1,48,49
 163 60 163 60 139.5 32 c 128,-1,50
 116 4 116 4 116 -45 c 0,51,52
 116 -105 116 -105 152.5 -132.5 c 128,-1,53
 189 -160 189 -160 246 -160 c 256,54,55
 303 -160 303 -160 339.5 -132.5 c 128,-1,56
 376 -105 376 -105 376 -45 c 0,57,58
 376 55 376 55 256 70 c 1,59,-1
 201 75 l 1,48,49
346 330 m 0,60,61
 346 390 346 390 317 417.5 c 128,-1,62
 288 445 288 445 246 445 c 0,63,64
 225 445 225 445 207 439 c 128,-1,65
 189 433 189 433 175.5 419.5 c 128,-1,66
 162 406 162 406 154 384 c 128,-1,67
 146 362 146 362 146 330 c 256,68,69
 146 298 146 298 154 276 c 128,-1,70
 162 254 162 254 175.5 240.5 c 128,-1,71
 189 227 189 227 207 221 c 128,-1,72
 225 215 225 215 246 215 c 256,73,74
 267 215 267 215 285 221 c 128,-1,75
 303 227 303 227 316.5 240.5 c 128,-1,76
 330 254 330 254 338 276 c 128,-1,77
 346 298 346 298 346 330 c 0,60,61
EndSplineSet
EndChar

StartChar: h
Encoding: 104 104 91
Width: 529
Flags: W
LayerCount: 2
Fore
SplineSet
162 430 m 1,0,1
 181 449 181 449 214 464.5 c 128,-1,2
 247 480 247 480 292 480 c 0,3,4
 324 480 324 480 354.5 472.5 c 128,-1,5
 385 465 385 465 409 444.5 c 128,-1,6
 433 424 433 424 447.5 389 c 128,-1,7
 462 354 462 354 462 300 c 2,8,-1
 462 0 l 1,9,-1
 372 0 l 1,10,-1
 372 300 l 2,11,12
 372 337 372 337 362.5 363 c 128,-1,13
 353 389 353 389 337.5 405 c 128,-1,14
 322 421 322 421 302.5 428 c 128,-1,15
 283 435 283 435 262 435 c 0,16,17
 232 435 232 435 206.5 419 c 128,-1,18
 181 403 181 403 162 382 c 1,19,-1
 162 0 l 1,20,-1
 72 0 l 1,21,-1
 72 540 l 2,22,23
 72 585 72 585 59.5 612.5 c 128,-1,24
 47 640 47 640 2 640 c 2,25,-1
 -18 640 l 1,26,-1
 -18 660 l 1,27,-1
 72 660 l 2,28,29
 98 660 98 660 115.5 655.5 c 128,-1,30
 133 651 133 651 143.5 637.5 c 128,-1,31
 154 624 154 624 158 600.5 c 128,-1,32
 162 577 162 577 162 540 c 2,33,-1
 162 430 l 1,0,1
EndSplineSet
EndChar

StartChar: i
Encoding: 105 105 92
Width: 246
Flags: W
LayerCount: 2
Fore
SplineSet
177 0 m 1,0,-1
 87 0 l 1,1,-1
 87 350 l 2,2,3
 87 395 87 395 74.5 422.5 c 128,-1,4
 62 450 62 450 17 450 c 2,5,-1
 -3 450 l 1,6,-1
 -3 470 l 1,7,-1
 87 470 l 2,8,9
 113 470 113 470 130.5 465.5 c 128,-1,10
 148 461 148 461 158.5 447.5 c 128,-1,11
 169 434 169 434 173 410.5 c 128,-1,12
 177 387 177 387 177 350 c 2,13,-1
 177 0 l 1,0,-1
171 575 m 0,14,15
 171 554 171 554 158.5 542 c 128,-1,16
 146 530 146 530 125 530 c 0,17,18
 102 530 102 530 85.5 549 c 128,-1,19
 69 568 69 568 69 594 c 0,20,21
 69 615 69 615 81.5 627 c 128,-1,22
 94 639 94 639 115 639 c 0,23,24
 138 639 138 639 154.5 620 c 128,-1,25
 171 601 171 601 171 575 c 0,14,15
EndSplineSet
EndChar

StartChar: j
Encoding: 106 106 93
Width: 246
Flags: W
LayerCount: 2
Fore
SplineSet
87 350 m 2,0,1
 87 395 87 395 74.5 422.5 c 128,-1,2
 62 450 62 450 17 450 c 2,3,-1
 -3 450 l 1,4,-1
 -3 470 l 1,5,-1
 87 470 l 2,6,7
 113 470 113 470 130.5 465.5 c 128,-1,8
 148 461 148 461 158.5 447.5 c 128,-1,9
 169 434 169 434 173 410.5 c 128,-1,10
 177 387 177 387 177 350 c 2,11,-1
 177 25 l 2,12,13
 177 -31 177 -31 168.5 -72 c 128,-1,14
 160 -113 160 -113 139 -139 c 128,-1,15
 118 -165 118 -165 82 -177.5 c 128,-1,16
 46 -190 46 -190 -8 -190 c 1,17,-1
 -8 -170 l 1,18,19
 41 -170 41 -170 64 -118 c 128,-1,20
 87 -66 87 -66 87 25 c 2,21,-1
 87 350 l 2,0,1
171 575 m 0,22,23
 171 554 171 554 158.5 542 c 128,-1,24
 146 530 146 530 125 530 c 0,25,26
 102 530 102 530 85.5 549 c 128,-1,27
 69 568 69 568 69 594 c 0,28,29
 69 615 69 615 81.5 627 c 128,-1,30
 94 639 94 639 115 639 c 0,31,32
 138 639 138 639 154.5 620 c 128,-1,33
 171 601 171 601 171 575 c 0,22,23
EndSplineSet
EndChar

StartChar: k
Encoding: 107 107 94
Width: 485
Flags: W
LayerCount: 2
Fore
SplineSet
162 245 m 1,0,-1
 287 405 l 2,1,2
 310 434 310 434 339 452 c 128,-1,3
 368 470 368 470 417 470 c 2,4,-1
 447 470 l 1,5,-1
 447 445 l 1,6,7
 421 445 421 445 396 434 c 128,-1,8
 371 423 371 423 352 400 c 2,9,-1
 242 260 l 1,10,-1
 367 100 l 2,11,12
 396 62 396 62 421.5 43 c 128,-1,13
 447 24 447 24 477 19 c 1,14,-1
 477 0 l 1,15,16
 469 -4 469 -4 455.5 -7 c 128,-1,17
 442 -10 442 -10 427 -10 c 0,18,19
 389 -10 389 -10 352.5 7.5 c 128,-1,20
 316 25 316 25 282 70 c 2,21,-1
 162 230 l 1,22,-1
 162 0 l 1,23,-1
 72 0 l 1,24,-1
 72 540 l 2,25,26
 72 585 72 585 59.5 612.5 c 128,-1,27
 47 640 47 640 2 640 c 2,28,-1
 -18 640 l 1,29,-1
 -18 660 l 1,30,-1
 72 660 l 2,31,32
 98 660 98 660 115.5 655.5 c 128,-1,33
 133 651 133 651 143.5 637.5 c 128,-1,34
 154 624 154 624 158 600.5 c 128,-1,35
 162 577 162 577 162 540 c 2,36,-1
 162 245 l 1,0,-1
EndSplineSet
EndChar

StartChar: l
Encoding: 108 108 95
Width: 242
Flags: W
LayerCount: 2
Fore
SplineSet
166 0 m 1,0,-1
 76 0 l 1,1,-1
 76 540 l 2,2,3
 76 585 76 585 63.5 612.5 c 128,-1,4
 51 640 51 640 6 640 c 2,5,-1
 -14 640 l 1,6,-1
 -14 660 l 1,7,-1
 76 660 l 2,8,9
 102 660 102 660 119.5 655.5 c 128,-1,10
 137 651 137 651 147.5 637.5 c 128,-1,11
 158 624 158 624 162 600.5 c 128,-1,12
 166 577 166 577 166 540 c 2,13,-1
 166 0 l 1,0,-1
EndSplineSet
EndChar

StartChar: m
Encoding: 109 109 96
Width: 785
Flags: W
LayerCount: 2
Fore
SplineSet
177 430 m 1,0,1
 196 449 196 449 229 464.5 c 128,-1,2
 262 480 262 480 307 480 c 0,3,4
 345 480 345 480 376.5 466 c 128,-1,5
 408 452 408 452 427 410 c 1,6,7
 453 444 453 444 494 462 c 128,-1,8
 535 480 535 480 577 480 c 0,9,10
 605 480 605 480 630.5 472.5 c 128,-1,11
 656 465 656 465 675 444.5 c 128,-1,12
 694 424 694 424 705.5 389 c 128,-1,13
 717 354 717 354 717 300 c 2,14,-1
 717 0 l 1,15,-1
 627 0 l 1,16,-1
 627 300 l 2,17,18
 627 375 627 375 606 405 c 128,-1,19
 585 435 585 435 547 435 c 0,20,21
 532 435 532 435 516.5 429 c 128,-1,22
 501 423 501 423 487 413.5 c 128,-1,23
 473 404 473 404 461 392.5 c 128,-1,24
 449 381 449 381 442 370 c 1,25,26
 446 359 446 359 446.5 337 c 128,-1,27
 447 315 447 315 447 300 c 2,28,-1
 447 0 l 1,29,-1
 357 0 l 1,30,-1
 357 300 l 2,31,32
 357 375 357 375 336 405 c 128,-1,33
 315 435 315 435 277 435 c 0,34,35
 247 435 247 435 221.5 419 c 128,-1,36
 196 403 196 403 177 382 c 1,37,-1
 177 0 l 1,38,-1
 87 0 l 1,39,-1
 87 350 l 2,40,41
 87 395 87 395 74.5 422.5 c 128,-1,42
 62 450 62 450 17 450 c 2,43,-1
 -3 450 l 1,44,-1
 -3 470 l 1,45,-1
 87 470 l 2,46,47
 125 470 125 470 144.5 459.5 c 128,-1,48
 164 449 164 449 172 430 c 1,49,-1
 177 430 l 1,0,1
EndSplineSet
EndChar

StartChar: n
Encoding: 110 110 97
Width: 544
Flags: W
LayerCount: 2
Fore
SplineSet
87 350 m 2,0,1
 87 395 87 395 74.5 422.5 c 128,-1,2
 62 450 62 450 17 450 c 2,3,-1
 -3 450 l 1,4,-1
 -3 470 l 1,5,-1
 87 470 l 2,6,7
 125 470 125 470 144.5 459.5 c 128,-1,8
 164 449 164 449 172 430 c 1,9,-1
 177 430 l 1,10,11
 196 449 196 449 229 464.5 c 128,-1,12
 262 480 262 480 307 480 c 0,13,14
 339 480 339 480 369.5 472.5 c 128,-1,15
 400 465 400 465 424 444.5 c 128,-1,16
 448 424 448 424 462.5 389 c 128,-1,17
 477 354 477 354 477 300 c 2,18,-1
 477 0 l 1,19,-1
 387 0 l 1,20,-1
 387 300 l 2,21,22
 387 337 387 337 377.5 363 c 128,-1,23
 368 389 368 389 352.5 405 c 128,-1,24
 337 421 337 421 317.5 428 c 128,-1,25
 298 435 298 435 277 435 c 0,26,27
 247 435 247 435 221.5 419 c 128,-1,28
 196 403 196 403 177 382 c 1,29,-1
 177 0 l 1,30,-1
 87 0 l 1,31,-1
 87 350 l 2,0,1
EndSplineSet
EndChar

StartChar: o
Encoding: 111 111 98
Width: 528
Flags: W
LayerCount: 2
Fore
SplineSet
389 235 m 256,0,1
 389 278 389 278 380 315.5 c 128,-1,2
 371 353 371 353 354.5 380.5 c 128,-1,3
 338 408 338 408 315 424 c 128,-1,4
 292 440 292 440 264 440 c 256,5,6
 236 440 236 440 213 424 c 128,-1,7
 190 408 190 408 173.5 380.5 c 128,-1,8
 157 353 157 353 148 315.5 c 128,-1,9
 139 278 139 278 139 235 c 256,10,11
 139 192 139 192 148 154.5 c 128,-1,12
 157 117 157 117 173.5 89.5 c 128,-1,13
 190 62 190 62 213 46 c 128,-1,14
 236 30 236 30 264 30 c 256,15,16
 292 30 292 30 315 46 c 128,-1,17
 338 62 338 62 354.5 89.5 c 128,-1,18
 371 117 371 117 380 154.5 c 128,-1,19
 389 192 389 192 389 235 c 256,0,1
44 235 m 256,20,21
 44 286 44 286 58.5 330.5 c 128,-1,22
 73 375 73 375 101.5 408 c 128,-1,23
 130 441 130 441 170.5 460.5 c 128,-1,24
 211 480 211 480 264 480 c 0,25,26
 316 480 316 480 357 460.5 c 128,-1,27
 398 441 398 441 426.5 408 c 128,-1,28
 455 375 455 375 469.5 330.5 c 128,-1,29
 484 286 484 286 484 235 c 256,30,31
 484 184 484 184 469.5 139.5 c 128,-1,32
 455 95 455 95 426.5 62 c 128,-1,33
 398 29 398 29 357 9.5 c 128,-1,34
 316 -10 316 -10 264 -10 c 0,35,36
 211 -10 211 -10 170.5 9.5 c 128,-1,37
 130 29 130 29 101.5 62 c 128,-1,38
 73 95 73 95 58.5 139.5 c 128,-1,39
 44 184 44 184 44 235 c 256,20,21
EndSplineSet
EndChar

StartChar: p
Encoding: 112 112 99
Width: 538
Flags: W
LayerCount: 2
Fore
SplineSet
177 60 m 1,0,1
 200 49 200 49 224.5 39.5 c 128,-1,2
 249 30 249 30 272 30 c 0,3,4
 306 30 306 30 329.5 46 c 128,-1,5
 353 62 353 62 368 89.5 c 128,-1,6
 383 117 383 117 390 154.5 c 128,-1,7
 397 192 397 192 397 235 c 256,8,9
 397 278 397 278 390.5 315.5 c 128,-1,10
 384 353 384 353 369.5 380.5 c 128,-1,11
 355 408 355 408 333.5 424 c 128,-1,12
 312 440 312 440 282 440 c 0,13,14
 261 440 261 440 245 435 c 128,-1,15
 229 430 229 430 216.5 421.5 c 128,-1,16
 204 413 204 413 194 402 c 128,-1,17
 184 391 184 391 177 380 c 1,18,-1
 177 60 l 1,0,1
87 350 m 2,19,20
 87 395 87 395 74.5 422.5 c 128,-1,21
 62 450 62 450 17 450 c 2,22,-1
 -3 450 l 1,23,-1
 -3 470 l 1,24,-1
 87 470 l 2,25,26
 125 470 125 470 144.5 459 c 128,-1,27
 164 448 164 448 172 425 c 1,28,-1
 177 425 l 1,29,30
 192 444 192 444 224 462 c 128,-1,31
 256 480 256 480 312 480 c 0,32,33
 357 480 357 480 390.5 460.5 c 128,-1,34
 424 441 424 441 446.5 408 c 128,-1,35
 469 375 469 375 480.5 330.5 c 128,-1,36
 492 286 492 286 492 235 c 256,37,38
 492 184 492 184 480.5 139.5 c 128,-1,39
 469 95 469 95 445.5 62 c 128,-1,40
 422 29 422 29 386.5 9.5 c 128,-1,41
 351 -10 351 -10 302 -10 c 0,42,43
 260 -10 260 -10 230 -0.5 c 128,-1,44
 200 9 200 9 177 20 c 1,45,-1
 177 -190 l 1,46,-1
 87 -190 l 1,47,-1
 87 350 l 2,19,20
EndSplineSet
EndChar

StartChar: q
Encoding: 113 113 100
Width: 524
Flags: W
LayerCount: 2
Fore
SplineSet
362 380 m 1,0,1
 354 391 354 391 344.5 402 c 128,-1,2
 335 413 335 413 322.5 421.5 c 128,-1,3
 310 430 310 430 294 435 c 128,-1,4
 278 440 278 440 257 440 c 0,5,6
 227 440 227 440 205.5 424 c 128,-1,7
 184 408 184 408 169.5 380.5 c 128,-1,8
 155 353 155 353 148.5 315.5 c 128,-1,9
 142 278 142 278 142 235 c 256,10,11
 142 192 142 192 149 154.5 c 128,-1,12
 156 117 156 117 171 89.5 c 128,-1,13
 186 62 186 62 209.5 46 c 128,-1,14
 233 30 233 30 267 30 c 0,15,16
 290 30 290 30 314.5 39.5 c 128,-1,17
 339 49 339 49 362 60 c 1,18,-1
 362 380 l 1,0,1
362 20 m 1,19,20
 339 9 339 9 309 -0.5 c 128,-1,21
 279 -10 279 -10 237 -10 c 0,22,23
 188 -10 188 -10 152.5 9.5 c 128,-1,24
 117 29 117 29 93.5 62 c 128,-1,25
 70 95 70 95 58.5 139.5 c 128,-1,26
 47 184 47 184 47 235 c 256,27,28
 47 286 47 286 58 330.5 c 128,-1,29
 69 375 69 375 91.5 408 c 128,-1,30
 114 441 114 441 148 460.5 c 128,-1,31
 182 480 182 480 227 480 c 0,32,33
 283 480 283 480 315 462 c 128,-1,34
 347 444 347 444 362 425 c 1,35,-1
 367 425 l 1,36,-1
 402 470 l 1,37,-1
 452 470 l 1,38,-1
 452 -190 l 1,39,-1
 362 -190 l 1,40,-1
 362 20 l 1,19,20
EndSplineSet
EndChar

StartChar: r
Encoding: 114 114 101
Width: 397
Flags: W
LayerCount: 2
Fore
SplineSet
80 350 m 2,0,1
 80 395 80 395 67.5 422.5 c 128,-1,2
 55 450 55 450 10 450 c 2,3,-1
 0 450 l 1,4,-1
 0 470 l 1,5,-1
 80 470 l 2,6,7
 118 470 118 470 137.5 459 c 128,-1,8
 157 448 157 448 165 425 c 1,9,-1
 170 425 l 1,10,11
 185 444 185 444 215 462 c 128,-1,12
 245 480 245 480 290 480 c 0,13,14
 305 480 305 480 322 476.5 c 128,-1,15
 339 473 339 473 350 465 c 256,16,17
 361 457 361 457 369 446 c 128,-1,18
 377 435 377 435 385 420 c 1,19,-1
 345 390 l 1,20,21
 334 405 334 405 312.5 412.5 c 128,-1,22
 291 420 291 420 265 420 c 0,23,24
 235 420 235 420 210 406.5 c 128,-1,25
 185 393 185 393 170 370 c 1,26,-1
 170 0 l 1,27,-1
 80 0 l 1,28,-1
 80 350 l 2,0,1
EndSplineSet
EndChar

StartChar: s
Encoding: 115 115 102
Width: 446
Flags: W
LayerCount: 2
Fore
SplineSet
404 120 m 0,0,1
 404 88 404 88 390.5 64 c 128,-1,2
 377 40 377 40 354 23.5 c 128,-1,3
 331 7 331 7 298.5 -1.5 c 128,-1,4
 266 -10 266 -10 229 -10 c 0,5,6
 169 -10 169 -10 131 0.5 c 128,-1,7
 93 11 93 11 74 30 c 256,8,9
 55 49 55 49 52 73 c 128,-1,10
 49 97 49 97 49 135 c 1,11,-1
 69 135 l 1,12,13
 77 86 77 86 111 58 c 128,-1,14
 145 30 145 30 209 30 c 0,15,16
 266 30 266 30 292.5 50 c 128,-1,17
 319 70 319 70 319 100 c 256,18,19
 319 130 319 130 296.5 150.5 c 128,-1,20
 274 171 274 171 229 190 c 2,21,-1
 169 215 l 2,22,23
 112 238 112 238 80.5 269.5 c 128,-1,24
 49 301 49 301 49 350 c 0,25,26
 49 382 49 382 61.5 406 c 128,-1,27
 74 430 74 430 96 446.5 c 128,-1,28
 118 463 118 463 148 471.5 c 128,-1,29
 178 480 178 480 214 480 c 0,30,31
 271 480 271 480 308 469.5 c 128,-1,32
 345 459 345 459 364 440 c 256,33,34
 383 421 383 421 386 397 c 128,-1,35
 389 373 389 373 389 335 c 1,36,-1
 369 335 l 1,37,38
 361 384 361 384 327.5 412 c 128,-1,39
 294 440 294 440 234 440 c 0,40,41
 185 440 185 440 159.5 420 c 128,-1,42
 134 400 134 400 134 370 c 0,43,44
 134 344 134 344 155 322.5 c 128,-1,45
 176 301 176 301 214 285 c 2,46,-1
 274 260 l 2,47,48
 338 234 338 234 371 203 c 128,-1,49
 404 172 404 172 404 120 c 0,0,1
EndSplineSet
EndChar

StartChar: t
Encoding: 116 116 103
Width: 338
Flags: W
LayerCount: 2
Fore
SplineSet
91 430 m 1,0,-1
 21 430 l 1,1,-1
 21 470 l 1,2,-1
 91 470 l 1,3,-1
 91 560 l 1,4,-1
 141 620 l 1,5,-1
 181 620 l 1,6,-1
 181 470 l 1,7,-1
 301 470 l 1,8,-1
 301 430 l 1,9,-1
 181 430 l 1,10,-1
 181 120 l 2,11,12
 181 30 181 30 251 30 c 0,13,14
 277 30 277 30 294 36 c 128,-1,15
 311 42 311 42 326 50 c 1,16,-1
 336 30 l 1,17,18
 328 24 328 24 317.5 17 c 128,-1,19
 307 10 307 10 292 4 c 128,-1,20
 277 -2 277 -2 257 -6 c 128,-1,21
 237 -10 237 -10 211 -10 c 0,22,23
 158 -10 158 -10 124.5 21 c 128,-1,24
 91 52 91 52 91 120 c 2,25,-1
 91 430 l 1,0,-1
EndSplineSet
EndChar

StartChar: u
Encoding: 117 117 104
Width: 535
Flags: W
LayerCount: 2
Fore
SplineSet
463 0 m 1,0,-1
 413 0 l 1,1,-1
 378 40 l 1,2,-1
 373 40 l 1,3,4
 354 21 354 21 321 5.5 c 128,-1,5
 288 -10 288 -10 243 -10 c 0,6,7
 211 -10 211 -10 180.5 -2.5 c 128,-1,8
 150 5 150 5 126 25.5 c 128,-1,9
 102 46 102 46 87.5 81 c 128,-1,10
 73 116 73 116 73 170 c 2,11,-1
 73 350 l 2,12,13
 73 395 73 395 60.5 422.5 c 128,-1,14
 48 450 48 450 3 450 c 2,15,-1
 -7 450 l 1,16,-1
 -7 470 l 1,17,-1
 73 470 l 2,18,19
 99 470 99 470 116.5 465.5 c 128,-1,20
 134 461 134 461 144.5 447.5 c 128,-1,21
 155 434 155 434 159 410.5 c 128,-1,22
 163 387 163 387 163 350 c 2,23,-1
 163 170 l 2,24,25
 163 132 163 132 172.5 106.5 c 128,-1,26
 182 81 182 81 197.5 65 c 128,-1,27
 213 49 213 49 232.5 42 c 128,-1,28
 252 35 252 35 273 35 c 0,29,30
 303 35 303 35 328.5 51 c 128,-1,31
 354 67 354 67 373 88 c 1,32,-1
 373 470 l 1,33,-1
 463 470 l 1,34,-1
 463 0 l 1,0,-1
EndSplineSet
EndChar

StartChar: v
Encoding: 118 118 105
Width: 497
Flags: W
LayerCount: 2
Fore
SplineSet
289 140 m 1,0,-1
 429 470 l 1,1,-1
 479 470 l 1,2,-1
 274 -10 l 1,3,-1
 254 -10 l 1,4,-1
 99 355 l 2,5,6
 87 383 87 383 76 402 c 128,-1,7
 65 421 65 421 53 433 c 128,-1,8
 41 445 41 445 27 451 c 128,-1,9
 13 457 13 457 -5 458 c 1,10,-1
 -5 478 l 1,11,12
 -1 478 -1 478 10.5 479 c 128,-1,13
 22 480 22 480 29 480 c 0,14,15
 51 480 51 480 74.5 475 c 128,-1,16
 98 470 98 470 120 456.5 c 128,-1,17
 142 443 142 443 162 418.5 c 128,-1,18
 182 394 182 394 199 355 c 2,19,-1
 289 140 l 1,0,-1
EndSplineSet
EndChar

StartChar: w
Encoding: 119 119 106
Width: 749
Flags: W
LayerCount: 2
Fore
SplineSet
550 145 m 1,0,-1
 680 470 l 1,1,-1
 730 470 l 1,2,-1
 535 -10 l 1,3,-1
 515 -10 l 1,4,-1
 390 300 l 1,5,-1
 265 -10 l 1,6,-1
 245 -10 l 1,7,-1
 100 355 l 2,8,9
 77 411 77 411 54.5 433.5 c 128,-1,10
 32 456 32 456 -5 458 c 1,11,-1
 -5 478 l 1,12,13
 -1 478 -1 478 11 479 c 128,-1,14
 23 480 23 480 30 480 c 0,15,16
 54 480 54 480 77.5 474.5 c 128,-1,17
 101 469 101 469 122 455 c 128,-1,18
 143 441 143 441 161.5 416.5 c 128,-1,19
 180 392 180 392 195 355 c 2,20,-1
 280 145 l 1,21,-1
 365 360 l 1,22,23
 342 412 342 412 320.5 434 c 128,-1,24
 299 456 299 456 265 458 c 1,25,-1
 265 478 l 1,26,27
 269 478 269 478 281 479 c 128,-1,28
 293 480 293 480 300 480 c 0,29,30
 324 480 324 480 347.5 474.5 c 128,-1,31
 371 469 371 469 392 455 c 128,-1,32
 413 441 413 441 431.5 416.5 c 128,-1,33
 450 392 450 392 465 355 c 2,34,-1
 550 145 l 1,0,-1
EndSplineSet
EndChar

StartChar: x
Encoding: 120 120 107
Width: 488
Flags: W
LayerCount: 2
Fore
SplineSet
218 185 m 1,0,-1
 88 0 l 1,1,-1
 38 0 l 1,2,-1
 198 225 l 1,3,-1
 111 370 l 1,4,5
 69 442 69 442 8 450 c 1,6,-1
 8 470 l 1,7,-1
 93 470 l 2,8,9
 127 470 127 470 155.5 448.5 c 128,-1,10
 184 427 184 427 206 390 c 2,11,-1
 268 285 l 1,12,-1
 398 470 l 1,13,-1
 448 470 l 1,14,-1
 288 245 l 1,15,-1
 375 100 l 1,16,17
 417 27 417 27 483 20 c 1,18,-1
 483 0 l 1,19,-1
 393 0 l 2,20,21
 359 0 359 0 330.5 21.5 c 128,-1,22
 302 43 302 43 280 80 c 2,23,-1
 218 185 l 1,0,-1
EndSplineSet
EndChar

StartChar: y
Encoding: 121 121 108
Width: 514
Flags: W
LayerCount: 2
Fore
SplineSet
260 -10 m 1,0,-1
 100 380 l 2,1,2
 85 418 85 418 56.5 437 c 128,-1,3
 28 456 28 456 -10 460 c 1,4,-1
 -10 480 l 1,5,-1
 75 480 l 2,6,7
 120 480 120 480 149.5 459 c 128,-1,8
 179 438 179 438 195 400 c 2,9,-1
 309 123 l 1,10,-1
 435 470 l 1,11,-1
 485 470 l 1,12,-1
 290 -65 l 2,13,14
 275 -106 275 -106 258.5 -132.5 c 128,-1,15
 242 -159 242 -159 223.5 -174 c 128,-1,16
 205 -189 205 -189 183 -194.5 c 128,-1,17
 161 -200 161 -200 135 -200 c 2,18,-1
 105 -200 l 1,19,-1
 105 -170 l 1,20,21
 127 -170 127 -170 147 -165.5 c 128,-1,22
 167 -161 167 -161 183.5 -149.5 c 128,-1,23
 200 -138 200 -138 214 -117.5 c 128,-1,24
 228 -97 228 -97 240 -65 c 2,25,-1
 260 -10 l 1,0,-1
EndSplineSet
EndChar

StartChar: z
Encoding: 122 122 109
Width: 466
Flags: W
LayerCount: 2
Fore
SplineSet
434 470 m 1,0,-1
 164 40 l 1,1,-1
 434 40 l 1,2,-1
 434 0 l 1,3,-1
 44 0 l 1,4,-1
 44 19 l 1,5,-1
 304 430 l 1,6,-1
 189 430 l 2,7,8
 125 430 125 430 94.5 406 c 128,-1,9
 64 382 64 382 64 340 c 1,10,-1
 44 340 l 1,11,-1
 44 390 l 2,12,13
 44 405 44 405 47.5 419.5 c 128,-1,14
 51 434 51 434 60.5 445 c 128,-1,15
 70 456 70 456 86.5 463 c 128,-1,16
 103 470 103 470 129 470 c 2,17,-1
 434 470 l 1,0,-1
EndSplineSet
EndChar

StartChar: braceleft
Encoding: 123 123 110
Width: 304
Flags: W
LayerCount: 2
Fore
SplineSet
11 255 m 1,0,1
 39 259 39 259 58 269.5 c 128,-1,2
 77 280 77 280 89 295.5 c 128,-1,3
 101 311 101 311 106 330 c 128,-1,4
 111 349 111 349 111 370 c 2,5,-1
 111 510 l 2,6,7
 111 577 111 577 148.5 622 c 128,-1,8
 186 667 186 667 276 690 c 1,9,-1
 276 660 l 1,10,11
 250 652 250 652 233.5 642.5 c 128,-1,12
 217 633 217 633 207.5 620 c 128,-1,13
 198 607 198 607 194.5 589.5 c 128,-1,14
 191 572 191 572 191 550 c 2,15,-1
 191 380 l 2,16,17
 191 320 191 320 165 287.5 c 128,-1,18
 139 255 139 255 86 240 c 1,19,20
 139 225 139 225 165 192.5 c 128,-1,21
 191 160 191 160 191 100 c 2,22,-1
 191 -70 l 2,23,24
 191 -93 191 -93 194.5 -110 c 128,-1,25
 198 -127 198 -127 207.5 -140 c 128,-1,26
 217 -153 217 -153 233.5 -163 c 128,-1,27
 250 -173 250 -173 276 -180 c 1,28,-1
 276 -210 l 1,29,30
 186 -188 186 -188 148.5 -143 c 128,-1,31
 111 -98 111 -98 111 -30 c 2,32,-1
 111 110 l 2,33,34
 111 131 111 131 106 150 c 128,-1,35
 101 169 101 169 89 184.5 c 128,-1,36
 77 200 77 200 58 210.5 c 128,-1,37
 39 221 39 221 11 225 c 1,38,-1
 11 255 l 1,0,1
EndSplineSet
EndChar

StartChar: bar
Encoding: 124 124 111
Width: 240
Flags: W
LayerCount: 2
Fore
SplineSet
165 680 m 1,0,-1
 165 -190 l 1,1,-1
 75 -190 l 1,2,-1
 75 680 l 1,3,-1
 165 680 l 1,0,-1
EndSplineSet
EndChar

StartChar: braceright
Encoding: 125 125 112
Width: 304
Flags: W
LayerCount: 2
Fore
SplineSet
293 225 m 1,0,1
 265 221 265 221 246 210.5 c 128,-1,2
 227 200 227 200 215 184.5 c 128,-1,3
 203 169 203 169 198 150 c 128,-1,4
 193 131 193 131 193 110 c 2,5,-1
 193 -30 l 2,6,7
 193 -98 193 -98 155.5 -143 c 128,-1,8
 118 -188 118 -188 28 -210 c 1,9,-1
 28 -180 l 1,10,11
 54 -173 54 -173 70.5 -163 c 128,-1,12
 87 -153 87 -153 96.5 -140 c 128,-1,13
 106 -127 106 -127 109.5 -110 c 128,-1,14
 113 -93 113 -93 113 -70 c 2,15,-1
 113 100 l 2,16,17
 113 160 113 160 139 192.5 c 128,-1,18
 165 225 165 225 218 240 c 1,19,20
 165 255 165 255 139 287.5 c 128,-1,21
 113 320 113 320 113 380 c 2,22,-1
 113 550 l 2,23,24
 113 572 113 572 109.5 589.5 c 128,-1,25
 106 607 106 607 96.5 620 c 128,-1,26
 87 633 87 633 70.5 642.5 c 128,-1,27
 54 652 54 652 28 660 c 1,28,-1
 28 690 l 1,29,30
 118 667 118 667 155.5 622 c 128,-1,31
 193 577 193 577 193 510 c 2,32,-1
 193 370 l 2,33,34
 193 349 193 349 198 330 c 128,-1,35
 203 311 203 311 215 295.5 c 128,-1,36
 227 280 227 280 246 269.5 c 128,-1,37
 265 259 265 259 293 255 c 1,38,-1
 293 225 l 1,0,1
EndSplineSet
EndChar

StartChar: asciitilde
Encoding: 126 126 113
Width: 629
Flags: W
LayerCount: 2
Fore
SplineSet
450 180 m 0,0,1
 412 180 412 180 376.5 192.5 c 128,-1,2
 341 205 341 205 307.5 220 c 128,-1,3
 274 235 274 235 242 247.5 c 128,-1,4
 210 260 210 260 180 260 c 0,5,6
 142 260 142 260 121 240 c 128,-1,7
 100 220 100 220 100 190 c 1,8,-1
 60 190 l 1,9,10
 60 227 60 227 70.5 254 c 128,-1,11
 81 281 81 281 97.5 297.5 c 128,-1,12
 114 314 114 314 135.5 322 c 128,-1,13
 157 330 157 330 180 330 c 0,14,15
 217 330 217 330 253 317.5 c 128,-1,16
 289 305 289 305 322.5 290 c 128,-1,17
 356 275 356 275 388 262.5 c 128,-1,18
 420 250 420 250 450 250 c 0,19,20
 488 250 488 250 509 270 c 128,-1,21
 530 290 530 290 530 320 c 1,22,-1
 570 320 l 1,23,24
 570 282 570 282 559.5 255.5 c 128,-1,25
 549 229 549 229 532.5 212.5 c 128,-1,26
 516 196 516 196 494 188 c 128,-1,27
 472 180 472 180 450 180 c 0,0,1
EndSplineSet
EndChar

StartChar: exclamdown
Encoding: 161 161 114
Width: 220
Flags: W
LayerCount: 2
Fore
SplineSet
157 -194 m 1,0,-1
 63 -194 l 1,1,-1
 81 311 l 1,2,-1
 139 311 l 1,3,-1
 157 -194 l 1,0,-1
110 372 m 256,4,5
 88 372 88 372 72 387.5 c 128,-1,6
 56 403 56 403 56 425 c 0,7,8
 56 448 56 448 72 464 c 128,-1,9
 88 480 88 480 110 480 c 256,10,11
 132 480 132 480 148 464 c 128,-1,12
 164 448 164 448 164 425 c 0,13,14
 164 403 164 403 148 387.5 c 128,-1,15
 132 372 132 372 110 372 c 256,4,5
EndSplineSet
EndChar

StartChar: sterling
Encoding: 163 163 115
Width: 528
Flags: W
LayerCount: 2
Fore
SplineSet
117 460 m 2,0,1
 117 527 117 527 131.5 568.5 c 128,-1,2
 146 610 146 610 170.5 632.5 c 128,-1,3
 195 655 195 655 226.5 662.5 c 128,-1,4
 258 670 258 670 292 670 c 0,5,6
 314 670 314 670 337 668 c 128,-1,7
 360 666 360 666 380 662 c 128,-1,8
 400 658 400 658 416.5 651 c 128,-1,9
 433 644 433 644 442 635 c 0,10,11
 461 616 461 616 464 593.5 c 128,-1,12
 467 571 467 571 467 545 c 1,13,-1
 422 545 l 1,14,15
 411 594 411 594 382.5 612 c 128,-1,16
 354 630 354 630 312 630 c 0,17,18
 289 630 289 630 270 623 c 128,-1,19
 251 616 251 616 237 597.5 c 128,-1,20
 223 579 223 579 215 545.5 c 128,-1,21
 207 512 207 512 207 460 c 2,22,-1
 207 360 l 1,23,-1
 347 360 l 1,24,-1
 347 320 l 1,25,-1
 207 320 l 1,26,-1
 207 220 l 2,27,28
 207 148 207 148 192.5 105.5 c 128,-1,29
 178 63 178 63 152 40 c 1,30,-1
 337 40 l 2,31,32
 397 40 397 40 429.5 67.5 c 128,-1,33
 462 95 462 95 462 155 c 1,34,-1
 482 155 l 1,35,-1
 482 80 l 2,36,37
 482 65 482 65 478.5 50.5 c 128,-1,38
 475 36 475 36 465.5 25 c 128,-1,39
 456 14 456 14 439.5 7 c 128,-1,40
 423 0 423 0 397 0 c 2,41,-1
 32 0 l 1,42,-1
 32 25 l 1,43,44
 53 31 53 31 68.5 43.5 c 128,-1,45
 84 56 84 56 95 79 c 128,-1,46
 106 102 106 102 111.5 136.5 c 128,-1,47
 117 171 117 171 117 220 c 2,48,-1
 117 320 l 1,49,-1
 47 320 l 1,50,-1
 47 360 l 1,51,-1
 117 360 l 1,52,-1
 117 460 l 2,0,1
EndSplineSet
EndChar

StartChar: yen
Encoding: 165 165 116
Width: 687
Flags: W
LayerCount: 2
Fore
SplineSet
409 325 m 1,0,-1
 618 660 l 1,1,-1
 663 660 l 1,2,-1
 429 280 l 1,3,-1
 429 265 l 1,4,-1
 524 265 l 1,5,-1
 524 225 l 1,6,-1
 429 225 l 1,7,-1
 429 185 l 1,8,-1
 524 185 l 1,9,-1
 524 145 l 1,10,-1
 429 145 l 1,11,-1
 429 0 l 1,12,-1
 339 0 l 1,13,-1
 339 145 l 1,14,-1
 244 145 l 1,15,-1
 244 185 l 1,16,-1
 339 185 l 1,17,-1
 339 225 l 1,18,-1
 244 225 l 1,19,-1
 244 265 l 1,20,-1
 339 265 l 1,21,-1
 339 273 l 1,22,-1
 169 530 l 2,23,24
 154 552 154 552 139.5 571.5 c 128,-1,25
 125 591 125 591 108 605.5 c 128,-1,26
 91 620 91 620 70.5 629 c 128,-1,27
 50 638 50 638 24 640 c 1,28,-1
 24 660 l 1,29,-1
 114 660 l 2,30,31
 142 660 142 660 164 650.5 c 128,-1,32
 186 641 186 641 204 625.5 c 128,-1,33
 222 610 222 610 236.5 590.5 c 128,-1,34
 251 571 251 571 264 550 c 2,35,-1
 409 325 l 1,0,-1
EndSplineSet
EndChar

StartChar: section
Encoding: 167 167 117
Width: 432
Flags: W
LayerCount: 2
Fore
SplineSet
151 540 m 0,0,1
 151 505 151 505 168 480.5 c 128,-1,2
 185 456 185 456 210.5 436 c 128,-1,3
 236 416 236 416 266 398 c 128,-1,4
 296 380 296 380 321.5 359 c 128,-1,5
 347 338 347 338 364 311 c 128,-1,6
 381 284 381 284 381 245 c 0,7,8
 381 187 381 187 353 153 c 128,-1,9
 325 119 325 119 275 100 c 1,10,11
 313 74 313 74 339.5 38 c 128,-1,12
 366 2 366 2 366 -50 c 0,13,14
 366 -89 366 -89 353.5 -117.5 c 128,-1,15
 341 -146 341 -146 320 -164.5 c 128,-1,16
 299 -183 299 -183 271 -191.5 c 128,-1,17
 243 -200 243 -200 211 -200 c 0,18,19
 169 -200 169 -200 134.5 -189.5 c 128,-1,20
 100 -179 100 -179 81 -160 c 256,21,22
 62 -141 62 -141 59 -117 c 128,-1,23
 56 -93 56 -93 56 -55 c 1,24,-1
 76 -55 l 1,25,26
 84 -104 84 -104 111.5 -132 c 128,-1,27
 139 -160 139 -160 181 -160 c 0,28,29
 226 -160 226 -160 253.5 -137.5 c 128,-1,30
 281 -115 281 -115 281 -70 c 0,31,32
 281 -35 281 -35 264 -10.5 c 128,-1,33
 247 14 247 14 221.5 34 c 128,-1,34
 196 54 196 54 166 72 c 128,-1,35
 136 90 136 90 110.5 111 c 128,-1,36
 85 132 85 132 68 159 c 128,-1,37
 51 186 51 186 51 225 c 0,38,39
 51 282 51 282 79 316.5 c 128,-1,40
 107 351 107 351 156 370 c 1,41,42
 118 395 118 395 92 431.5 c 128,-1,43
 66 468 66 468 66 520 c 0,44,45
 66 559 66 559 78.5 587.5 c 128,-1,46
 91 616 91 616 112 634.5 c 128,-1,47
 133 653 133 653 161 661.5 c 128,-1,48
 189 670 189 670 221 670 c 0,49,50
 263 670 263 670 297.5 659.5 c 128,-1,51
 332 649 332 649 351 630 c 256,52,53
 370 611 370 611 373 587 c 128,-1,54
 376 563 376 563 376 525 c 1,55,-1
 356 525 l 1,56,57
 348 574 348 574 320.5 602 c 128,-1,58
 293 630 293 630 251 630 c 0,59,60
 206 630 206 630 178.5 607.5 c 128,-1,61
 151 585 151 585 151 540 c 0,0,1
195 347 m 1,62,63
 166 338 166 338 146 317.5 c 128,-1,64
 126 297 126 297 126 255 c 256,65,66
 126 213 126 213 156.5 182 c 128,-1,67
 187 151 187 151 237 123 c 1,68,69
 266 132 266 132 286 152.5 c 128,-1,70
 306 173 306 173 306 215 c 256,71,72
 306 257 306 257 275.5 288 c 128,-1,73
 245 319 245 319 195 347 c 1,62,63
EndSplineSet
EndChar

StartChar: copyright
Encoding: 169 169 118
Width: 790
Flags: W
LayerCount: 2
Fore
SplineSet
395 685 m 256,0,1
 472 685 472 685 537 658.5 c 128,-1,2
 602 632 602 632 649.5 584.5 c 128,-1,3
 697 537 697 537 723.5 472 c 128,-1,4
 750 407 750 407 750 330 c 256,5,6
 750 253 750 253 723.5 188 c 128,-1,7
 697 123 697 123 649.5 75.5 c 128,-1,8
 602 28 602 28 537 1.5 c 128,-1,9
 472 -25 472 -25 395 -25 c 256,10,11
 318 -25 318 -25 253 1.5 c 128,-1,12
 188 28 188 28 140.5 75.5 c 128,-1,13
 93 123 93 123 66.5 188 c 128,-1,14
 40 253 40 253 40 330 c 256,15,16
 40 407 40 407 66.5 472 c 128,-1,17
 93 537 93 537 140.5 584.5 c 128,-1,18
 188 632 188 632 253 658.5 c 128,-1,19
 318 685 318 685 395 685 c 256,0,1
395 15 m 256,20,21
 464 15 464 15 522 38 c 128,-1,22
 580 61 580 61 622 103 c 128,-1,23
 664 145 664 145 687 203 c 128,-1,24
 710 261 710 261 710 330 c 256,25,26
 710 399 710 399 687 457 c 128,-1,27
 664 515 664 515 622 557 c 128,-1,28
 580 599 580 599 522 622 c 128,-1,29
 464 645 464 645 395 645 c 256,30,31
 326 645 326 645 268 622 c 128,-1,32
 210 599 210 599 168 557 c 128,-1,33
 126 515 126 515 103 457 c 128,-1,34
 80 399 80 399 80 330 c 256,35,36
 80 261 80 261 103 203 c 128,-1,37
 126 145 126 145 168 103 c 128,-1,38
 210 61 210 61 268 38 c 128,-1,39
 326 15 326 15 395 15 c 256,20,21
548 412 m 1,40,41
 536 476 536 476 502.5 506 c 128,-1,42
 469 536 469 536 415 536 c 0,43,44
 383 536 383 536 355 525.5 c 128,-1,45
 327 515 327 515 305.5 490.5 c 128,-1,46
 284 466 284 466 271.5 426 c 128,-1,47
 259 386 259 386 259 327 c 0,48,49
 259 290 259 290 268 255 c 128,-1,50
 277 220 277 220 296 192.5 c 128,-1,51
 315 165 315 165 344.5 148.5 c 128,-1,52
 374 132 374 132 415 132 c 0,53,54
 464 132 464 132 499 155 c 128,-1,55
 534 178 534 178 561 223 c 1,56,-1
 574 213 l 1,57,58
 542 152 542 152 498 128.5 c 128,-1,59
 454 105 454 105 395 105 c 0,60,61
 349 105 349 105 312 122 c 128,-1,62
 275 139 275 139 249 169 c 128,-1,63
 223 199 223 199 209 239.5 c 128,-1,64
 195 280 195 280 195 327 c 0,65,66
 195 376 195 376 211 419 c 128,-1,67
 227 462 227 462 254 493.5 c 128,-1,68
 281 525 281 525 317.5 543.5 c 128,-1,69
 354 562 354 562 395 562 c 0,70,71
 449 562 449 562 488 546.5 c 128,-1,72
 527 531 527 531 544 510 c 0,73,74
 557 495 557 495 559 468 c 128,-1,75
 561 441 561 441 561 412 c 1,76,-1
 548 412 l 1,40,41
EndSplineSet
EndChar

StartChar: guillemotleft
Encoding: 171 171 119
Width: 372
Flags: W
LayerCount: 2
Fore
SplineSet
275 370 m 1,0,-1
 315 370 l 1,1,-1
 255 225 l 1,2,-1
 315 80 l 1,3,-1
 275 80 l 1,4,-1
 175 225 l 1,5,-1
 275 370 l 1,0,-1
135 225 m 1,6,-1
 230 30 l 1,7,-1
 190 30 l 1,8,-1
 35 225 l 1,9,-1
 190 420 l 1,10,-1
 230 420 l 1,11,-1
 135 225 l 1,6,-1
EndSplineSet
EndChar

StartChar: logicalnot
Encoding: 172 172 120
Width: 654
Flags: W
LayerCount: 2
Fore
SplineSet
528 230 m 1,0,-1
 68 230 l 1,1,-1
 68 290 l 1,2,-1
 588 290 l 1,3,-1
 588 130 l 1,4,-1
 528 130 l 1,5,-1
 528 230 l 1,0,-1
EndSplineSet
EndChar

StartChar: registered
Encoding: 174 174 121
Width: 790
Flags: W
LayerCount: 2
Fore
SplineSet
395 685 m 256,0,1
 472 685 472 685 537 658.5 c 128,-1,2
 602 632 602 632 649.5 584.5 c 128,-1,3
 697 537 697 537 723.5 472 c 128,-1,4
 750 407 750 407 750 330 c 256,5,6
 750 253 750 253 723.5 188 c 128,-1,7
 697 123 697 123 649.5 75.5 c 128,-1,8
 602 28 602 28 537 1.5 c 128,-1,9
 472 -25 472 -25 395 -25 c 256,10,11
 318 -25 318 -25 253 1.5 c 128,-1,12
 188 28 188 28 140.5 75.5 c 128,-1,13
 93 123 93 123 66.5 188 c 128,-1,14
 40 253 40 253 40 330 c 256,15,16
 40 407 40 407 66.5 472 c 128,-1,17
 93 537 93 537 140.5 584.5 c 128,-1,18
 188 632 188 632 253 658.5 c 128,-1,19
 318 685 318 685 395 685 c 256,0,1
395 15 m 256,20,21
 464 15 464 15 522 38 c 128,-1,22
 580 61 580 61 622 103 c 128,-1,23
 664 145 664 145 687 203 c 128,-1,24
 710 261 710 261 710 330 c 256,25,26
 710 399 710 399 687 457 c 128,-1,27
 664 515 664 515 622 557 c 128,-1,28
 580 599 580 599 522 622 c 128,-1,29
 464 645 464 645 395 645 c 256,30,31
 326 645 326 645 268 622 c 128,-1,32
 210 599 210 599 168 557 c 128,-1,33
 126 515 126 515 103 457 c 128,-1,34
 80 399 80 399 80 330 c 256,35,36
 80 261 80 261 103 203 c 128,-1,37
 126 145 126 145 168 103 c 128,-1,38
 210 61 210 61 268 38 c 128,-1,39
 326 15 326 15 395 15 c 256,20,21
376 345 m 0,40,41
 389 345 389 345 406.5 350 c 128,-1,42
 424 355 424 355 439.5 366.5 c 128,-1,43
 455 378 455 378 465.5 395.5 c 128,-1,44
 476 413 476 413 476 438 c 256,45,46
 476 463 476 463 465.5 480.5 c 128,-1,47
 455 498 455 498 439.5 509 c 128,-1,48
 424 520 424 520 406.5 525 c 128,-1,49
 389 530 389 530 376 530 c 0,50,51
 364 530 364 530 350.5 527.5 c 128,-1,52
 337 525 337 525 327 523 c 1,53,-1
 327 352 l 1,54,55
 337 350 337 350 350.5 347.5 c 128,-1,56
 364 345 364 345 376 345 c 0,40,41
375 323 m 1,57,-1
 327 323 l 1,58,-1
 327 125 l 1,59,-1
 269 125 l 1,60,-1
 269 474 l 2,61,62
 269 503 269 503 261 521 c 128,-1,63
 253 539 253 539 224 539 c 2,64,-1
 211 539 l 1,65,-1
 211 552 l 1,66,-1
 379 552 l 2,67,68
 400 552 400 552 427.5 548.5 c 128,-1,69
 455 545 455 545 480.5 532.5 c 128,-1,70
 506 520 506 520 523.5 496.5 c 128,-1,71
 541 473 541 473 541 434 c 0,72,73
 541 407 541 407 531.5 388 c 128,-1,74
 522 369 522 369 507 356.5 c 128,-1,75
 492 344 492 344 473.5 337 c 128,-1,76
 455 330 455 330 438 327 c 1,77,-1
 510 211 l 2,78,79
 535 171 535 171 553 155.5 c 128,-1,80
 571 140 571 140 595 137 c 1,81,-1
 595 125 l 1,82,83
 584 118 584 118 553 118 c 0,84,85
 537 118 537 118 524 122.5 c 128,-1,86
 511 127 511 127 498 138 c 128,-1,87
 485 149 485 149 471.5 167 c 128,-1,88
 458 185 458 185 442 211 c 2,89,-1
 375 323 l 1,57,-1
EndSplineSet
EndChar

StartChar: questiondown
Encoding: 191 191 122
Width: 473
Flags: W
LayerCount: 2
Fore
SplineSet
259 372 m 256,0,1
 236 372 236 372 220 388 c 128,-1,2
 204 404 204 404 204 427 c 0,3,4
 204 449 204 449 220.5 465 c 128,-1,5
 237 481 237 481 259 481 c 0,6,7
 282 481 282 481 297.5 465 c 128,-1,8
 313 449 313 449 313 427 c 0,9,10
 313 404 313 404 297.5 388 c 128,-1,11
 282 372 282 372 259 372 c 256,0,1
279 312 m 1,12,13
 278 271 278 271 266.5 240.5 c 128,-1,14
 255 210 255 210 238 185.5 c 128,-1,15
 221 161 221 161 202 139.5 c 128,-1,16
 183 118 183 118 167 94.5 c 128,-1,17
 151 71 151 71 140 43 c 128,-1,18
 129 15 129 15 129 -22 c 0,19,20
 129 -60 129 -60 139.5 -88 c 128,-1,21
 150 -116 150 -116 168 -134.5 c 128,-1,22
 186 -153 186 -153 209.5 -162.5 c 128,-1,23
 233 -172 233 -172 259 -172 c 0,24,25
 319 -172 319 -172 364.5 -128.5 c 128,-1,26
 410 -85 410 -85 425 -2 c 1,27,-1
 445 -2 l 1,28,29
 445 -40 445 -40 442 -74.5 c 128,-1,30
 439 -109 439 -109 420 -132 c 0,31,32
 393 -165 393 -165 341 -188.5 c 128,-1,33
 289 -212 289 -212 229 -212 c 0,34,35
 199 -212 199 -212 164 -205 c 128,-1,36
 129 -198 129 -198 99 -177 c 128,-1,37
 69 -156 69 -156 49 -119 c 128,-1,38
 29 -82 29 -82 29 -22 c 0,39,40
 29 20 29 20 44 52 c 128,-1,41
 59 84 59 84 82 110 c 128,-1,42
 105 136 105 136 132 158.5 c 128,-1,43
 159 181 159 181 182.5 204 c 128,-1,44
 206 227 206 227 222 252.5 c 128,-1,45
 238 278 238 278 239 312 c 1,46,-1
 279 312 l 1,12,13
EndSplineSet
EndChar

StartChar: OE
Encoding: 338 338 123
Width: 945
Flags: W
LayerCount: 2
Fore
SplineSet
46 330 m 0,0,1
 46 403 46 403 67.5 467 c 128,-1,2
 89 531 89 531 129.5 578.5 c 128,-1,3
 170 626 170 626 227.5 653 c 128,-1,4
 285 680 285 680 356 680 c 0,5,6
 386 680 386 680 413 675.5 c 128,-1,7
 440 671 440 671 466 660 c 1,8,-1
 797 660 l 2,9,10
 823 660 823 660 839.5 653 c 128,-1,11
 856 646 856 646 865.5 635 c 128,-1,12
 875 624 875 624 878.5 609.5 c 128,-1,13
 882 595 882 595 882 580 c 2,14,-1
 882 505 l 1,15,-1
 862 505 l 1,16,17
 862 565 862 565 829.5 592.5 c 128,-1,18
 797 620 797 620 737 620 c 2,19,-1
 551 620 l 1,20,-1
 551 360 l 1,21,-1
 821 360 l 1,22,-1
 821 320 l 1,23,-1
 551 320 l 1,24,-1
 551 40 l 1,25,-1
 726 40 l 2,26,27
 794 40 794 40 833.5 65 c 128,-1,28
 873 90 873 90 896 150 c 1,29,-1
 916 145 l 1,30,-1
 881 50 l 2,31,32
 873 27 873 27 854.5 13.5 c 128,-1,33
 836 0 836 0 806 0 c 2,34,-1
 466 0 l 1,35,36
 440 -11 440 -11 413 -15.5 c 128,-1,37
 386 -20 386 -20 356 -20 c 0,38,39
 285 -20 285 -20 227.5 7 c 128,-1,40
 170 34 170 34 129.5 81.5 c 128,-1,41
 89 129 89 129 67.5 192.5 c 128,-1,42
 46 256 46 256 46 330 c 0,0,1
356 20 m 0,43,44
 417 20 417 20 461 52 c 1,45,-1
 461 610 l 1,46,47
 416 640 416 640 356 640 c 0,48,49
 307 640 307 640 268 618.5 c 128,-1,50
 229 597 229 597 202 556.5 c 128,-1,51
 175 516 175 516 160.5 458.5 c 128,-1,52
 146 401 146 401 146 330 c 256,53,54
 146 259 146 259 160.5 201.5 c 128,-1,55
 175 144 175 144 202 103.5 c 128,-1,56
 229 63 229 63 268 41.5 c 128,-1,57
 307 20 307 20 356 20 c 0,43,44
EndSplineSet
EndChar

StartChar: Ydieresis
Encoding: 376 376 124
Width: 628
Flags: W
LayerCount: 2
Fore
SplineSet
360 325 m 1,0,-1
 569 660 l 1,1,-1
 614 660 l 1,2,-1
 380 280 l 1,3,-1
 380 0 l 1,4,-1
 290 0 l 1,5,-1
 290 273 l 1,6,-1
 120 530 l 2,7,8
 105 552 105 552 90.5 571.5 c 128,-1,9
 76 591 76 591 59 605.5 c 128,-1,10
 42 620 42 620 21.5 629 c 128,-1,11
 1 638 1 638 -25 640 c 1,12,-1
 -25 660 l 1,13,-1
 65 660 l 2,14,15
 93 660 93 660 115 650.5 c 128,-1,16
 137 641 137 641 155 625.5 c 128,-1,17
 173 610 173 610 187.5 590.5 c 128,-1,18
 202 571 202 571 215 550 c 2,19,-1
 360 325 l 1,0,-1
485 740 m 256,20,21
 485 717 485 717 471.5 703.5 c 128,-1,22
 458 690 458 690 435 690 c 256,23,24
 412 690 412 690 398.5 703.5 c 128,-1,25
 385 717 385 717 385 740 c 256,26,27
 385 763 385 763 398.5 776.5 c 128,-1,28
 412 790 412 790 435 790 c 256,29,30
 458 790 458 790 471.5 776.5 c 128,-1,31
 485 763 485 763 485 740 c 256,20,21
315 740 m 256,32,33
 315 717 315 717 301.5 703.5 c 128,-1,34
 288 690 288 690 265 690 c 256,35,36
 242 690 242 690 228.5 703.5 c 128,-1,37
 215 717 215 717 215 740 c 256,38,39
 215 763 215 763 228.5 776.5 c 128,-1,40
 242 790 242 790 265 790 c 256,41,42
 288 790 288 790 301.5 776.5 c 128,-1,43
 315 763 315 763 315 740 c 256,32,33
EndSplineSet
EndChar

StartChar: oe
Encoding: 339 339 125
Width: 794
Flags: W
LayerCount: 2
Fore
SplineSet
747 220 m 1,0,-1
 449 220 l 1,1,2
 449 179 449 179 458 144 c 128,-1,3
 467 109 467 109 484.5 83.5 c 128,-1,4
 502 58 502 58 527 44 c 128,-1,5
 552 30 552 30 584 30 c 0,6,7
 633 30 633 30 665.5 51 c 128,-1,8
 698 72 698 72 724 110 c 1,9,-1
 744 95 l 1,10,11
 710 38 710 38 665.5 14 c 128,-1,12
 621 -10 621 -10 564 -10 c 0,13,14
 515 -10 515 -10 477.5 7 c 128,-1,15
 440 24 440 24 414 50 c 1,16,17
 388 24 388 24 350.5 7 c 128,-1,18
 313 -10 313 -10 264 -10 c 0,19,20
 211 -10 211 -10 170.5 9.5 c 128,-1,21
 130 29 130 29 101.5 62 c 128,-1,22
 73 95 73 95 58.5 139.5 c 128,-1,23
 44 184 44 184 44 235 c 256,24,25
 44 286 44 286 58.5 330.5 c 128,-1,26
 73 375 73 375 101.5 408 c 128,-1,27
 130 441 130 441 170.5 460.5 c 128,-1,28
 211 480 211 480 264 480 c 0,29,30
 361 480 361 480 415 421 c 1,31,32
 439 449 439 449 472.5 464.5 c 128,-1,33
 506 480 506 480 549 480 c 0,34,35
 651 480 651 480 700 423 c 128,-1,36
 749 366 749 366 749 260 c 1,37,-1
 747 220 l 1,0,-1
264 30 m 0,38,39
 302 30 302 30 328.5 55 c 128,-1,40
 355 80 355 80 374 125 c 1,41,42
 366 144 366 144 360 172.5 c 128,-1,43
 354 201 354 201 354 235 c 256,44,45
 354 269 354 269 360 297.5 c 128,-1,46
 366 326 366 326 374 345 c 1,47,48
 359 387 359 387 330.5 413.5 c 128,-1,49
 302 440 302 440 264 440 c 0,50,51
 236 440 236 440 213 424 c 128,-1,52
 190 408 190 408 173.5 380.5 c 128,-1,53
 157 353 157 353 148 315.5 c 128,-1,54
 139 278 139 278 139 235 c 256,55,56
 139 192 139 192 148 154.5 c 128,-1,57
 157 117 157 117 173.5 89.5 c 128,-1,58
 190 62 190 62 213 46 c 128,-1,59
 236 30 236 30 264 30 c 0,38,39
659 260 m 1,60,61
 659 343 659 343 633 389 c 128,-1,62
 607 435 607 435 554 435 c 0,63,64
 531 435 531 435 512 421.5 c 128,-1,65
 493 408 493 408 479 385 c 128,-1,66
 465 362 465 362 457 329.5 c 128,-1,67
 449 297 449 297 449 260 c 1,68,-1
 659 260 l 1,60,61
EndSplineSet
EndChar

StartChar: ordmasculine
Encoding: 186 186 126
Width: 335
Flags: W
LayerCount: 2
Fore
SplineSet
167 667 m 0,0,1
 137 667 137 667 120.5 634 c 128,-1,2
 104 601 104 601 104 528 c 0,3,4
 104 456 104 456 120.5 422.5 c 128,-1,5
 137 389 137 389 167 389 c 0,6,7
 199 389 199 389 215 422.5 c 128,-1,8
 231 456 231 456 231 528 c 0,9,10
 231 601 231 601 214.5 634 c 128,-1,11
 198 667 198 667 167 667 c 0,0,1
167 689 m 256,12,13
 227 689 227 689 255 645 c 128,-1,14
 283 601 283 601 283 528 c 0,15,16
 283 456 283 456 255 411.5 c 128,-1,17
 227 367 227 367 167 367 c 256,18,19
 107 367 107 367 79.5 411.5 c 128,-1,20
 52 456 52 456 52 528 c 0,21,22
 52 601 52 601 79.5 645 c 128,-1,23
 107 689 107 689 167 689 c 256,12,13
EndSplineSet
EndChar

StartChar: mu
Encoding: 181 181 127
Width: 529
Flags: W
LayerCount: 2
Fore
SplineSet
74 -190 m 1,0,-1
 74 470 l 1,1,-1
 164 470 l 1,2,-1
 164 235 l 2,3,4
 164 192 164 192 170.5 154.5 c 128,-1,5
 177 117 177 117 191.5 89.5 c 128,-1,6
 206 62 206 62 227.5 46 c 128,-1,7
 249 30 249 30 279 30 c 0,8,9
 320 30 320 30 344.5 48.5 c 128,-1,10
 369 67 369 67 384 90 c 1,11,-1
 384 470 l 1,12,-1
 474 470 l 1,13,-1
 474 0 l 1,14,-1
 424 0 l 1,15,-1
 389 45 l 1,16,-1
 384 45 l 1,17,18
 376 36 376 36 366.5 26 c 128,-1,19
 357 16 357 16 343.5 8 c 128,-1,20
 330 0 330 0 311.5 -5 c 128,-1,21
 293 -10 293 -10 269 -10 c 0,22,23
 209 -10 209 -10 164 35 c 1,24,-1
 164 -190 l 1,25,-1
 74 -190 l 1,0,-1
EndSplineSet
EndChar

StartChar: ordfeminine
Encoding: 170 170 128
Width: 321
Flags: W
LayerCount: 2
Fore
SplineSet
205 525 m 1,0,-1
 189 525 l 2,1,2
 148 525 148 525 125.5 508 c 128,-1,3
 103 491 103 491 103 466 c 0,4,5
 103 440 103 440 116 429 c 128,-1,6
 129 418 129 418 149 418 c 256,7,8
 169 418 169 418 183 429.5 c 128,-1,9
 197 441 197 441 205 453 c 1,10,-1
 205 525 l 1,0,-1
227 401 m 1,11,-1
 208 426 l 1,12,-1
 205 426 l 1,13,14
 197 415 197 415 178.5 405.5 c 128,-1,15
 160 396 160 396 130 396 c 0,16,17
 119 396 119 396 105 398.5 c 128,-1,18
 91 401 91 401 79 408.5 c 128,-1,19
 67 416 67 416 59 430 c 128,-1,20
 51 444 51 444 51 466 c 256,21,22
 51 488 51 488 62.5 503.5 c 128,-1,23
 74 519 74 519 93 529 c 128,-1,24
 112 539 112 539 137 543 c 128,-1,25
 162 547 162 547 189 547 c 2,26,-1
 205 547 l 1,27,28
 205 575 205 575 200.5 593 c 128,-1,29
 196 611 196 611 188.5 621 c 128,-1,30
 181 631 181 631 171 634.5 c 128,-1,31
 161 638 161 638 149 638 c 0,32,33
 126 638 126 638 111 628.5 c 128,-1,34
 96 619 96 619 90 593 c 1,35,-1
 65 593 l 1,36,37
 65 607 65 607 66.5 618.5 c 128,-1,38
 68 630 68 630 79 641 c 0,39,40
 89 652 89 652 112 656 c 128,-1,41
 135 660 135 660 159 660 c 0,42,43
 177 660 177 660 195 656 c 128,-1,44
 213 652 213 652 226.5 640 c 128,-1,45
 240 628 240 628 248.5 605.5 c 128,-1,46
 257 583 257 583 257 547 c 2,47,-1
 257 401 l 1,48,-1
 227 401 l 1,11,-1
EndSplineSet
EndChar

StartChar: dieresis
Encoding: 168 168 129
Width: 310
Flags: W
LayerCount: 2
Fore
SplineSet
290 740 m 256,0,1
 290 717 290 717 276.5 703.5 c 128,-1,2
 263 690 263 690 240 690 c 256,3,4
 217 690 217 690 203.5 703.5 c 128,-1,5
 190 717 190 717 190 740 c 256,6,7
 190 763 190 763 203.5 776.5 c 128,-1,8
 217 790 217 790 240 790 c 256,9,10
 263 790 263 790 276.5 776.5 c 128,-1,11
 290 763 290 763 290 740 c 256,0,1
120 740 m 256,12,13
 120 717 120 717 106.5 703.5 c 128,-1,14
 93 690 93 690 70 690 c 256,15,16
 47 690 47 690 33.5 703.5 c 128,-1,17
 20 717 20 717 20 740 c 256,18,19
 20 763 20 763 33.5 776.5 c 128,-1,20
 47 790 47 790 70 790 c 256,21,22
 93 790 93 790 106.5 776.5 c 128,-1,23
 120 763 120 763 120 740 c 256,12,13
EndSplineSet
EndChar

StartChar: circumflex
Encoding: 710 710 130
Width: 310
Flags: W
LayerCount: 2
Fore
SplineSet
155 740 m 1,0,-1
 70 660 l 1,1,-1
 20 660 l 1,2,-1
 100 775 l 1,3,-1
 210 775 l 1,4,-1
 290 660 l 1,5,-1
 240 660 l 1,6,-1
 155 740 l 1,0,-1
EndSplineSet
EndChar

StartChar: acute
Encoding: 180 180 131
Width: 175
Flags: W
LayerCount: 2
Fore
SplineSet
60 700 m 1,0,-1
 20 700 l 1,1,-1
 60 830 l 1,2,-1
 155 830 l 1,3,-1
 60 700 l 1,0,-1
EndSplineSet
EndChar

StartChar: cedilla
Encoding: 184 184 132
Width: 180
Flags: W
LayerCount: 2
Fore
SplineSet
90 0 m 1,0,-1
 90 -50 l 1,1,-1
 100 -50 l 2,2,3
 134 -50 134 -50 157 -68.5 c 128,-1,4
 180 -87 180 -87 180 -123 c 0,5,6
 180 -158 180 -158 157 -177 c 128,-1,7
 134 -196 134 -196 100 -196 c 2,8,-1
 40 -196 l 1,9,-1
 40 -155 l 1,10,-1
 90 -155 l 2,11,12
 130 -155 130 -155 130 -123 c 0,13,14
 130 -90 130 -90 90 -90 c 2,15,-1
 45 -90 l 1,16,-1
 45 0 l 1,17,-1
 90 0 l 1,0,-1
EndSplineSet
EndChar

StartChar: tilde
Encoding: 732 732 133
Width: 265
Flags: W
LayerCount: 2
Fore
SplineSet
20 680 m 1,0,1
 20 733 20 733 35 754 c 128,-1,2
 50 775 50 775 80 775 c 0,3,4
 96 775 96 775 109 768.5 c 128,-1,5
 122 762 122 762 134 754.5 c 128,-1,6
 146 747 146 747 158 741 c 128,-1,7
 170 735 170 735 185 735 c 0,8,9
 196 735 196 735 205.5 749.5 c 128,-1,10
 215 764 215 764 215 775 c 1,11,-1
 245 775 l 1,12,13
 245 722 245 722 230 701 c 128,-1,14
 215 680 215 680 185 680 c 0,15,16
 169 680 169 680 156.5 686 c 128,-1,17
 144 692 144 692 132 699.5 c 128,-1,18
 120 707 120 707 107.5 713.5 c 128,-1,19
 95 720 95 720 80 720 c 0,20,21
 69 720 69 720 59.5 705.5 c 128,-1,22
 50 691 50 691 50 680 c 1,23,-1
 20 680 l 1,0,1
EndSplineSet
EndChar

StartChar: periodcentered
Encoding: 183 183 134
Width: 230
Flags: W
LayerCount: 2
Fore
SplineSet
115 385 m 0,0,1
 138 385 138 385 153.5 369 c 128,-1,2
 169 353 169 353 169 331 c 0,3,4
 169 308 169 308 153 292 c 128,-1,5
 137 276 137 276 115 276 c 256,6,7
 93 276 93 276 77 292 c 128,-1,8
 61 308 61 308 61 331 c 0,9,10
 61 353 61 353 77 369 c 128,-1,11
 93 385 93 385 115 385 c 0,0,1
EndSplineSet
EndChar

StartChar: Agrave
Encoding: 192 192 138
Width: 635
Flags: W
LayerCount: 2
Fore
SplineSet
662 0 m 1,0,1
 645 -5 645 -5 622 -5 c 0,2,3
 605 -5 605 -5 582.5 -1 c 128,-1,4
 560 3 560 3 536.5 16.5 c 128,-1,5
 513 30 513 30 490.5 56 c 128,-1,6
 468 82 468 82 452 125 c 2,7,-1
 427 190 l 1,8,-1
 147 190 l 1,9,-1
 67 0 l 1,10,-1
 22 0 l 1,11,-1
 302 660 l 1,12,-1
 332 660 l 1,13,-1
 552 125 l 2,14,15
 564 97 564 97 574.5 77.5 c 128,-1,16
 585 58 585 58 598 46 c 128,-1,17
 611 34 611 34 626 28 c 128,-1,18
 641 22 641 22 662 20 c 1,19,-1
 662 0 l 1,0,1
162 230 m 1,20,-1
 407 230 l 1,21,-1
 287 520 l 1,22,-1
 162 230 l 1,20,-1
202 830 m 1,23,-1
 297 830 l 1,24,-1
 337 700 l 1,25,-1
 297 700 l 1,26,-1
 202 830 l 1,23,-1
EndSplineSet
EndChar

StartChar: Aacute
Encoding: 193 193 139
Width: 635
Flags: W
LayerCount: 2
Fore
SplineSet
662 0 m 1,0,1
 645 -5 645 -5 622 -5 c 0,2,3
 605 -5 605 -5 582.5 -1 c 128,-1,4
 560 3 560 3 536.5 16.5 c 128,-1,5
 513 30 513 30 490.5 56 c 128,-1,6
 468 82 468 82 452 125 c 2,7,-1
 427 190 l 1,8,-1
 147 190 l 1,9,-1
 67 0 l 1,10,-1
 22 0 l 1,11,-1
 302 660 l 1,12,-1
 332 660 l 1,13,-1
 552 125 l 2,14,15
 564 97 564 97 574.5 77.5 c 128,-1,16
 585 58 585 58 598 46 c 128,-1,17
 611 34 611 34 626 28 c 128,-1,18
 641 22 641 22 662 20 c 1,19,-1
 662 0 l 1,0,1
162 230 m 1,20,-1
 407 230 l 1,21,-1
 287 520 l 1,22,-1
 162 230 l 1,20,-1
342 700 m 1,23,-1
 302 700 l 1,24,-1
 342 830 l 1,25,-1
 437 830 l 1,26,-1
 342 700 l 1,23,-1
EndSplineSet
EndChar

StartChar: Acircumflex
Encoding: 194 194 140
Width: 635
Flags: W
LayerCount: 2
Fore
SplineSet
662 0 m 1,0,1
 645 -5 645 -5 622 -5 c 0,2,3
 605 -5 605 -5 582.5 -1 c 128,-1,4
 560 3 560 3 536.5 16.5 c 128,-1,5
 513 30 513 30 490.5 56 c 128,-1,6
 468 82 468 82 452 125 c 2,7,-1
 427 190 l 1,8,-1
 147 190 l 1,9,-1
 67 0 l 1,10,-1
 22 0 l 1,11,-1
 302 660 l 1,12,-1
 332 660 l 1,13,-1
 552 125 l 2,14,15
 564 97 564 97 574.5 77.5 c 128,-1,16
 585 58 585 58 598 46 c 128,-1,17
 611 34 611 34 626 28 c 128,-1,18
 641 22 641 22 662 20 c 1,19,-1
 662 0 l 1,0,1
162 230 m 1,20,-1
 407 230 l 1,21,-1
 287 520 l 1,22,-1
 162 230 l 1,20,-1
317 765 m 1,23,-1
 232 685 l 1,24,-1
 182 685 l 1,25,-1
 262 800 l 1,26,-1
 372 800 l 1,27,-1
 452 685 l 1,28,-1
 402 685 l 1,29,-1
 317 765 l 1,23,-1
EndSplineSet
EndChar

StartChar: Atilde
Encoding: 195 195 141
Width: 635
Flags: W
LayerCount: 2
Fore
SplineSet
662 0 m 1,0,1
 645 -5 645 -5 622 -5 c 0,2,3
 605 -5 605 -5 582.5 -1 c 128,-1,4
 560 3 560 3 536.5 16.5 c 128,-1,5
 513 30 513 30 490.5 56 c 128,-1,6
 468 82 468 82 452 125 c 2,7,-1
 427 190 l 1,8,-1
 147 190 l 1,9,-1
 67 0 l 1,10,-1
 22 0 l 1,11,-1
 302 660 l 1,12,-1
 332 660 l 1,13,-1
 552 125 l 2,14,15
 564 97 564 97 574.5 77.5 c 128,-1,16
 585 58 585 58 598 46 c 128,-1,17
 611 34 611 34 626 28 c 128,-1,18
 641 22 641 22 662 20 c 1,19,-1
 662 0 l 1,0,1
162 230 m 1,20,-1
 407 230 l 1,21,-1
 287 520 l 1,22,-1
 162 230 l 1,20,-1
209 700 m 1,23,24
 209 753 209 753 224 774 c 128,-1,25
 239 795 239 795 269 795 c 0,26,27
 285 795 285 795 298 788.5 c 128,-1,28
 311 782 311 782 323 774.5 c 128,-1,29
 335 767 335 767 347 761 c 128,-1,30
 359 755 359 755 374 755 c 0,31,32
 385 755 385 755 394.5 769.5 c 128,-1,33
 404 784 404 784 404 795 c 1,34,-1
 434 795 l 1,35,36
 434 742 434 742 419 721 c 128,-1,37
 404 700 404 700 374 700 c 0,38,39
 358 700 358 700 345.5 706 c 128,-1,40
 333 712 333 712 321 719.5 c 128,-1,41
 309 727 309 727 296.5 733.5 c 128,-1,42
 284 740 284 740 269 740 c 0,43,44
 258 740 258 740 248.5 725.5 c 128,-1,45
 239 711 239 711 239 700 c 1,46,-1
 209 700 l 1,23,24
EndSplineSet
EndChar

StartChar: Adieresis
Encoding: 196 196 142
Width: 635
Flags: W
LayerCount: 2
Fore
SplineSet
662 0 m 1,0,1
 645 -5 645 -5 622 -5 c 0,2,3
 605 -5 605 -5 582.5 -1 c 128,-1,4
 560 3 560 3 536.5 16.5 c 128,-1,5
 513 30 513 30 490.5 56 c 128,-1,6
 468 82 468 82 452 125 c 2,7,-1
 427 190 l 1,8,-1
 147 190 l 1,9,-1
 67 0 l 1,10,-1
 22 0 l 1,11,-1
 302 660 l 1,12,-1
 332 660 l 1,13,-1
 552 125 l 2,14,15
 564 97 564 97 574.5 77.5 c 128,-1,16
 585 58 585 58 598 46 c 128,-1,17
 611 34 611 34 626 28 c 128,-1,18
 641 22 641 22 662 20 c 1,19,-1
 662 0 l 1,0,1
162 230 m 1,20,-1
 407 230 l 1,21,-1
 287 520 l 1,22,-1
 162 230 l 1,20,-1
452 740 m 256,23,24
 452 717 452 717 438.5 703.5 c 128,-1,25
 425 690 425 690 402 690 c 256,26,27
 379 690 379 690 365.5 703.5 c 128,-1,28
 352 717 352 717 352 740 c 256,29,30
 352 763 352 763 365.5 776.5 c 128,-1,31
 379 790 379 790 402 790 c 256,32,33
 425 790 425 790 438.5 776.5 c 128,-1,34
 452 763 452 763 452 740 c 256,23,24
282 740 m 256,35,36
 282 717 282 717 268.5 703.5 c 128,-1,37
 255 690 255 690 232 690 c 256,38,39
 209 690 209 690 195.5 703.5 c 128,-1,40
 182 717 182 717 182 740 c 256,41,42
 182 763 182 763 195.5 776.5 c 128,-1,43
 209 790 209 790 232 790 c 256,44,45
 255 790 255 790 268.5 776.5 c 128,-1,46
 282 763 282 763 282 740 c 256,35,36
EndSplineSet
EndChar

StartChar: Aring
Encoding: 197 197 143
Width: 636
Flags: W
LayerCount: 2
Fore
SplineSet
232 705 m 0,0,1
 232 722 232 722 239 737.5 c 128,-1,2
 246 753 246 753 257.5 764.5 c 128,-1,3
 269 776 269 776 284.5 783 c 128,-1,4
 300 790 300 790 317 790 c 256,5,6
 334 790 334 790 349.5 783 c 128,-1,7
 365 776 365 776 376.5 764.5 c 128,-1,8
 388 753 388 753 395 737.5 c 128,-1,9
 402 722 402 722 402 705 c 0,10,11
 402 671 402 671 384 652 c 128,-1,12
 366 633 366 633 347 625 c 1,13,-1
 552 125 l 2,14,15
 564 97 564 97 574.5 77.5 c 128,-1,16
 585 58 585 58 598 46 c 128,-1,17
 611 34 611 34 626 28 c 128,-1,18
 641 22 641 22 662 20 c 1,19,-1
 662 0 l 1,20,21
 645 -5 645 -5 622 -5 c 0,22,23
 605 -5 605 -5 582.5 -1 c 128,-1,24
 560 3 560 3 536.5 16.5 c 128,-1,25
 513 30 513 30 490.5 56 c 128,-1,26
 468 82 468 82 452 125 c 2,27,-1
 427 190 l 1,28,-1
 147 190 l 1,29,-1
 67 0 l 1,30,-1
 22 0 l 1,31,-1
 287 625 l 1,32,33
 268 633 268 633 250 652 c 128,-1,34
 232 671 232 671 232 705 c 0,0,1
162 230 m 1,35,-1
 407 230 l 1,36,-1
 287 520 l 1,37,-1
 162 230 l 1,35,-1
272 705 m 0,38,39
 272 690 272 690 279 679 c 128,-1,40
 286 668 286 668 297 660 c 1,41,-1
 337 660 l 1,42,43
 348 668 348 668 355 679 c 128,-1,44
 362 690 362 690 362 705 c 0,45,46
 362 728 362 728 349 741.5 c 128,-1,47
 336 755 336 755 317 755 c 256,48,49
 298 755 298 755 285 741.5 c 128,-1,50
 272 728 272 728 272 705 c 0,38,39
EndSplineSet
EndChar

StartChar: AE
Encoding: 198 198 144
Width: 865
Flags: W
LayerCount: 2
Fore
SplineSet
717 660 m 2,0,1
 743 660 743 660 759.5 653 c 128,-1,2
 776 646 776 646 785.5 635 c 128,-1,3
 795 624 795 624 798.5 609.5 c 128,-1,4
 802 595 802 595 802 580 c 2,5,-1
 802 505 l 1,6,-1
 782 505 l 1,7,8
 782 565 782 565 749.5 592.5 c 128,-1,9
 717 620 717 620 657 620 c 2,10,-1
 471 620 l 1,11,-1
 471 360 l 1,12,-1
 741 360 l 1,13,-1
 741 320 l 1,14,-1
 471 320 l 1,15,-1
 471 40 l 1,16,-1
 646 40 l 2,17,18
 714 40 714 40 753.5 65 c 128,-1,19
 793 90 793 90 816 150 c 1,20,-1
 836 145 l 1,21,-1
 801 50 l 2,22,23
 793 27 793 27 774.5 13.5 c 128,-1,24
 756 0 756 0 726 0 c 2,25,-1
 381 0 l 1,26,-1
 381 190 l 1,27,-1
 141 190 l 1,28,-1
 36 0 l 1,29,-1
 -14 0 l 1,30,-1
 356 660 l 1,31,-1
 717 660 l 2,0,1
166 230 m 1,32,-1
 381 230 l 1,33,-1
 381 615 l 1,34,-1
 166 230 l 1,32,-1
EndSplineSet
EndChar

StartChar: Ccedilla
Encoding: 199 199 145
Width: 668
Flags: W
LayerCount: 2
Fore
SplineSet
326 -196 m 1,0,-1
 326 -155 l 1,1,-1
 376 -155 l 2,2,3
 416 -155 416 -155 416 -123 c 0,4,5
 416 -90 416 -90 376 -90 c 2,6,-1
 331 -90 l 1,7,-1
 331 -20 l 1,8,9
 265 -16 265 -16 212.5 11.5 c 128,-1,10
 160 39 160 39 123 85 c 128,-1,11
 86 131 86 131 66 191 c 128,-1,12
 46 251 46 251 46 320 c 0,13,14
 46 395 46 395 70.5 460.5 c 128,-1,15
 95 526 95 526 137 575 c 128,-1,16
 179 624 179 624 235.5 652 c 128,-1,17
 292 680 292 680 356 680 c 0,18,19
 439 680 439 680 499 656.5 c 128,-1,20
 559 633 559 633 586 600 c 0,21,22
 605 577 605 577 608 536 c 128,-1,23
 611 495 611 495 611 450 c 1,24,-1
 591 450 l 1,25,26
 572 548 572 548 520.5 594 c 128,-1,27
 469 640 469 640 386 640 c 0,28,29
 337 640 337 640 293.5 623.5 c 128,-1,30
 250 607 250 607 217 569.5 c 128,-1,31
 184 532 184 532 165 471 c 128,-1,32
 146 410 146 410 146 320 c 0,33,34
 146 264 146 264 159.5 210 c 128,-1,35
 173 156 173 156 202 114 c 128,-1,36
 231 72 231 72 276.5 46 c 128,-1,37
 322 20 322 20 386 20 c 0,38,39
 461 20 461 20 515 56 c 128,-1,40
 569 92 569 92 611 160 c 1,41,-1
 631 145 l 1,42,43
 608 101 608 101 580.5 70.5 c 128,-1,44
 553 40 553 40 521.5 20.5 c 128,-1,45
 490 1 490 1 453.5 -8.5 c 128,-1,46
 417 -18 417 -18 376 -20 c 1,47,-1
 376 -50 l 1,48,-1
 386 -50 l 2,49,50
 420 -50 420 -50 443 -68.5 c 128,-1,51
 466 -87 466 -87 466 -123 c 0,52,53
 466 -158 466 -158 443 -177 c 128,-1,54
 420 -196 420 -196 386 -196 c 2,55,-1
 326 -196 l 1,0,-1
EndSplineSet
EndChar

StartChar: Egrave
Encoding: 200 200 146
Width: 590
Flags: W
LayerCount: 2
Fore
SplineSet
442 660 m 2,0,1
 468 660 468 660 484.5 653 c 128,-1,2
 501 646 501 646 510.5 635 c 128,-1,3
 520 624 520 624 523.5 609.5 c 128,-1,4
 527 595 527 595 527 580 c 2,5,-1
 527 505 l 1,6,-1
 507 505 l 1,7,8
 507 565 507 565 474.5 592.5 c 128,-1,9
 442 620 442 620 382 620 c 2,10,-1
 196 620 l 1,11,-1
 196 360 l 1,12,-1
 466 360 l 1,13,-1
 466 320 l 1,14,-1
 196 320 l 1,15,-1
 196 40 l 1,16,-1
 371 40 l 2,17,18
 439 40 439 40 478.5 65 c 128,-1,19
 518 90 518 90 541 150 c 1,20,-1
 561 145 l 1,21,-1
 526 50 l 2,22,23
 518 27 518 27 499.5 13.5 c 128,-1,24
 481 0 481 0 451 0 c 2,25,-1
 106 0 l 1,26,-1
 106 540 l 2,27,28
 106 585 106 585 93.5 612.5 c 128,-1,29
 81 640 81 640 36 640 c 2,30,-1
 16 640 l 1,31,-1
 16 660 l 1,32,-1
 442 660 l 2,0,1
196 830 m 1,33,-1
 291 830 l 1,34,-1
 331 700 l 1,35,-1
 291 700 l 1,36,-1
 196 830 l 1,33,-1
EndSplineSet
EndChar

StartChar: Eacute
Encoding: 201 201 147
Width: 590
Flags: W
LayerCount: 2
Fore
SplineSet
442 660 m 2,0,1
 468 660 468 660 484.5 653 c 128,-1,2
 501 646 501 646 510.5 635 c 128,-1,3
 520 624 520 624 523.5 609.5 c 128,-1,4
 527 595 527 595 527 580 c 2,5,-1
 527 505 l 1,6,-1
 507 505 l 1,7,8
 507 565 507 565 474.5 592.5 c 128,-1,9
 442 620 442 620 382 620 c 2,10,-1
 196 620 l 1,11,-1
 196 360 l 1,12,-1
 466 360 l 1,13,-1
 466 320 l 1,14,-1
 196 320 l 1,15,-1
 196 40 l 1,16,-1
 371 40 l 2,17,18
 439 40 439 40 478.5 65 c 128,-1,19
 518 90 518 90 541 150 c 1,20,-1
 561 145 l 1,21,-1
 526 50 l 2,22,23
 518 27 518 27 499.5 13.5 c 128,-1,24
 481 0 481 0 451 0 c 2,25,-1
 106 0 l 1,26,-1
 106 540 l 2,27,28
 106 585 106 585 93.5 612.5 c 128,-1,29
 81 640 81 640 36 640 c 2,30,-1
 16 640 l 1,31,-1
 16 660 l 1,32,-1
 442 660 l 2,0,1
316 700 m 1,33,-1
 276 700 l 1,34,-1
 316 830 l 1,35,-1
 411 830 l 1,36,-1
 316 700 l 1,33,-1
EndSplineSet
EndChar

StartChar: Ecircumflex
Encoding: 202 202 148
Width: 590
Flags: W
LayerCount: 2
Fore
SplineSet
442 660 m 2,0,1
 468 660 468 660 484.5 653 c 128,-1,2
 501 646 501 646 510.5 635 c 128,-1,3
 520 624 520 624 523.5 609.5 c 128,-1,4
 527 595 527 595 527 580 c 2,5,-1
 527 505 l 1,6,-1
 507 505 l 1,7,8
 507 565 507 565 474.5 592.5 c 128,-1,9
 442 620 442 620 382 620 c 2,10,-1
 196 620 l 1,11,-1
 196 360 l 1,12,-1
 466 360 l 1,13,-1
 466 320 l 1,14,-1
 196 320 l 1,15,-1
 196 40 l 1,16,-1
 371 40 l 2,17,18
 439 40 439 40 478.5 65 c 128,-1,19
 518 90 518 90 541 150 c 1,20,-1
 561 145 l 1,21,-1
 526 50 l 2,22,23
 518 27 518 27 499.5 13.5 c 128,-1,24
 481 0 481 0 451 0 c 2,25,-1
 106 0 l 1,26,-1
 106 540 l 2,27,28
 106 585 106 585 93.5 612.5 c 128,-1,29
 81 640 81 640 36 640 c 2,30,-1
 16 640 l 1,31,-1
 16 660 l 1,32,-1
 442 660 l 2,0,1
301 801 m 1,33,-1
 216 721 l 1,34,-1
 166 721 l 1,35,-1
 246 836 l 1,36,-1
 356 836 l 1,37,-1
 436 721 l 1,38,-1
 386 721 l 1,39,-1
 301 801 l 1,33,-1
EndSplineSet
EndChar

StartChar: Edieresis
Encoding: 203 203 149
Width: 590
Flags: W
LayerCount: 2
Fore
SplineSet
251 780 m 256,0,1
 251 757 251 757 237.5 743.5 c 128,-1,2
 224 730 224 730 201 730 c 256,3,4
 178 730 178 730 164.5 743.5 c 128,-1,5
 151 757 151 757 151 780 c 256,6,7
 151 803 151 803 164.5 816.5 c 128,-1,8
 178 830 178 830 201 830 c 256,9,10
 224 830 224 830 237.5 816.5 c 128,-1,11
 251 803 251 803 251 780 c 256,0,1
431 780 m 256,12,13
 431 757 431 757 417.5 743.5 c 128,-1,14
 404 730 404 730 381 730 c 256,15,16
 358 730 358 730 344.5 743.5 c 128,-1,17
 331 757 331 757 331 780 c 256,18,19
 331 803 331 803 344.5 816.5 c 128,-1,20
 358 830 358 830 381 830 c 256,21,22
 404 830 404 830 417.5 816.5 c 128,-1,23
 431 803 431 803 431 780 c 256,12,13
442 660 m 2,24,25
 468 660 468 660 484.5 653 c 128,-1,26
 501 646 501 646 510.5 635 c 128,-1,27
 520 624 520 624 523.5 609.5 c 128,-1,28
 527 595 527 595 527 580 c 2,29,-1
 527 505 l 1,30,-1
 507 505 l 1,31,32
 507 565 507 565 474.5 592.5 c 128,-1,33
 442 620 442 620 382 620 c 2,34,-1
 196 620 l 1,35,-1
 196 360 l 1,36,-1
 466 360 l 1,37,-1
 466 320 l 1,38,-1
 196 320 l 1,39,-1
 196 40 l 1,40,-1
 371 40 l 2,41,42
 439 40 439 40 478.5 65 c 128,-1,43
 518 90 518 90 541 150 c 1,44,-1
 561 145 l 1,45,-1
 526 50 l 2,46,47
 518 27 518 27 499.5 13.5 c 128,-1,48
 481 0 481 0 451 0 c 2,49,-1
 106 0 l 1,50,-1
 106 540 l 2,51,52
 106 585 106 585 93.5 612.5 c 128,-1,53
 81 640 81 640 36 640 c 2,54,-1
 16 640 l 1,55,-1
 16 660 l 1,56,-1
 442 660 l 2,24,25
EndSplineSet
EndChar

StartChar: Igrave
Encoding: 204 204 150
Width: 285
Flags: W
LayerCount: 2
Fore
SplineSet
89 660 m 1,0,-1
 179 660 l 1,1,-1
 179 120 l 2,2,3
 179 75 179 75 191.5 47.5 c 128,-1,4
 204 20 204 20 249 20 c 2,5,-1
 269 20 l 1,6,-1
 269 0 l 1,7,-1
 179 0 l 2,8,9
 153 0 153 0 135.5 4.5 c 128,-1,10
 118 9 118 9 107.5 22.5 c 128,-1,11
 97 36 97 36 93 59 c 128,-1,12
 89 82 89 82 89 120 c 2,13,-1
 89 660 l 1,0,-1
30 830 m 1,14,-1
 125 830 l 1,15,-1
 165 700 l 1,16,-1
 125 700 l 1,17,-1
 30 830 l 1,14,-1
EndSplineSet
EndChar

StartChar: Iacute
Encoding: 205 205 151
Width: 285
Flags: W
LayerCount: 2
Fore
SplineSet
89 660 m 1,0,-1
 179 660 l 1,1,-1
 179 120 l 2,2,3
 179 75 179 75 191.5 47.5 c 128,-1,4
 204 20 204 20 249 20 c 2,5,-1
 269 20 l 1,6,-1
 269 0 l 1,7,-1
 179 0 l 2,8,9
 153 0 153 0 135.5 4.5 c 128,-1,10
 118 9 118 9 107.5 22.5 c 128,-1,11
 97 36 97 36 93 59 c 128,-1,12
 89 82 89 82 89 120 c 2,13,-1
 89 660 l 1,0,-1
149 700 m 1,14,-1
 109 700 l 1,15,-1
 149 830 l 1,16,-1
 244 830 l 1,17,-1
 149 700 l 1,14,-1
EndSplineSet
EndChar

StartChar: Icircumflex
Encoding: 206 206 152
Width: 285
Flags: W
LayerCount: 2
Fore
SplineSet
89 660 m 1,0,-1
 179 660 l 1,1,-1
 179 120 l 2,2,3
 179 75 179 75 191.5 47.5 c 128,-1,4
 204 20 204 20 249 20 c 2,5,-1
 269 20 l 1,6,-1
 269 0 l 1,7,-1
 179 0 l 2,8,9
 153 0 153 0 135.5 4.5 c 128,-1,10
 118 9 118 9 107.5 22.5 c 128,-1,11
 97 36 97 36 93 59 c 128,-1,12
 89 82 89 82 89 120 c 2,13,-1
 89 660 l 1,0,-1
134 775 m 1,14,-1
 49 695 l 1,15,-1
 -1 695 l 1,16,-1
 79 810 l 1,17,-1
 189 810 l 1,18,-1
 269 695 l 1,19,-1
 219 695 l 1,20,-1
 134 775 l 1,14,-1
EndSplineSet
EndChar

StartChar: Idieresis
Encoding: 207 207 153
Width: 285
Flags: W
LayerCount: 2
Fore
SplineSet
89 660 m 1,0,-1
 179 660 l 1,1,-1
 179 120 l 2,2,3
 179 75 179 75 191.5 47.5 c 128,-1,4
 204 20 204 20 249 20 c 2,5,-1
 269 20 l 1,6,-1
 269 0 l 1,7,-1
 179 0 l 2,8,9
 153 0 153 0 135.5 4.5 c 128,-1,10
 118 9 118 9 107.5 22.5 c 128,-1,11
 97 36 97 36 93 59 c 128,-1,12
 89 82 89 82 89 120 c 2,13,-1
 89 660 l 1,0,-1
261 765 m 256,14,15
 261 742 261 742 247.5 728.5 c 128,-1,16
 234 715 234 715 211 715 c 256,17,18
 188 715 188 715 174.5 728.5 c 128,-1,19
 161 742 161 742 161 765 c 256,20,21
 161 788 161 788 174.5 801.5 c 128,-1,22
 188 815 188 815 211 815 c 256,23,24
 234 815 234 815 247.5 801.5 c 128,-1,25
 261 788 261 788 261 765 c 256,14,15
107 765 m 256,26,27
 107 742 107 742 93.5 728.5 c 128,-1,28
 80 715 80 715 57 715 c 256,29,30
 34 715 34 715 20.5 728.5 c 128,-1,31
 7 742 7 742 7 765 c 256,32,33
 7 788 7 788 20.5 801.5 c 128,-1,34
 34 815 34 815 57 815 c 256,35,36
 80 815 80 815 93.5 801.5 c 128,-1,37
 107 788 107 788 107 765 c 256,26,27
EndSplineSet
EndChar

StartChar: Ntilde
Encoding: 209 209 154
Width: 685
Flags: W
LayerCount: 2
Fore
SplineSet
110 540 m 2,0,1
 110 585 110 585 91 612.5 c 128,-1,2
 72 640 72 640 20 640 c 2,3,-1
 10 640 l 1,4,-1
 10 660 l 1,5,-1
 75 660 l 2,6,7
 124 660 124 660 155.5 644 c 128,-1,8
 187 628 187 628 210 600 c 2,9,-1
 560 165 l 1,10,-1
 560 660 l 1,11,-1
 600 660 l 1,12,-1
 600 -10 l 1,13,-1
 580 -10 l 1,14,-1
 150 525 l 1,15,-1
 150 0 l 1,16,-1
 110 0 l 1,17,-1
 110 540 l 2,0,1
237 694 m 1,18,19
 237 747 237 747 252 768 c 128,-1,20
 267 789 267 789 297 789 c 0,21,22
 313 789 313 789 326 782.5 c 128,-1,23
 339 776 339 776 351 768.5 c 128,-1,24
 363 761 363 761 375 755 c 128,-1,25
 387 749 387 749 402 749 c 0,26,27
 413 749 413 749 422.5 763.5 c 128,-1,28
 432 778 432 778 432 789 c 1,29,-1
 462 789 l 1,30,31
 462 736 462 736 447 715 c 128,-1,32
 432 694 432 694 402 694 c 0,33,34
 386 694 386 694 373.5 700 c 128,-1,35
 361 706 361 706 349 713.5 c 128,-1,36
 337 721 337 721 324.5 727.5 c 128,-1,37
 312 734 312 734 297 734 c 0,38,39
 286 734 286 734 276.5 719.5 c 128,-1,40
 267 705 267 705 267 694 c 1,41,-1
 237 694 l 1,18,19
EndSplineSet
EndChar

StartChar: Ograve
Encoding: 210 210 155
Width: 712
Flags: W
LayerCount: 2
Fore
SplineSet
566 330 m 256,0,1
 566 401 566 401 551.5 458.5 c 128,-1,2
 537 516 537 516 510 556.5 c 128,-1,3
 483 597 483 597 444 618.5 c 128,-1,4
 405 640 405 640 356 640 c 256,5,6
 307 640 307 640 268 618.5 c 128,-1,7
 229 597 229 597 202 556.5 c 128,-1,8
 175 516 175 516 160.5 458.5 c 128,-1,9
 146 401 146 401 146 330 c 256,10,11
 146 259 146 259 160.5 201.5 c 128,-1,12
 175 144 175 144 202 103.5 c 128,-1,13
 229 63 229 63 268 41.5 c 128,-1,14
 307 20 307 20 356 20 c 256,15,16
 405 20 405 20 444 41.5 c 128,-1,17
 483 63 483 63 510 103.5 c 128,-1,18
 537 144 537 144 551.5 201.5 c 128,-1,19
 566 259 566 259 566 330 c 256,0,1
46 330 m 0,20,21
 46 403 46 403 67.5 467 c 128,-1,22
 89 531 89 531 129.5 578.5 c 128,-1,23
 170 626 170 626 227.5 653 c 128,-1,24
 285 680 285 680 356 680 c 256,25,26
 427 680 427 680 484.5 653 c 128,-1,27
 542 626 542 626 582.5 578.5 c 128,-1,28
 623 531 623 531 644.5 467 c 128,-1,29
 666 403 666 403 666 330 c 0,30,31
 666 256 666 256 644.5 192.5 c 128,-1,32
 623 129 623 129 582.5 81.5 c 128,-1,33
 542 34 542 34 484.5 7 c 128,-1,34
 427 -20 427 -20 356 -20 c 256,35,36
 285 -20 285 -20 227.5 7 c 128,-1,37
 170 34 170 34 129.5 81.5 c 128,-1,38
 89 129 89 129 67.5 192.5 c 128,-1,39
 46 256 46 256 46 330 c 0,20,21
246 854 m 1,40,-1
 341 854 l 1,41,-1
 381 724 l 1,42,-1
 341 724 l 1,43,-1
 246 854 l 1,40,-1
EndSplineSet
EndChar

StartChar: Oacute
Encoding: 211 211 156
Width: 712
Flags: W
LayerCount: 2
Fore
SplineSet
566 330 m 256,0,1
 566 401 566 401 551.5 458.5 c 128,-1,2
 537 516 537 516 510 556.5 c 128,-1,3
 483 597 483 597 444 618.5 c 128,-1,4
 405 640 405 640 356 640 c 256,5,6
 307 640 307 640 268 618.5 c 128,-1,7
 229 597 229 597 202 556.5 c 128,-1,8
 175 516 175 516 160.5 458.5 c 128,-1,9
 146 401 146 401 146 330 c 256,10,11
 146 259 146 259 160.5 201.5 c 128,-1,12
 175 144 175 144 202 103.5 c 128,-1,13
 229 63 229 63 268 41.5 c 128,-1,14
 307 20 307 20 356 20 c 256,15,16
 405 20 405 20 444 41.5 c 128,-1,17
 483 63 483 63 510 103.5 c 128,-1,18
 537 144 537 144 551.5 201.5 c 128,-1,19
 566 259 566 259 566 330 c 256,0,1
46 330 m 0,20,21
 46 403 46 403 67.5 467 c 128,-1,22
 89 531 89 531 129.5 578.5 c 128,-1,23
 170 626 170 626 227.5 653 c 128,-1,24
 285 680 285 680 356 680 c 256,25,26
 427 680 427 680 484.5 653 c 128,-1,27
 542 626 542 626 582.5 578.5 c 128,-1,28
 623 531 623 531 644.5 467 c 128,-1,29
 666 403 666 403 666 330 c 0,30,31
 666 256 666 256 644.5 192.5 c 128,-1,32
 623 129 623 129 582.5 81.5 c 128,-1,33
 542 34 542 34 484.5 7 c 128,-1,34
 427 -20 427 -20 356 -20 c 256,35,36
 285 -20 285 -20 227.5 7 c 128,-1,37
 170 34 170 34 129.5 81.5 c 128,-1,38
 89 129 89 129 67.5 192.5 c 128,-1,39
 46 256 46 256 46 330 c 0,20,21
375 720 m 1,40,-1
 335 720 l 1,41,-1
 375 850 l 1,42,-1
 470 850 l 1,43,-1
 375 720 l 1,40,-1
EndSplineSet
EndChar

StartChar: Otilde
Encoding: 213 213 157
Width: 712
Flags: W
LayerCount: 2
Fore
SplineSet
566 330 m 256,0,1
 566 401 566 401 551.5 458.5 c 128,-1,2
 537 516 537 516 510 556.5 c 128,-1,3
 483 597 483 597 444 618.5 c 128,-1,4
 405 640 405 640 356 640 c 256,5,6
 307 640 307 640 268 618.5 c 128,-1,7
 229 597 229 597 202 556.5 c 128,-1,8
 175 516 175 516 160.5 458.5 c 128,-1,9
 146 401 146 401 146 330 c 256,10,11
 146 259 146 259 160.5 201.5 c 128,-1,12
 175 144 175 144 202 103.5 c 128,-1,13
 229 63 229 63 268 41.5 c 128,-1,14
 307 20 307 20 356 20 c 256,15,16
 405 20 405 20 444 41.5 c 128,-1,17
 483 63 483 63 510 103.5 c 128,-1,18
 537 144 537 144 551.5 201.5 c 128,-1,19
 566 259 566 259 566 330 c 256,0,1
46 330 m 0,20,21
 46 403 46 403 67.5 467 c 128,-1,22
 89 531 89 531 129.5 578.5 c 128,-1,23
 170 626 170 626 227.5 653 c 128,-1,24
 285 680 285 680 356 680 c 256,25,26
 427 680 427 680 484.5 653 c 128,-1,27
 542 626 542 626 582.5 578.5 c 128,-1,28
 623 531 623 531 644.5 467 c 128,-1,29
 666 403 666 403 666 330 c 0,30,31
 666 256 666 256 644.5 192.5 c 128,-1,32
 623 129 623 129 582.5 81.5 c 128,-1,33
 542 34 542 34 484.5 7 c 128,-1,34
 427 -20 427 -20 356 -20 c 256,35,36
 285 -20 285 -20 227.5 7 c 128,-1,37
 170 34 170 34 129.5 81.5 c 128,-1,38
 89 129 89 129 67.5 192.5 c 128,-1,39
 46 256 46 256 46 330 c 0,20,21
243 738 m 1,40,41
 243 791 243 791 258 812 c 128,-1,42
 273 833 273 833 303 833 c 0,43,44
 319 833 319 833 332 826.5 c 128,-1,45
 345 820 345 820 357 812.5 c 128,-1,46
 369 805 369 805 381 799 c 128,-1,47
 393 793 393 793 408 793 c 0,48,49
 419 793 419 793 428.5 807.5 c 128,-1,50
 438 822 438 822 438 833 c 1,51,-1
 468 833 l 1,52,53
 468 780 468 780 453 759 c 128,-1,54
 438 738 438 738 408 738 c 0,55,56
 392 738 392 738 379.5 744 c 128,-1,57
 367 750 367 750 355 757.5 c 128,-1,58
 343 765 343 765 330.5 771.5 c 128,-1,59
 318 778 318 778 303 778 c 0,60,61
 292 778 292 778 282.5 763.5 c 128,-1,62
 273 749 273 749 273 738 c 1,63,-1
 243 738 l 1,40,41
EndSplineSet
EndChar

StartChar: Odieresis
Encoding: 214 214 158
Width: 712
Flags: W
LayerCount: 2
Fore
SplineSet
566 330 m 256,0,1
 566 401 566 401 551.5 458.5 c 128,-1,2
 537 516 537 516 510 556.5 c 128,-1,3
 483 597 483 597 444 618.5 c 128,-1,4
 405 640 405 640 356 640 c 256,5,6
 307 640 307 640 268 618.5 c 128,-1,7
 229 597 229 597 202 556.5 c 128,-1,8
 175 516 175 516 160.5 458.5 c 128,-1,9
 146 401 146 401 146 330 c 256,10,11
 146 259 146 259 160.5 201.5 c 128,-1,12
 175 144 175 144 202 103.5 c 128,-1,13
 229 63 229 63 268 41.5 c 128,-1,14
 307 20 307 20 356 20 c 256,15,16
 405 20 405 20 444 41.5 c 128,-1,17
 483 63 483 63 510 103.5 c 128,-1,18
 537 144 537 144 551.5 201.5 c 128,-1,19
 566 259 566 259 566 330 c 256,0,1
46 330 m 0,20,21
 46 403 46 403 67.5 467 c 128,-1,22
 89 531 89 531 129.5 578.5 c 128,-1,23
 170 626 170 626 227.5 653 c 128,-1,24
 285 680 285 680 356 680 c 256,25,26
 427 680 427 680 484.5 653 c 128,-1,27
 542 626 542 626 582.5 578.5 c 128,-1,28
 623 531 623 531 644.5 467 c 128,-1,29
 666 403 666 403 666 330 c 0,30,31
 666 256 666 256 644.5 192.5 c 128,-1,32
 623 129 623 129 582.5 81.5 c 128,-1,33
 542 34 542 34 484.5 7 c 128,-1,34
 427 -20 427 -20 356 -20 c 256,35,36
 285 -20 285 -20 227.5 7 c 128,-1,37
 170 34 170 34 129.5 81.5 c 128,-1,38
 89 129 89 129 67.5 192.5 c 128,-1,39
 46 256 46 256 46 330 c 0,20,21
491 785 m 256,40,41
 491 762 491 762 477.5 748.5 c 128,-1,42
 464 735 464 735 441 735 c 256,43,44
 418 735 418 735 404.5 748.5 c 128,-1,45
 391 762 391 762 391 785 c 256,46,47
 391 808 391 808 404.5 821.5 c 128,-1,48
 418 835 418 835 441 835 c 256,49,50
 464 835 464 835 477.5 821.5 c 128,-1,51
 491 808 491 808 491 785 c 256,40,41
321 785 m 256,52,53
 321 762 321 762 307.5 748.5 c 128,-1,54
 294 735 294 735 271 735 c 256,55,56
 248 735 248 735 234.5 748.5 c 128,-1,57
 221 762 221 762 221 785 c 256,58,59
 221 808 221 808 234.5 821.5 c 128,-1,60
 248 835 248 835 271 835 c 256,61,62
 294 835 294 835 307.5 821.5 c 128,-1,63
 321 808 321 808 321 785 c 256,52,53
EndSplineSet
EndChar

StartChar: Oslash
Encoding: 216 216 159
Width: 712
Flags: W
LayerCount: 2
Fore
SplineSet
126 -20 m 1,0,-1
 163 48 l 1,1,2
 107 96 107 96 76.5 169 c 128,-1,3
 46 242 46 242 46 330 c 0,4,5
 46 403 46 403 67.5 467 c 128,-1,6
 89 531 89 531 129.5 578.5 c 128,-1,7
 170 626 170 626 227.5 653 c 128,-1,8
 285 680 285 680 356 680 c 0,9,10
 394 680 394 680 427.5 672 c 128,-1,11
 461 664 461 664 490 650 c 1,12,-1
 507 680 l 1,13,-1
 580 680 l 1,14,-1
 544 615 l 1,15,16
 602 567 602 567 634 493.5 c 128,-1,17
 666 420 666 420 666 330 c 0,18,19
 666 256 666 256 644.5 192.5 c 128,-1,20
 623 129 623 129 582.5 81.5 c 128,-1,21
 542 34 542 34 484.5 7 c 128,-1,22
 427 -20 427 -20 356 -20 c 0,23,24
 278 -20 278 -20 216 12 c 1,25,-1
 199 -20 l 1,26,-1
 126 -20 l 1,0,-1
566 330 m 0,27,28
 566 400 566 400 551.5 456.5 c 128,-1,29
 537 513 537 513 511 554 c 1,30,-1
 242 59 l 1,31,32
 292 20 292 20 356 20 c 0,33,34
 405 20 405 20 444 41.5 c 128,-1,35
 483 63 483 63 510 103.5 c 128,-1,36
 537 144 537 144 551.5 201.5 c 128,-1,37
 566 259 566 259 566 330 c 0,27,28
146 330 m 0,38,39
 146 261 146 261 159 206 c 128,-1,40
 172 151 172 151 197 111 c 1,41,-1
 465 604 l 1,42,43
 418 640 418 640 356 640 c 0,44,45
 307 640 307 640 268 618.5 c 128,-1,46
 229 597 229 597 202 556.5 c 128,-1,47
 175 516 175 516 160.5 458.5 c 128,-1,48
 146 401 146 401 146 330 c 0,38,39
EndSplineSet
EndChar

StartChar: Ugrave
Encoding: 217 217 160
Width: 686
Flags: W
LayerCount: 2
Fore
SplineSet
98 540 m 2,0,1
 98 585 98 585 85.5 612.5 c 128,-1,2
 73 640 73 640 28 640 c 2,3,-1
 8 640 l 1,4,-1
 8 660 l 1,5,-1
 98 660 l 2,6,7
 124 660 124 660 141.5 655.5 c 128,-1,8
 159 651 159 651 169.5 637.5 c 128,-1,9
 180 624 180 624 184 600.5 c 128,-1,10
 188 577 188 577 188 540 c 2,11,-1
 188 255 l 2,12,13
 188 202 188 202 197 160.5 c 128,-1,14
 206 119 206 119 227 90 c 128,-1,15
 248 61 248 61 281.5 45.5 c 128,-1,16
 315 30 315 30 365 30 c 0,17,18
 422 30 422 30 461 45 c 128,-1,19
 500 60 500 60 524 91.5 c 128,-1,20
 548 123 548 123 558 171 c 128,-1,21
 568 219 568 219 568 285 c 2,22,-1
 568 660 l 1,23,-1
 608 660 l 1,24,-1
 608 285 l 2,25,26
 608 212 608 212 597 156.5 c 128,-1,27
 586 101 586 101 557.5 64 c 128,-1,28
 529 27 529 27 479.5 8.5 c 128,-1,29
 430 -10 430 -10 353 -10 c 0,30,31
 280 -10 280 -10 231 8.5 c 128,-1,32
 182 27 182 27 152.5 64 c 128,-1,33
 123 101 123 101 110.5 156.5 c 128,-1,34
 98 212 98 212 98 285 c 2,35,-1
 98 540 l 2,0,1
268 810 m 1,36,-1
 363 810 l 1,37,-1
 403 680 l 1,38,-1
 363 680 l 1,39,-1
 268 810 l 1,36,-1
EndSplineSet
EndChar

StartChar: Uacute
Encoding: 218 218 161
Width: 686
Flags: W
LayerCount: 2
Fore
SplineSet
98 540 m 2,0,1
 98 585 98 585 85.5 612.5 c 128,-1,2
 73 640 73 640 28 640 c 2,3,-1
 8 640 l 1,4,-1
 8 660 l 1,5,-1
 98 660 l 2,6,7
 124 660 124 660 141.5 655.5 c 128,-1,8
 159 651 159 651 169.5 637.5 c 128,-1,9
 180 624 180 624 184 600.5 c 128,-1,10
 188 577 188 577 188 540 c 2,11,-1
 188 255 l 2,12,13
 188 202 188 202 197 160.5 c 128,-1,14
 206 119 206 119 227 90 c 128,-1,15
 248 61 248 61 281.5 45.5 c 128,-1,16
 315 30 315 30 365 30 c 0,17,18
 422 30 422 30 461 45 c 128,-1,19
 500 60 500 60 524 91.5 c 128,-1,20
 548 123 548 123 558 171 c 128,-1,21
 568 219 568 219 568 285 c 2,22,-1
 568 660 l 1,23,-1
 608 660 l 1,24,-1
 608 285 l 2,25,26
 608 212 608 212 597 156.5 c 128,-1,27
 586 101 586 101 557.5 64 c 128,-1,28
 529 27 529 27 479.5 8.5 c 128,-1,29
 430 -10 430 -10 353 -10 c 0,30,31
 280 -10 280 -10 231 8.5 c 128,-1,32
 182 27 182 27 152.5 64 c 128,-1,33
 123 101 123 101 110.5 156.5 c 128,-1,34
 98 212 98 212 98 285 c 2,35,-1
 98 540 l 2,0,1
368 680 m 1,36,-1
 328 680 l 1,37,-1
 368 810 l 1,38,-1
 463 810 l 1,39,-1
 368 680 l 1,36,-1
EndSplineSet
EndChar

StartChar: Ucircumflex
Encoding: 219 219 162
Width: 686
Flags: W
LayerCount: 2
Fore
SplineSet
98 540 m 2,0,1
 98 585 98 585 85.5 612.5 c 128,-1,2
 73 640 73 640 28 640 c 2,3,-1
 8 640 l 1,4,-1
 8 660 l 1,5,-1
 98 660 l 2,6,7
 124 660 124 660 141.5 655.5 c 128,-1,8
 159 651 159 651 169.5 637.5 c 128,-1,9
 180 624 180 624 184 600.5 c 128,-1,10
 188 577 188 577 188 540 c 2,11,-1
 188 255 l 2,12,13
 188 202 188 202 197 160.5 c 128,-1,14
 206 119 206 119 227 90 c 128,-1,15
 248 61 248 61 281.5 45.5 c 128,-1,16
 315 30 315 30 365 30 c 0,17,18
 422 30 422 30 461 45 c 128,-1,19
 500 60 500 60 524 91.5 c 128,-1,20
 548 123 548 123 558 171 c 128,-1,21
 568 219 568 219 568 285 c 2,22,-1
 568 660 l 1,23,-1
 608 660 l 1,24,-1
 608 285 l 2,25,26
 608 212 608 212 597 156.5 c 128,-1,27
 586 101 586 101 557.5 64 c 128,-1,28
 529 27 529 27 479.5 8.5 c 128,-1,29
 430 -10 430 -10 353 -10 c 0,30,31
 280 -10 280 -10 231 8.5 c 128,-1,32
 182 27 182 27 152.5 64 c 128,-1,33
 123 101 123 101 110.5 156.5 c 128,-1,34
 98 212 98 212 98 285 c 2,35,-1
 98 540 l 2,0,1
373 751 m 1,36,-1
 288 671 l 1,37,-1
 238 671 l 1,38,-1
 318 786 l 1,39,-1
 428 786 l 1,40,-1
 508 671 l 1,41,-1
 458 671 l 1,42,-1
 373 751 l 1,36,-1
EndSplineSet
EndChar

StartChar: Udieresis
Encoding: 220 220 163
Width: 686
Flags: W
LayerCount: 2
Fore
SplineSet
98 540 m 2,0,1
 98 585 98 585 85.5 612.5 c 128,-1,2
 73 640 73 640 28 640 c 2,3,-1
 8 640 l 1,4,-1
 8 660 l 1,5,-1
 98 660 l 2,6,7
 124 660 124 660 141.5 655.5 c 128,-1,8
 159 651 159 651 169.5 637.5 c 128,-1,9
 180 624 180 624 184 600.5 c 128,-1,10
 188 577 188 577 188 540 c 2,11,-1
 188 255 l 2,12,13
 188 202 188 202 197 160.5 c 128,-1,14
 206 119 206 119 227 90 c 128,-1,15
 248 61 248 61 281.5 45.5 c 128,-1,16
 315 30 315 30 365 30 c 0,17,18
 422 30 422 30 461 45 c 128,-1,19
 500 60 500 60 524 91.5 c 128,-1,20
 548 123 548 123 558 171 c 128,-1,21
 568 219 568 219 568 285 c 2,22,-1
 568 660 l 1,23,-1
 608 660 l 1,24,-1
 608 285 l 2,25,26
 608 212 608 212 597 156.5 c 128,-1,27
 586 101 586 101 557.5 64 c 128,-1,28
 529 27 529 27 479.5 8.5 c 128,-1,29
 430 -10 430 -10 353 -10 c 0,30,31
 280 -10 280 -10 231 8.5 c 128,-1,32
 182 27 182 27 152.5 64 c 128,-1,33
 123 101 123 101 110.5 156.5 c 128,-1,34
 98 212 98 212 98 285 c 2,35,-1
 98 540 l 2,0,1
503 730 m 256,36,37
 503 707 503 707 489.5 693.5 c 128,-1,38
 476 680 476 680 453 680 c 256,39,40
 430 680 430 680 416.5 693.5 c 128,-1,41
 403 707 403 707 403 730 c 256,42,43
 403 753 403 753 416.5 766.5 c 128,-1,44
 430 780 430 780 453 780 c 256,45,46
 476 780 476 780 489.5 766.5 c 128,-1,47
 503 753 503 753 503 730 c 256,36,37
333 730 m 256,48,49
 333 707 333 707 319.5 693.5 c 128,-1,50
 306 680 306 680 283 680 c 256,51,52
 260 680 260 680 246.5 693.5 c 128,-1,53
 233 707 233 707 233 730 c 256,54,55
 233 753 233 753 246.5 766.5 c 128,-1,56
 260 780 260 780 283 780 c 256,57,58
 306 780 306 780 319.5 766.5 c 128,-1,59
 333 753 333 753 333 730 c 256,48,49
EndSplineSet
EndChar

StartChar: germandbls
Encoding: 223 223 164
Width: 554
Flags: W
LayerCount: 2
Fore
SplineSet
352 550 m 0,0,1
 352 588 352 588 329.5 609 c 128,-1,2
 307 630 307 630 262 630 c 0,3,4
 213 630 213 630 187.5 602.5 c 128,-1,5
 162 575 162 575 162 500 c 2,6,-1
 162 0 l 1,7,-1
 72 0 l 1,8,-1
 72 500 l 2,9,10
 72 552 72 552 87.5 585.5 c 128,-1,11
 103 619 103 619 130 637.5 c 128,-1,12
 157 656 157 656 192.5 663 c 128,-1,13
 228 670 228 670 267 670 c 0,14,15
 350 670 350 670 393.5 642.5 c 128,-1,16
 437 615 437 615 437 570 c 0,17,18
 437 529 437 529 419 505 c 128,-1,19
 401 481 401 481 379.5 462.5 c 128,-1,20
 358 444 358 444 340 424 c 128,-1,21
 322 404 322 404 322 370 c 0,22,23
 322 343 322 343 337 323 c 128,-1,24
 352 303 352 303 375 286.5 c 128,-1,25
 398 270 398 270 424.5 254.5 c 128,-1,26
 451 239 451 239 474 220.5 c 128,-1,27
 497 202 497 202 512 178 c 128,-1,28
 527 154 527 154 527 120 c 0,29,30
 527 52 527 52 486.5 21 c 128,-1,31
 446 -10 446 -10 382 -10 c 0,32,33
 344 -10 344 -10 310 0.5 c 128,-1,34
 276 11 276 11 257 30 c 256,35,36
 238 49 238 49 235 70 c 128,-1,37
 232 91 232 91 232 110 c 1,38,-1
 252 110 l 1,39,40
 254 95 254 95 263 80.5 c 128,-1,41
 272 66 272 66 286.5 55 c 128,-1,42
 301 44 301 44 320 37 c 128,-1,43
 339 30 339 30 362 30 c 0,44,45
 400 30 400 30 421 50 c 128,-1,46
 442 70 442 70 442 100 c 0,47,48
 442 127 442 127 427 147 c 128,-1,49
 412 167 412 167 389 183.5 c 128,-1,50
 366 200 366 200 339.5 215.5 c 128,-1,51
 313 231 313 231 290 249.5 c 128,-1,52
 267 268 267 268 252 292 c 128,-1,53
 237 316 237 316 237 350 c 0,54,55
 237 391 237 391 255 415 c 128,-1,56
 273 439 273 439 294.5 457.5 c 128,-1,57
 316 476 316 476 334 496 c 128,-1,58
 352 516 352 516 352 550 c 0,0,1
EndSplineSet
EndChar

StartChar: agrave
Encoding: 224 224 165
Width: 482
Flags: W
LayerCount: 2
Fore
SplineSet
325 230 m 1,0,-1
 295 230 l 2,1,2
 220 230 220 230 177.5 202.5 c 128,-1,3
 135 175 135 175 135 130 c 0,4,5
 135 106 135 106 143 88 c 128,-1,6
 151 70 151 70 164 58 c 128,-1,7
 177 46 177 46 194 40.5 c 128,-1,8
 211 35 211 35 230 35 c 0,9,10
 267 35 267 35 288.5 53.5 c 128,-1,11
 310 72 310 72 325 95 c 1,12,-1
 325 230 l 1,0,-1
365 0 m 1,13,-1
 330 45 l 1,14,-1
 325 45 l 1,15,16
 310 26 310 26 276 8 c 128,-1,17
 242 -10 242 -10 185 -10 c 0,18,19
 164 -10 164 -10 139 -3.5 c 128,-1,20
 114 3 114 3 92 19 c 128,-1,21
 70 35 70 35 55 62 c 128,-1,22
 40 89 40 89 40 130 c 256,23,24
 40 171 40 171 61 198 c 128,-1,25
 82 225 82 225 117 241 c 128,-1,26
 152 257 152 257 198 263.5 c 128,-1,27
 244 270 244 270 295 270 c 2,28,-1
 325 270 l 1,29,30
 325 322 325 322 317 355.5 c 128,-1,31
 309 389 309 389 295 407.5 c 128,-1,32
 281 426 281 426 261.5 433 c 128,-1,33
 242 440 242 440 220 440 c 0,34,35
 178 440 178 440 149.5 422 c 128,-1,36
 121 404 121 404 110 355 c 1,37,-1
 65 355 l 1,38,39
 65 381 65 381 68 403.5 c 128,-1,40
 71 426 71 426 90 445 c 0,41,42
 99 454 99 454 115.5 461 c 128,-1,43
 132 468 132 468 152 472 c 128,-1,44
 172 476 172 476 194.5 478 c 128,-1,45
 217 480 217 480 240 480 c 0,46,47
 274 480 274 480 305.5 472.5 c 128,-1,48
 337 465 337 465 361.5 442.5 c 128,-1,49
 386 420 386 420 400.5 378.5 c 128,-1,50
 415 337 415 337 415 270 c 2,51,-1
 415 0 l 1,52,-1
 365 0 l 1,13,-1
125 655 m 1,53,-1
 220 655 l 1,54,-1
 260 525 l 1,55,-1
 220 525 l 1,56,-1
 125 655 l 1,53,-1
EndSplineSet
EndChar

StartChar: aacute
Encoding: 225 225 166
Width: 482
Flags: W
LayerCount: 2
Fore
SplineSet
325 230 m 1,0,-1
 295 230 l 2,1,2
 220 230 220 230 177.5 202.5 c 128,-1,3
 135 175 135 175 135 130 c 0,4,5
 135 106 135 106 143 88 c 128,-1,6
 151 70 151 70 164 58 c 128,-1,7
 177 46 177 46 194 40.5 c 128,-1,8
 211 35 211 35 230 35 c 0,9,10
 267 35 267 35 288.5 53.5 c 128,-1,11
 310 72 310 72 325 95 c 1,12,-1
 325 230 l 1,0,-1
365 0 m 1,13,-1
 330 45 l 1,14,-1
 325 45 l 1,15,16
 310 26 310 26 276 8 c 128,-1,17
 242 -10 242 -10 185 -10 c 0,18,19
 164 -10 164 -10 139 -3.5 c 128,-1,20
 114 3 114 3 92 19 c 128,-1,21
 70 35 70 35 55 62 c 128,-1,22
 40 89 40 89 40 130 c 256,23,24
 40 171 40 171 61 198 c 128,-1,25
 82 225 82 225 117 241 c 128,-1,26
 152 257 152 257 198 263.5 c 128,-1,27
 244 270 244 270 295 270 c 2,28,-1
 325 270 l 1,29,30
 325 322 325 322 317 355.5 c 128,-1,31
 309 389 309 389 295 407.5 c 128,-1,32
 281 426 281 426 261.5 433 c 128,-1,33
 242 440 242 440 220 440 c 0,34,35
 178 440 178 440 149.5 422 c 128,-1,36
 121 404 121 404 110 355 c 1,37,-1
 65 355 l 1,38,39
 65 381 65 381 68 403.5 c 128,-1,40
 71 426 71 426 90 445 c 0,41,42
 99 454 99 454 115.5 461 c 128,-1,43
 132 468 132 468 152 472 c 128,-1,44
 172 476 172 476 194.5 478 c 128,-1,45
 217 480 217 480 240 480 c 0,46,47
 274 480 274 480 305.5 472.5 c 128,-1,48
 337 465 337 465 361.5 442.5 c 128,-1,49
 386 420 386 420 400.5 378.5 c 128,-1,50
 415 337 415 337 415 270 c 2,51,-1
 415 0 l 1,52,-1
 365 0 l 1,13,-1
240 525 m 1,53,-1
 200 525 l 1,54,-1
 240 655 l 1,55,-1
 335 655 l 1,56,-1
 240 525 l 1,53,-1
EndSplineSet
EndChar

StartChar: acircumflex
Encoding: 226 226 167
Width: 482
Flags: W
LayerCount: 2
Fore
SplineSet
325 230 m 1,0,-1
 295 230 l 2,1,2
 220 230 220 230 177.5 202.5 c 128,-1,3
 135 175 135 175 135 130 c 0,4,5
 135 106 135 106 143 88 c 128,-1,6
 151 70 151 70 164 58 c 128,-1,7
 177 46 177 46 194 40.5 c 128,-1,8
 211 35 211 35 230 35 c 0,9,10
 267 35 267 35 288.5 53.5 c 128,-1,11
 310 72 310 72 325 95 c 1,12,-1
 325 230 l 1,0,-1
365 0 m 1,13,-1
 330 45 l 1,14,-1
 325 45 l 1,15,16
 310 26 310 26 276 8 c 128,-1,17
 242 -10 242 -10 185 -10 c 0,18,19
 164 -10 164 -10 139 -3.5 c 128,-1,20
 114 3 114 3 92 19 c 128,-1,21
 70 35 70 35 55 62 c 128,-1,22
 40 89 40 89 40 130 c 256,23,24
 40 171 40 171 61 198 c 128,-1,25
 82 225 82 225 117 241 c 128,-1,26
 152 257 152 257 198 263.5 c 128,-1,27
 244 270 244 270 295 270 c 2,28,-1
 325 270 l 1,29,30
 325 322 325 322 317 355.5 c 128,-1,31
 309 389 309 389 295 407.5 c 128,-1,32
 281 426 281 426 261.5 433 c 128,-1,33
 242 440 242 440 220 440 c 0,34,35
 178 440 178 440 149.5 422 c 128,-1,36
 121 404 121 404 110 355 c 1,37,-1
 65 355 l 1,38,39
 65 381 65 381 68 403.5 c 128,-1,40
 71 426 71 426 90 445 c 0,41,42
 99 454 99 454 115.5 461 c 128,-1,43
 132 468 132 468 152 472 c 128,-1,44
 172 476 172 476 194.5 478 c 128,-1,45
 217 480 217 480 240 480 c 0,46,47
 274 480 274 480 305.5 472.5 c 128,-1,48
 337 465 337 465 361.5 442.5 c 128,-1,49
 386 420 386 420 400.5 378.5 c 128,-1,50
 415 337 415 337 415 270 c 2,51,-1
 415 0 l 1,52,-1
 365 0 l 1,13,-1
241 610 m 1,53,-1
 156 530 l 1,54,-1
 106 530 l 1,55,-1
 186 645 l 1,56,-1
 296 645 l 1,57,-1
 376 530 l 1,58,-1
 326 530 l 1,59,-1
 241 610 l 1,53,-1
EndSplineSet
EndChar

StartChar: atilde
Encoding: 227 227 168
Width: 482
Flags: W
LayerCount: 2
Fore
SplineSet
325 230 m 1,0,-1
 295 230 l 2,1,2
 220 230 220 230 177.5 202.5 c 128,-1,3
 135 175 135 175 135 130 c 0,4,5
 135 106 135 106 143 88 c 128,-1,6
 151 70 151 70 164 58 c 128,-1,7
 177 46 177 46 194 40.5 c 128,-1,8
 211 35 211 35 230 35 c 0,9,10
 267 35 267 35 288.5 53.5 c 128,-1,11
 310 72 310 72 325 95 c 1,12,-1
 325 230 l 1,0,-1
365 0 m 1,13,-1
 330 45 l 1,14,-1
 325 45 l 1,15,16
 310 26 310 26 276 8 c 128,-1,17
 242 -10 242 -10 185 -10 c 0,18,19
 164 -10 164 -10 139 -3.5 c 128,-1,20
 114 3 114 3 92 19 c 128,-1,21
 70 35 70 35 55 62 c 128,-1,22
 40 89 40 89 40 130 c 256,23,24
 40 171 40 171 61 198 c 128,-1,25
 82 225 82 225 117 241 c 128,-1,26
 152 257 152 257 198 263.5 c 128,-1,27
 244 270 244 270 295 270 c 2,28,-1
 325 270 l 1,29,30
 325 322 325 322 317 355.5 c 128,-1,31
 309 389 309 389 295 407.5 c 128,-1,32
 281 426 281 426 261.5 433 c 128,-1,33
 242 440 242 440 220 440 c 0,34,35
 178 440 178 440 149.5 422 c 128,-1,36
 121 404 121 404 110 355 c 1,37,-1
 65 355 l 1,38,39
 65 381 65 381 68 403.5 c 128,-1,40
 71 426 71 426 90 445 c 0,41,42
 99 454 99 454 115.5 461 c 128,-1,43
 132 468 132 468 152 472 c 128,-1,44
 172 476 172 476 194.5 478 c 128,-1,45
 217 480 217 480 240 480 c 0,46,47
 274 480 274 480 305.5 472.5 c 128,-1,48
 337 465 337 465 361.5 442.5 c 128,-1,49
 386 420 386 420 400.5 378.5 c 128,-1,50
 415 337 415 337 415 270 c 2,51,-1
 415 0 l 1,52,-1
 365 0 l 1,13,-1
124 535 m 1,53,54
 124 588 124 588 139 609 c 128,-1,55
 154 630 154 630 184 630 c 0,56,57
 200 630 200 630 213 623.5 c 128,-1,58
 226 617 226 617 238 609.5 c 128,-1,59
 250 602 250 602 262 596 c 128,-1,60
 274 590 274 590 289 590 c 0,61,62
 300 590 300 590 309.5 604.5 c 128,-1,63
 319 619 319 619 319 630 c 1,64,-1
 349 630 l 1,65,66
 349 577 349 577 334 556 c 128,-1,67
 319 535 319 535 289 535 c 0,68,69
 273 535 273 535 260.5 541 c 128,-1,70
 248 547 248 547 236 554.5 c 128,-1,71
 224 562 224 562 211.5 568.5 c 128,-1,72
 199 575 199 575 184 575 c 0,73,74
 173 575 173 575 163.5 560.5 c 128,-1,75
 154 546 154 546 154 535 c 1,76,-1
 124 535 l 1,53,54
EndSplineSet
EndChar

StartChar: adieresis
Encoding: 228 228 169
Width: 482
Flags: W
LayerCount: 2
Fore
SplineSet
325 230 m 1,0,-1
 295 230 l 2,1,2
 220 230 220 230 177.5 202.5 c 128,-1,3
 135 175 135 175 135 130 c 0,4,5
 135 106 135 106 143 88 c 128,-1,6
 151 70 151 70 164 58 c 128,-1,7
 177 46 177 46 194 40.5 c 128,-1,8
 211 35 211 35 230 35 c 0,9,10
 267 35 267 35 288.5 53.5 c 128,-1,11
 310 72 310 72 325 95 c 1,12,-1
 325 230 l 1,0,-1
365 0 m 1,13,-1
 330 45 l 1,14,-1
 325 45 l 1,15,16
 310 26 310 26 276 8 c 128,-1,17
 242 -10 242 -10 185 -10 c 0,18,19
 164 -10 164 -10 139 -3.5 c 128,-1,20
 114 3 114 3 92 19 c 128,-1,21
 70 35 70 35 55 62 c 128,-1,22
 40 89 40 89 40 130 c 256,23,24
 40 171 40 171 61 198 c 128,-1,25
 82 225 82 225 117 241 c 128,-1,26
 152 257 152 257 198 263.5 c 128,-1,27
 244 270 244 270 295 270 c 2,28,-1
 325 270 l 1,29,30
 325 322 325 322 317 355.5 c 128,-1,31
 309 389 309 389 295 407.5 c 128,-1,32
 281 426 281 426 261.5 433 c 128,-1,33
 242 440 242 440 220 440 c 0,34,35
 178 440 178 440 149.5 422 c 128,-1,36
 121 404 121 404 110 355 c 1,37,-1
 65 355 l 1,38,39
 65 381 65 381 68 403.5 c 128,-1,40
 71 426 71 426 90 445 c 0,41,42
 99 454 99 454 115.5 461 c 128,-1,43
 132 468 132 468 152 472 c 128,-1,44
 172 476 172 476 194.5 478 c 128,-1,45
 217 480 217 480 240 480 c 0,46,47
 274 480 274 480 305.5 472.5 c 128,-1,48
 337 465 337 465 361.5 442.5 c 128,-1,49
 386 420 386 420 400.5 378.5 c 128,-1,50
 415 337 415 337 415 270 c 2,51,-1
 415 0 l 1,52,-1
 365 0 l 1,13,-1
370 580 m 256,53,54
 370 561 370 561 357 548 c 128,-1,55
 344 535 344 535 325 535 c 256,56,57
 306 535 306 535 293 548 c 128,-1,58
 280 561 280 561 280 580 c 256,59,60
 280 599 280 599 293 612 c 128,-1,61
 306 625 306 625 325 625 c 256,62,63
 344 625 344 625 357 612 c 128,-1,64
 370 599 370 599 370 580 c 256,53,54
200 580 m 256,65,66
 200 561 200 561 187 548 c 128,-1,67
 174 535 174 535 155 535 c 256,68,69
 136 535 136 535 123 548 c 128,-1,70
 110 561 110 561 110 580 c 256,71,72
 110 599 110 599 123 612 c 128,-1,73
 136 625 136 625 155 625 c 256,74,75
 174 625 174 625 187 612 c 128,-1,76
 200 599 200 599 200 580 c 256,65,66
EndSplineSet
EndChar

StartChar: aring
Encoding: 229 229 170
Width: 482
Flags: W
LayerCount: 2
Fore
SplineSet
325 230 m 1,0,-1
 295 230 l 2,1,2
 220 230 220 230 177.5 202.5 c 128,-1,3
 135 175 135 175 135 130 c 0,4,5
 135 106 135 106 143 88 c 128,-1,6
 151 70 151 70 164 58 c 128,-1,7
 177 46 177 46 194 40.5 c 128,-1,8
 211 35 211 35 230 35 c 0,9,10
 267 35 267 35 288.5 53.5 c 128,-1,11
 310 72 310 72 325 95 c 1,12,-1
 325 230 l 1,0,-1
365 0 m 1,13,-1
 330 45 l 1,14,-1
 325 45 l 1,15,16
 310 26 310 26 276 8 c 128,-1,17
 242 -10 242 -10 185 -10 c 0,18,19
 164 -10 164 -10 139 -3.5 c 128,-1,20
 114 3 114 3 92 19 c 128,-1,21
 70 35 70 35 55 62 c 128,-1,22
 40 89 40 89 40 130 c 256,23,24
 40 171 40 171 61 198 c 128,-1,25
 82 225 82 225 117 241 c 128,-1,26
 152 257 152 257 198 263.5 c 128,-1,27
 244 270 244 270 295 270 c 2,28,-1
 325 270 l 1,29,30
 325 322 325 322 317 355.5 c 128,-1,31
 309 389 309 389 295 407.5 c 128,-1,32
 281 426 281 426 261.5 433 c 128,-1,33
 242 440 242 440 220 440 c 0,34,35
 178 440 178 440 149.5 422 c 128,-1,36
 121 404 121 404 110 355 c 1,37,-1
 65 355 l 1,38,39
 65 381 65 381 68 403.5 c 128,-1,40
 71 426 71 426 90 445 c 0,41,42
 99 454 99 454 115.5 461 c 128,-1,43
 132 468 132 468 152 472 c 128,-1,44
 172 476 172 476 194.5 478 c 128,-1,45
 217 480 217 480 240 480 c 0,46,47
 274 480 274 480 305.5 472.5 c 128,-1,48
 337 465 337 465 361.5 442.5 c 128,-1,49
 386 420 386 420 400.5 378.5 c 128,-1,50
 415 337 415 337 415 270 c 2,51,-1
 415 0 l 1,52,-1
 365 0 l 1,13,-1
150 615 m 256,53,54
 150 632 150 632 157 647.5 c 128,-1,55
 164 663 164 663 175.5 674.5 c 128,-1,56
 187 686 187 686 202.5 693 c 128,-1,57
 218 700 218 700 235 700 c 256,58,59
 252 700 252 700 267.5 693 c 128,-1,60
 283 686 283 686 294.5 674.5 c 128,-1,61
 306 663 306 663 313 647.5 c 128,-1,62
 320 632 320 632 320 615 c 256,63,64
 320 598 320 598 313 582.5 c 128,-1,65
 306 567 306 567 294.5 555.5 c 128,-1,66
 283 544 283 544 267.5 537 c 128,-1,67
 252 530 252 530 235 530 c 256,68,69
 218 530 218 530 202.5 537 c 128,-1,70
 187 544 187 544 175.5 555.5 c 128,-1,71
 164 567 164 567 157 582.5 c 128,-1,72
 150 598 150 598 150 615 c 256,53,54
280 615 m 256,73,74
 280 638 280 638 267 651.5 c 128,-1,75
 254 665 254 665 235 665 c 256,76,77
 216 665 216 665 203 651.5 c 128,-1,78
 190 638 190 638 190 615 c 256,79,80
 190 592 190 592 203 578.5 c 128,-1,81
 216 565 216 565 235 565 c 256,82,83
 254 565 254 565 267 578.5 c 128,-1,84
 280 592 280 592 280 615 c 256,73,74
EndSplineSet
EndChar

StartChar: ccedilla
Encoding: 231 231 171
Width: 485
Flags: W
LayerCount: 2
Fore
SplineSet
266 480 m 0,0,1
 319 480 319 480 355.5 472 c 128,-1,2
 392 464 392 464 411 445 c 0,3,4
 420 436 420 436 425.5 425 c 128,-1,5
 431 414 431 414 433 399 c 128,-1,6
 435 384 435 384 435.5 363.5 c 128,-1,7
 436 343 436 343 436 315 c 1,8,-1
 416 315 l 1,9,10
 412 379 412 379 375.5 409.5 c 128,-1,11
 339 440 339 440 286 440 c 0,12,13
 248 440 248 440 221 424 c 128,-1,14
 194 408 194 408 176 380.5 c 128,-1,15
 158 353 158 353 149.5 315.5 c 128,-1,16
 141 278 141 278 141 235 c 256,17,18
 141 192 141 192 149.5 154.5 c 128,-1,19
 158 117 158 117 176 89.5 c 128,-1,20
 194 62 194 62 221 46 c 128,-1,21
 248 30 248 30 286 30 c 0,22,23
 339 30 339 30 372 51 c 128,-1,24
 405 72 405 72 431 110 c 1,25,-1
 451 95 l 1,26,27
 419 41 419 41 376 17.5 c 128,-1,28
 333 -6 333 -6 276 -10 c 1,29,-1
 276 -41 l 1,30,31
 314 -43 314 -43 335 -58 c 128,-1,32
 356 -73 356 -73 356 -111 c 256,33,34
 356 -149 356 -149 330 -165 c 128,-1,35
 304 -181 304 -181 236 -181 c 1,36,-1
 236 -151 l 1,37,38
 281 -151 281 -151 298.5 -142.5 c 128,-1,39
 316 -134 316 -134 316 -111 c 256,40,41
 316 -88 316 -88 298.5 -79.5 c 128,-1,42
 281 -71 281 -71 236 -71 c 1,43,-1
 236 -10 l 1,44,45
 187 -4 187 -4 151.5 17 c 128,-1,46
 116 38 116 38 92.5 71 c 128,-1,47
 69 104 69 104 57.5 146 c 128,-1,48
 46 188 46 188 46 235 c 0,49,50
 46 286 46 286 59.5 330.5 c 128,-1,51
 73 375 73 375 100 408 c 128,-1,52
 127 441 127 441 168.5 460.5 c 128,-1,53
 210 480 210 480 266 480 c 0,0,1
EndSplineSet
EndChar

StartChar: egrave
Encoding: 232 232 172
Width: 485
Flags: W
LayerCount: 2
Fore
SplineSet
438 220 m 1,0,-1
 140 220 l 1,1,2
 140 179 140 179 149 144 c 128,-1,3
 158 109 158 109 175.5 83.5 c 128,-1,4
 193 58 193 58 218 44 c 128,-1,5
 243 30 243 30 275 30 c 0,6,7
 324 30 324 30 356.5 51 c 128,-1,8
 389 72 389 72 415 110 c 1,9,-1
 435 95 l 1,10,11
 401 38 401 38 356.5 14 c 128,-1,12
 312 -10 312 -10 255 -10 c 0,13,14
 202 -10 202 -10 163 9.5 c 128,-1,15
 124 29 124 29 97.5 62 c 128,-1,16
 71 95 71 95 58 139.5 c 128,-1,17
 45 184 45 184 45 235 c 256,18,19
 45 286 45 286 58 330.5 c 128,-1,20
 71 375 71 375 95.5 408 c 128,-1,21
 120 441 120 441 156.5 460.5 c 128,-1,22
 193 480 193 480 240 480 c 0,23,24
 342 480 342 480 391 423 c 128,-1,25
 440 366 440 366 440 260 c 1,26,-1
 438 220 l 1,0,-1
350 260 m 1,27,28
 350 343 350 343 324 389 c 128,-1,29
 298 435 298 435 245 435 c 0,30,31
 222 435 222 435 203 421.5 c 128,-1,32
 184 408 184 408 170 385 c 128,-1,33
 156 362 156 362 148 329.5 c 128,-1,34
 140 297 140 297 140 260 c 1,35,-1
 350 260 l 1,27,28
135 656 m 1,36,-1
 230 656 l 1,37,-1
 270 526 l 1,38,-1
 230 526 l 1,39,-1
 135 656 l 1,36,-1
EndSplineSet
EndChar

StartChar: eacute
Encoding: 233 233 173
Width: 485
Flags: W
LayerCount: 2
Fore
SplineSet
438 220 m 1,0,-1
 140 220 l 1,1,2
 140 179 140 179 149 144 c 128,-1,3
 158 109 158 109 175.5 83.5 c 128,-1,4
 193 58 193 58 218 44 c 128,-1,5
 243 30 243 30 275 30 c 0,6,7
 324 30 324 30 356.5 51 c 128,-1,8
 389 72 389 72 415 110 c 1,9,-1
 435 95 l 1,10,11
 401 38 401 38 356.5 14 c 128,-1,12
 312 -10 312 -10 255 -10 c 0,13,14
 202 -10 202 -10 163 9.5 c 128,-1,15
 124 29 124 29 97.5 62 c 128,-1,16
 71 95 71 95 58 139.5 c 128,-1,17
 45 184 45 184 45 235 c 256,18,19
 45 286 45 286 58 330.5 c 128,-1,20
 71 375 71 375 95.5 408 c 128,-1,21
 120 441 120 441 156.5 460.5 c 128,-1,22
 193 480 193 480 240 480 c 0,23,24
 342 480 342 480 391 423 c 128,-1,25
 440 366 440 366 440 260 c 1,26,-1
 438 220 l 1,0,-1
350 260 m 1,27,28
 350 343 350 343 324 389 c 128,-1,29
 298 435 298 435 245 435 c 0,30,31
 222 435 222 435 203 421.5 c 128,-1,32
 184 408 184 408 170 385 c 128,-1,33
 156 362 156 362 148 329.5 c 128,-1,34
 140 297 140 297 140 260 c 1,35,-1
 350 260 l 1,27,28
255 526 m 1,36,-1
 215 526 l 1,37,-1
 255 656 l 1,38,-1
 350 656 l 1,39,-1
 255 526 l 1,36,-1
EndSplineSet
EndChar

StartChar: ecircumflex
Encoding: 234 234 174
Width: 485
Flags: W
LayerCount: 2
Fore
SplineSet
438 220 m 1,0,-1
 140 220 l 1,1,2
 140 179 140 179 149 144 c 128,-1,3
 158 109 158 109 175.5 83.5 c 128,-1,4
 193 58 193 58 218 44 c 128,-1,5
 243 30 243 30 275 30 c 0,6,7
 324 30 324 30 356.5 51 c 128,-1,8
 389 72 389 72 415 110 c 1,9,-1
 435 95 l 1,10,11
 401 38 401 38 356.5 14 c 128,-1,12
 312 -10 312 -10 255 -10 c 0,13,14
 202 -10 202 -10 163 9.5 c 128,-1,15
 124 29 124 29 97.5 62 c 128,-1,16
 71 95 71 95 58 139.5 c 128,-1,17
 45 184 45 184 45 235 c 256,18,19
 45 286 45 286 58 330.5 c 128,-1,20
 71 375 71 375 95.5 408 c 128,-1,21
 120 441 120 441 156.5 460.5 c 128,-1,22
 193 480 193 480 240 480 c 0,23,24
 342 480 342 480 391 423 c 128,-1,25
 440 366 440 366 440 260 c 1,26,-1
 438 220 l 1,0,-1
350 260 m 1,27,28
 350 343 350 343 324 389 c 128,-1,29
 298 435 298 435 245 435 c 0,30,31
 222 435 222 435 203 421.5 c 128,-1,32
 184 408 184 408 170 385 c 128,-1,33
 156 362 156 362 148 329.5 c 128,-1,34
 140 297 140 297 140 260 c 1,35,-1
 350 260 l 1,27,28
250 605 m 1,36,-1
 165 525 l 1,37,-1
 115 525 l 1,38,-1
 195 640 l 1,39,-1
 305 640 l 1,40,-1
 385 525 l 1,41,-1
 335 525 l 1,42,-1
 250 605 l 1,36,-1
EndSplineSet
EndChar

StartChar: edieresis
Encoding: 235 235 175
Width: 485
Flags: W
LayerCount: 2
Fore
SplineSet
438 220 m 1,0,-1
 140 220 l 1,1,2
 140 179 140 179 149 144 c 128,-1,3
 158 109 158 109 175.5 83.5 c 128,-1,4
 193 58 193 58 218 44 c 128,-1,5
 243 30 243 30 275 30 c 0,6,7
 324 30 324 30 356.5 51 c 128,-1,8
 389 72 389 72 415 110 c 1,9,-1
 435 95 l 1,10,11
 401 38 401 38 356.5 14 c 128,-1,12
 312 -10 312 -10 255 -10 c 0,13,14
 202 -10 202 -10 163 9.5 c 128,-1,15
 124 29 124 29 97.5 62 c 128,-1,16
 71 95 71 95 58 139.5 c 128,-1,17
 45 184 45 184 45 235 c 256,18,19
 45 286 45 286 58 330.5 c 128,-1,20
 71 375 71 375 95.5 408 c 128,-1,21
 120 441 120 441 156.5 460.5 c 128,-1,22
 193 480 193 480 240 480 c 0,23,24
 342 480 342 480 391 423 c 128,-1,25
 440 366 440 366 440 260 c 1,26,-1
 438 220 l 1,0,-1
350 260 m 1,27,28
 350 343 350 343 324 389 c 128,-1,29
 298 435 298 435 245 435 c 0,30,31
 222 435 222 435 203 421.5 c 128,-1,32
 184 408 184 408 170 385 c 128,-1,33
 156 362 156 362 148 329.5 c 128,-1,34
 140 297 140 297 140 260 c 1,35,-1
 350 260 l 1,27,28
370 590 m 256,36,37
 370 571 370 571 357 558 c 128,-1,38
 344 545 344 545 325 545 c 256,39,40
 306 545 306 545 293 558 c 128,-1,41
 280 571 280 571 280 590 c 256,42,43
 280 609 280 609 293 622 c 128,-1,44
 306 635 306 635 325 635 c 256,45,46
 344 635 344 635 357 622 c 128,-1,47
 370 609 370 609 370 590 c 256,36,37
200 590 m 256,48,49
 200 571 200 571 187 558 c 128,-1,50
 174 545 174 545 155 545 c 256,51,52
 136 545 136 545 123 558 c 128,-1,53
 110 571 110 571 110 590 c 256,54,55
 110 609 110 609 123 622 c 128,-1,56
 136 635 136 635 155 635 c 256,57,58
 174 635 174 635 187 622 c 128,-1,59
 200 609 200 609 200 590 c 256,48,49
EndSplineSet
EndChar

StartChar: igrave
Encoding: 236 236 176
Width: 246
Flags: W
LayerCount: 2
Fore
SplineSet
177 0 m 1,0,-1
 87 0 l 1,1,-1
 87 350 l 2,2,3
 87 395 87 395 74.5 422.5 c 128,-1,4
 62 450 62 450 17 450 c 2,5,-1
 -3 450 l 1,6,-1
 -3 470 l 1,7,-1
 87 470 l 2,8,9
 113 470 113 470 130.5 465.5 c 128,-1,10
 148 461 148 461 158.5 447.5 c 128,-1,11
 169 434 169 434 173 410.5 c 128,-1,12
 177 387 177 387 177 350 c 2,13,-1
 177 0 l 1,0,-1
22 655 m 1,14,-1
 117 655 l 1,15,-1
 157 525 l 1,16,-1
 117 525 l 1,17,-1
 22 655 l 1,14,-1
EndSplineSet
EndChar

StartChar: iacute
Encoding: 237 237 177
Width: 246
Flags: W
LayerCount: 2
Fore
SplineSet
177 0 m 1,0,-1
 87 0 l 1,1,-1
 87 350 l 2,2,3
 87 395 87 395 74.5 422.5 c 128,-1,4
 62 450 62 450 17 450 c 2,5,-1
 -3 450 l 1,6,-1
 -3 470 l 1,7,-1
 87 470 l 2,8,9
 113 470 113 470 130.5 465.5 c 128,-1,10
 148 461 148 461 158.5 447.5 c 128,-1,11
 169 434 169 434 173 410.5 c 128,-1,12
 177 387 177 387 177 350 c 2,13,-1
 177 0 l 1,0,-1
132 525 m 1,14,-1
 92 525 l 1,15,-1
 132 655 l 1,16,-1
 227 655 l 1,17,-1
 132 525 l 1,14,-1
EndSplineSet
EndChar

StartChar: icircumflex
Encoding: 238 238 178
Width: 246
Flags: W
LayerCount: 2
Fore
SplineSet
177 0 m 1,0,-1
 87 0 l 1,1,-1
 87 350 l 2,2,3
 87 395 87 395 74.5 422.5 c 128,-1,4
 62 450 62 450 17 450 c 2,5,-1
 -3 450 l 1,6,-1
 -3 470 l 1,7,-1
 87 470 l 2,8,9
 113 470 113 470 130.5 465.5 c 128,-1,10
 148 461 148 461 158.5 447.5 c 128,-1,11
 169 434 169 434 173 410.5 c 128,-1,12
 177 387 177 387 177 350 c 2,13,-1
 177 0 l 1,0,-1
132 611 m 1,14,-1
 47 531 l 1,15,-1
 -3 531 l 1,16,-1
 77 646 l 1,17,-1
 187 646 l 1,18,-1
 267 531 l 1,19,-1
 217 531 l 1,20,-1
 132 611 l 1,14,-1
EndSplineSet
EndChar

StartChar: idieresis
Encoding: 239 239 179
Width: 246
Flags: W
LayerCount: 2
Fore
SplineSet
177 0 m 1,0,-1
 87 0 l 1,1,-1
 87 350 l 2,2,3
 87 395 87 395 74.5 422.5 c 128,-1,4
 62 450 62 450 17 450 c 2,5,-1
 -3 450 l 1,6,-1
 -3 470 l 1,7,-1
 87 470 l 2,8,9
 113 470 113 470 130.5 465.5 c 128,-1,10
 148 461 148 461 158.5 447.5 c 128,-1,11
 169 434 169 434 173 410.5 c 128,-1,12
 177 387 177 387 177 350 c 2,13,-1
 177 0 l 1,0,-1
98 585 m 0,14,15
 98 564 98 564 85.5 552 c 128,-1,16
 73 540 73 540 52 540 c 0,17,18
 29 540 29 540 12.5 559 c 128,-1,19
 -4 578 -4 578 -4 604 c 0,20,21
 -4 625 -4 625 8.5 637 c 128,-1,22
 21 649 21 649 42 649 c 0,23,24
 65 649 65 649 81.5 630 c 128,-1,25
 98 611 98 611 98 585 c 0,14,15
252 585 m 0,26,27
 252 564 252 564 239.5 552 c 128,-1,28
 227 540 227 540 206 540 c 0,29,30
 183 540 183 540 166.5 559 c 128,-1,31
 150 578 150 578 150 604 c 0,32,33
 150 625 150 625 162.5 637 c 128,-1,34
 175 649 175 649 196 649 c 0,35,36
 219 649 219 649 235.5 630 c 128,-1,37
 252 611 252 611 252 585 c 0,26,27
EndSplineSet
EndChar

StartChar: ntilde
Encoding: 241 241 180
Width: 544
Flags: W
LayerCount: 2
Fore
SplineSet
87 350 m 2,0,1
 87 395 87 395 74.5 422.5 c 128,-1,2
 62 450 62 450 17 450 c 2,3,-1
 -3 450 l 1,4,-1
 -3 470 l 1,5,-1
 87 470 l 2,6,7
 125 470 125 470 144.5 459.5 c 128,-1,8
 164 449 164 449 172 430 c 1,9,-1
 177 430 l 1,10,11
 196 449 196 449 229 464.5 c 128,-1,12
 262 480 262 480 307 480 c 0,13,14
 339 480 339 480 369.5 472.5 c 128,-1,15
 400 465 400 465 424 444.5 c 128,-1,16
 448 424 448 424 462.5 389 c 128,-1,17
 477 354 477 354 477 300 c 2,18,-1
 477 0 l 1,19,-1
 387 0 l 1,20,-1
 387 300 l 2,21,22
 387 337 387 337 377.5 363 c 128,-1,23
 368 389 368 389 352.5 405 c 128,-1,24
 337 421 337 421 317.5 428 c 128,-1,25
 298 435 298 435 277 435 c 0,26,27
 247 435 247 435 221.5 419 c 128,-1,28
 196 403 196 403 177 382 c 1,29,-1
 177 0 l 1,30,-1
 87 0 l 1,31,-1
 87 350 l 2,0,1
169 544 m 1,32,33
 169 597 169 597 184 618 c 128,-1,34
 199 639 199 639 229 639 c 0,35,36
 245 639 245 639 258 632.5 c 128,-1,37
 271 626 271 626 283 618.5 c 128,-1,38
 295 611 295 611 307 605 c 128,-1,39
 319 599 319 599 334 599 c 0,40,41
 345 599 345 599 354.5 613.5 c 128,-1,42
 364 628 364 628 364 639 c 1,43,-1
 394 639 l 1,44,45
 394 586 394 586 379 565 c 128,-1,46
 364 544 364 544 334 544 c 0,47,48
 318 544 318 544 305.5 550 c 128,-1,49
 293 556 293 556 281 563.5 c 128,-1,50
 269 571 269 571 256.5 577.5 c 128,-1,51
 244 584 244 584 229 584 c 0,52,53
 218 584 218 584 208.5 569.5 c 128,-1,54
 199 555 199 555 199 544 c 1,55,-1
 169 544 l 1,32,33
EndSplineSet
EndChar

StartChar: ograve
Encoding: 242 242 181
Width: 528
Flags: W
LayerCount: 2
Fore
SplineSet
389 235 m 256,0,1
 389 278 389 278 380 315.5 c 128,-1,2
 371 353 371 353 354.5 380.5 c 128,-1,3
 338 408 338 408 315 424 c 128,-1,4
 292 440 292 440 264 440 c 256,5,6
 236 440 236 440 213 424 c 128,-1,7
 190 408 190 408 173.5 380.5 c 128,-1,8
 157 353 157 353 148 315.5 c 128,-1,9
 139 278 139 278 139 235 c 256,10,11
 139 192 139 192 148 154.5 c 128,-1,12
 157 117 157 117 173.5 89.5 c 128,-1,13
 190 62 190 62 213 46 c 128,-1,14
 236 30 236 30 264 30 c 256,15,16
 292 30 292 30 315 46 c 128,-1,17
 338 62 338 62 354.5 89.5 c 128,-1,18
 371 117 371 117 380 154.5 c 128,-1,19
 389 192 389 192 389 235 c 256,0,1
44 235 m 256,20,21
 44 286 44 286 58.5 330.5 c 128,-1,22
 73 375 73 375 101.5 408 c 128,-1,23
 130 441 130 441 170.5 460.5 c 128,-1,24
 211 480 211 480 264 480 c 0,25,26
 316 480 316 480 357 460.5 c 128,-1,27
 398 441 398 441 426.5 408 c 128,-1,28
 455 375 455 375 469.5 330.5 c 128,-1,29
 484 286 484 286 484 235 c 256,30,31
 484 184 484 184 469.5 139.5 c 128,-1,32
 455 95 455 95 426.5 62 c 128,-1,33
 398 29 398 29 357 9.5 c 128,-1,34
 316 -10 316 -10 264 -10 c 0,35,36
 211 -10 211 -10 170.5 9.5 c 128,-1,37
 130 29 130 29 101.5 62 c 128,-1,38
 73 95 73 95 58.5 139.5 c 128,-1,39
 44 184 44 184 44 235 c 256,20,21
159 655 m 1,40,-1
 254 655 l 1,41,-1
 294 525 l 1,42,-1
 254 525 l 1,43,-1
 159 655 l 1,40,-1
EndSplineSet
EndChar

StartChar: oacute
Encoding: 243 243 182
Width: 528
Flags: W
LayerCount: 2
Fore
SplineSet
389 235 m 256,0,1
 389 278 389 278 380 315.5 c 128,-1,2
 371 353 371 353 354.5 380.5 c 128,-1,3
 338 408 338 408 315 424 c 128,-1,4
 292 440 292 440 264 440 c 256,5,6
 236 440 236 440 213 424 c 128,-1,7
 190 408 190 408 173.5 380.5 c 128,-1,8
 157 353 157 353 148 315.5 c 128,-1,9
 139 278 139 278 139 235 c 256,10,11
 139 192 139 192 148 154.5 c 128,-1,12
 157 117 157 117 173.5 89.5 c 128,-1,13
 190 62 190 62 213 46 c 128,-1,14
 236 30 236 30 264 30 c 256,15,16
 292 30 292 30 315 46 c 128,-1,17
 338 62 338 62 354.5 89.5 c 128,-1,18
 371 117 371 117 380 154.5 c 128,-1,19
 389 192 389 192 389 235 c 256,0,1
44 235 m 256,20,21
 44 286 44 286 58.5 330.5 c 128,-1,22
 73 375 73 375 101.5 408 c 128,-1,23
 130 441 130 441 170.5 460.5 c 128,-1,24
 211 480 211 480 264 480 c 0,25,26
 316 480 316 480 357 460.5 c 128,-1,27
 398 441 398 441 426.5 408 c 128,-1,28
 455 375 455 375 469.5 330.5 c 128,-1,29
 484 286 484 286 484 235 c 256,30,31
 484 184 484 184 469.5 139.5 c 128,-1,32
 455 95 455 95 426.5 62 c 128,-1,33
 398 29 398 29 357 9.5 c 128,-1,34
 316 -10 316 -10 264 -10 c 0,35,36
 211 -10 211 -10 170.5 9.5 c 128,-1,37
 130 29 130 29 101.5 62 c 128,-1,38
 73 95 73 95 58.5 139.5 c 128,-1,39
 44 184 44 184 44 235 c 256,20,21
269 525 m 1,40,-1
 229 525 l 1,41,-1
 269 655 l 1,42,-1
 364 655 l 1,43,-1
 269 525 l 1,40,-1
EndSplineSet
EndChar

StartChar: ocircumflex
Encoding: 244 244 183
Width: 528
Flags: W
LayerCount: 2
Fore
SplineSet
389 235 m 256,0,1
 389 278 389 278 380 315.5 c 128,-1,2
 371 353 371 353 354.5 380.5 c 128,-1,3
 338 408 338 408 315 424 c 128,-1,4
 292 440 292 440 264 440 c 256,5,6
 236 440 236 440 213 424 c 128,-1,7
 190 408 190 408 173.5 380.5 c 128,-1,8
 157 353 157 353 148 315.5 c 128,-1,9
 139 278 139 278 139 235 c 256,10,11
 139 192 139 192 148 154.5 c 128,-1,12
 157 117 157 117 173.5 89.5 c 128,-1,13
 190 62 190 62 213 46 c 128,-1,14
 236 30 236 30 264 30 c 256,15,16
 292 30 292 30 315 46 c 128,-1,17
 338 62 338 62 354.5 89.5 c 128,-1,18
 371 117 371 117 380 154.5 c 128,-1,19
 389 192 389 192 389 235 c 256,0,1
44 235 m 256,20,21
 44 286 44 286 58.5 330.5 c 128,-1,22
 73 375 73 375 101.5 408 c 128,-1,23
 130 441 130 441 170.5 460.5 c 128,-1,24
 211 480 211 480 264 480 c 0,25,26
 316 480 316 480 357 460.5 c 128,-1,27
 398 441 398 441 426.5 408 c 128,-1,28
 455 375 455 375 469.5 330.5 c 128,-1,29
 484 286 484 286 484 235 c 256,30,31
 484 184 484 184 469.5 139.5 c 128,-1,32
 455 95 455 95 426.5 62 c 128,-1,33
 398 29 398 29 357 9.5 c 128,-1,34
 316 -10 316 -10 264 -10 c 0,35,36
 211 -10 211 -10 170.5 9.5 c 128,-1,37
 130 29 130 29 101.5 62 c 128,-1,38
 73 95 73 95 58.5 139.5 c 128,-1,39
 44 184 44 184 44 235 c 256,20,21
264 605 m 1,40,-1
 179 525 l 1,41,-1
 129 525 l 1,42,-1
 209 640 l 1,43,-1
 319 640 l 1,44,-1
 399 525 l 1,45,-1
 349 525 l 1,46,-1
 264 605 l 1,40,-1
EndSplineSet
EndChar

StartChar: otilde
Encoding: 245 245 184
Width: 528
Flags: W
LayerCount: 2
Fore
SplineSet
389 235 m 256,0,1
 389 278 389 278 380 315.5 c 128,-1,2
 371 353 371 353 354.5 380.5 c 128,-1,3
 338 408 338 408 315 424 c 128,-1,4
 292 440 292 440 264 440 c 256,5,6
 236 440 236 440 213 424 c 128,-1,7
 190 408 190 408 173.5 380.5 c 128,-1,8
 157 353 157 353 148 315.5 c 128,-1,9
 139 278 139 278 139 235 c 256,10,11
 139 192 139 192 148 154.5 c 128,-1,12
 157 117 157 117 173.5 89.5 c 128,-1,13
 190 62 190 62 213 46 c 128,-1,14
 236 30 236 30 264 30 c 256,15,16
 292 30 292 30 315 46 c 128,-1,17
 338 62 338 62 354.5 89.5 c 128,-1,18
 371 117 371 117 380 154.5 c 128,-1,19
 389 192 389 192 389 235 c 256,0,1
44 235 m 256,20,21
 44 286 44 286 58.5 330.5 c 128,-1,22
 73 375 73 375 101.5 408 c 128,-1,23
 130 441 130 441 170.5 460.5 c 128,-1,24
 211 480 211 480 264 480 c 0,25,26
 316 480 316 480 357 460.5 c 128,-1,27
 398 441 398 441 426.5 408 c 128,-1,28
 455 375 455 375 469.5 330.5 c 128,-1,29
 484 286 484 286 484 235 c 256,30,31
 484 184 484 184 469.5 139.5 c 128,-1,32
 455 95 455 95 426.5 62 c 128,-1,33
 398 29 398 29 357 9.5 c 128,-1,34
 316 -10 316 -10 264 -10 c 0,35,36
 211 -10 211 -10 170.5 9.5 c 128,-1,37
 130 29 130 29 101.5 62 c 128,-1,38
 73 95 73 95 58.5 139.5 c 128,-1,39
 44 184 44 184 44 235 c 256,20,21
151 535 m 1,40,41
 151 588 151 588 166 609 c 128,-1,42
 181 630 181 630 211 630 c 0,43,44
 227 630 227 630 240 623.5 c 128,-1,45
 253 617 253 617 265 609.5 c 128,-1,46
 277 602 277 602 289 596 c 128,-1,47
 301 590 301 590 316 590 c 0,48,49
 327 590 327 590 336.5 604.5 c 128,-1,50
 346 619 346 619 346 630 c 1,51,-1
 376 630 l 1,52,53
 376 577 376 577 361 556 c 128,-1,54
 346 535 346 535 316 535 c 0,55,56
 300 535 300 535 287.5 541 c 128,-1,57
 275 547 275 547 263 554.5 c 128,-1,58
 251 562 251 562 238.5 568.5 c 128,-1,59
 226 575 226 575 211 575 c 0,60,61
 200 575 200 575 190.5 560.5 c 128,-1,62
 181 546 181 546 181 535 c 1,63,-1
 151 535 l 1,40,41
EndSplineSet
EndChar

StartChar: oslash
Encoding: 248 248 185
Width: 528
Flags: W
LayerCount: 2
Fore
SplineSet
64 0 m 1,0,-1
 104 58 l 1,1,2
 75 92 75 92 59.5 137 c 128,-1,3
 44 182 44 182 44 235 c 0,4,5
 44 286 44 286 58.5 330.5 c 128,-1,6
 73 375 73 375 101.5 408 c 128,-1,7
 130 441 130 441 170.5 460.5 c 128,-1,8
 211 480 211 480 264 480 c 0,9,10
 297 480 297 480 325.5 472 c 128,-1,11
 354 464 354 464 377 450 c 1,12,-1
 391 470 l 1,13,-1
 464 470 l 1,14,-1
 423 411 l 1,15,16
 452 378 452 378 468 332.5 c 128,-1,17
 484 287 484 287 484 235 c 0,18,19
 484 184 484 184 469.5 139.5 c 128,-1,20
 455 95 455 95 426.5 62 c 128,-1,21
 398 29 398 29 357 9.5 c 128,-1,22
 316 -10 316 -10 264 -10 c 0,23,24
 231 -10 231 -10 202.5 -2 c 128,-1,25
 174 6 174 6 150 20 c 1,26,-1
 137 0 l 1,27,-1
 64 0 l 1,0,-1
389 235 m 0,28,29
 389 264 389 264 385 290 c 128,-1,30
 381 316 381 316 373 339 c 1,31,-1
 186 71 l 1,32,33
 218 30 218 30 264 30 c 0,34,35
 292 30 292 30 315 46 c 128,-1,36
 338 62 338 62 354.5 89.5 c 128,-1,37
 371 117 371 117 380 154.5 c 128,-1,38
 389 192 389 192 389 235 c 0,28,29
139 235 m 0,39,40
 139 206 139 206 143 180 c 128,-1,41
 147 154 147 154 155 131 c 1,42,-1
 342 399 l 1,43,44
 309 440 309 440 264 440 c 0,45,46
 236 440 236 440 213 424 c 128,-1,47
 190 408 190 408 173.5 380.5 c 128,-1,48
 157 353 157 353 148 315.5 c 128,-1,49
 139 278 139 278 139 235 c 0,39,40
EndSplineSet
EndChar

StartChar: ugrave
Encoding: 249 249 186
Width: 535
Flags: W
LayerCount: 2
Fore
SplineSet
463 0 m 1,0,-1
 413 0 l 1,1,-1
 378 40 l 1,2,-1
 373 40 l 1,3,4
 354 21 354 21 321 5.5 c 128,-1,5
 288 -10 288 -10 243 -10 c 0,6,7
 211 -10 211 -10 180.5 -2.5 c 128,-1,8
 150 5 150 5 126 25.5 c 128,-1,9
 102 46 102 46 87.5 81 c 128,-1,10
 73 116 73 116 73 170 c 2,11,-1
 73 350 l 2,12,13
 73 395 73 395 60.5 422.5 c 128,-1,14
 48 450 48 450 3 450 c 2,15,-1
 -7 450 l 1,16,-1
 -7 470 l 1,17,-1
 73 470 l 2,18,19
 99 470 99 470 116.5 465.5 c 128,-1,20
 134 461 134 461 144.5 447.5 c 128,-1,21
 155 434 155 434 159 410.5 c 128,-1,22
 163 387 163 387 163 350 c 2,23,-1
 163 170 l 2,24,25
 163 132 163 132 172.5 106.5 c 128,-1,26
 182 81 182 81 197.5 65 c 128,-1,27
 213 49 213 49 232.5 42 c 128,-1,28
 252 35 252 35 273 35 c 0,29,30
 303 35 303 35 328.5 51 c 128,-1,31
 354 67 354 67 373 88 c 1,32,-1
 373 470 l 1,33,-1
 463 470 l 1,34,-1
 463 0 l 1,0,-1
159 630 m 1,35,-1
 254 630 l 1,36,-1
 294 500 l 1,37,-1
 254 500 l 1,38,-1
 159 630 l 1,35,-1
EndSplineSet
EndChar

StartChar: uacute
Encoding: 250 250 187
Width: 535
Flags: W
LayerCount: 2
Fore
SplineSet
463 0 m 1,0,-1
 413 0 l 1,1,-1
 378 40 l 1,2,-1
 373 40 l 1,3,4
 354 21 354 21 321 5.5 c 128,-1,5
 288 -10 288 -10 243 -10 c 0,6,7
 211 -10 211 -10 180.5 -2.5 c 128,-1,8
 150 5 150 5 126 25.5 c 128,-1,9
 102 46 102 46 87.5 81 c 128,-1,10
 73 116 73 116 73 170 c 2,11,-1
 73 350 l 2,12,13
 73 395 73 395 60.5 422.5 c 128,-1,14
 48 450 48 450 3 450 c 2,15,-1
 -7 450 l 1,16,-1
 -7 470 l 1,17,-1
 73 470 l 2,18,19
 99 470 99 470 116.5 465.5 c 128,-1,20
 134 461 134 461 144.5 447.5 c 128,-1,21
 155 434 155 434 159 410.5 c 128,-1,22
 163 387 163 387 163 350 c 2,23,-1
 163 170 l 2,24,25
 163 132 163 132 172.5 106.5 c 128,-1,26
 182 81 182 81 197.5 65 c 128,-1,27
 213 49 213 49 232.5 42 c 128,-1,28
 252 35 252 35 273 35 c 0,29,30
 303 35 303 35 328.5 51 c 128,-1,31
 354 67 354 67 373 88 c 1,32,-1
 373 470 l 1,33,-1
 463 470 l 1,34,-1
 463 0 l 1,0,-1
279 500 m 1,35,-1
 239 500 l 1,36,-1
 279 630 l 1,37,-1
 374 630 l 1,38,-1
 279 500 l 1,35,-1
EndSplineSet
EndChar

StartChar: ucircumflex
Encoding: 251 251 188
Width: 535
Flags: W
LayerCount: 2
Fore
SplineSet
463 0 m 1,0,-1
 413 0 l 1,1,-1
 378 40 l 1,2,-1
 373 40 l 1,3,4
 354 21 354 21 321 5.5 c 128,-1,5
 288 -10 288 -10 243 -10 c 0,6,7
 211 -10 211 -10 180.5 -2.5 c 128,-1,8
 150 5 150 5 126 25.5 c 128,-1,9
 102 46 102 46 87.5 81 c 128,-1,10
 73 116 73 116 73 170 c 2,11,-1
 73 350 l 2,12,13
 73 395 73 395 60.5 422.5 c 128,-1,14
 48 450 48 450 3 450 c 2,15,-1
 -7 450 l 1,16,-1
 -7 470 l 1,17,-1
 73 470 l 2,18,19
 99 470 99 470 116.5 465.5 c 128,-1,20
 134 461 134 461 144.5 447.5 c 128,-1,21
 155 434 155 434 159 410.5 c 128,-1,22
 163 387 163 387 163 350 c 2,23,-1
 163 170 l 2,24,25
 163 132 163 132 172.5 106.5 c 128,-1,26
 182 81 182 81 197.5 65 c 128,-1,27
 213 49 213 49 232.5 42 c 128,-1,28
 252 35 252 35 273 35 c 0,29,30
 303 35 303 35 328.5 51 c 128,-1,31
 354 67 354 67 373 88 c 1,32,-1
 373 470 l 1,33,-1
 463 470 l 1,34,-1
 463 0 l 1,0,-1
258 605 m 1,35,-1
 173 525 l 1,36,-1
 123 525 l 1,37,-1
 203 640 l 1,38,-1
 313 640 l 1,39,-1
 393 525 l 1,40,-1
 343 525 l 1,41,-1
 258 605 l 1,35,-1
EndSplineSet
EndChar

StartChar: udieresis
Encoding: 252 252 189
Width: 535
Flags: W
LayerCount: 2
Fore
SplineSet
463 0 m 1,0,-1
 413 0 l 1,1,-1
 378 40 l 1,2,-1
 373 40 l 1,3,4
 354 21 354 21 321 5.5 c 128,-1,5
 288 -10 288 -10 243 -10 c 0,6,7
 211 -10 211 -10 180.5 -2.5 c 128,-1,8
 150 5 150 5 126 25.5 c 128,-1,9
 102 46 102 46 87.5 81 c 128,-1,10
 73 116 73 116 73 170 c 2,11,-1
 73 350 l 2,12,13
 73 395 73 395 60.5 422.5 c 128,-1,14
 48 450 48 450 3 450 c 2,15,-1
 -7 450 l 1,16,-1
 -7 470 l 1,17,-1
 73 470 l 2,18,19
 99 470 99 470 116.5 465.5 c 128,-1,20
 134 461 134 461 144.5 447.5 c 128,-1,21
 155 434 155 434 159 410.5 c 128,-1,22
 163 387 163 387 163 350 c 2,23,-1
 163 170 l 2,24,25
 163 132 163 132 172.5 106.5 c 128,-1,26
 182 81 182 81 197.5 65 c 128,-1,27
 213 49 213 49 232.5 42 c 128,-1,28
 252 35 252 35 273 35 c 0,29,30
 303 35 303 35 328.5 51 c 128,-1,31
 354 67 354 67 373 88 c 1,32,-1
 373 470 l 1,33,-1
 463 470 l 1,34,-1
 463 0 l 1,0,-1
388 565 m 256,35,36
 388 546 388 546 375 533 c 128,-1,37
 362 520 362 520 343 520 c 256,38,39
 324 520 324 520 311 533 c 128,-1,40
 298 546 298 546 298 565 c 256,41,42
 298 584 298 584 311 597 c 128,-1,43
 324 610 324 610 343 610 c 256,44,45
 362 610 362 610 375 597 c 128,-1,46
 388 584 388 584 388 565 c 256,35,36
218 565 m 256,47,48
 218 546 218 546 205 533 c 128,-1,49
 192 520 192 520 173 520 c 256,50,51
 154 520 154 520 141 533 c 128,-1,52
 128 546 128 546 128 565 c 256,53,54
 128 584 128 584 141 597 c 128,-1,55
 154 610 154 610 173 610 c 256,56,57
 192 610 192 610 205 597 c 128,-1,58
 218 584 218 584 218 565 c 256,47,48
EndSplineSet
EndChar

StartChar: ydieresis
Encoding: 255 255 190
Width: 514
Flags: W
LayerCount: 2
Fore
SplineSet
420 565 m 256,0,1
 420 546 420 546 407 533 c 128,-1,2
 394 520 394 520 375 520 c 256,3,4
 356 520 356 520 343 533 c 128,-1,5
 330 546 330 546 330 565 c 256,6,7
 330 584 330 584 343 597 c 128,-1,8
 356 610 356 610 375 610 c 256,9,10
 394 610 394 610 407 597 c 128,-1,11
 420 584 420 584 420 565 c 256,0,1
250 565 m 256,12,13
 250 546 250 546 237 533 c 128,-1,14
 224 520 224 520 205 520 c 256,15,16
 186 520 186 520 173 533 c 128,-1,17
 160 546 160 546 160 565 c 256,18,19
 160 584 160 584 173 597 c 128,-1,20
 186 610 186 610 205 610 c 256,21,22
 224 610 224 610 237 597 c 128,-1,23
 250 584 250 584 250 565 c 256,12,13
260 -10 m 1,24,-1
 100 380 l 2,25,26
 85 418 85 418 56.5 437 c 128,-1,27
 28 456 28 456 -10 460 c 1,28,-1
 -10 480 l 1,29,-1
 75 480 l 2,30,31
 120 480 120 480 149.5 459 c 128,-1,32
 179 438 179 438 195 400 c 2,33,-1
 309 123 l 1,34,-1
 435 470 l 1,35,-1
 485 470 l 1,36,-1
 290 -65 l 2,37,38
 275 -106 275 -106 258.5 -132.5 c 128,-1,39
 242 -159 242 -159 223.5 -174 c 128,-1,40
 205 -189 205 -189 183 -194.5 c 128,-1,41
 161 -200 161 -200 135 -200 c 2,42,-1
 105 -200 l 1,43,-1
 105 -170 l 1,44,45
 127 -170 127 -170 147 -165.5 c 128,-1,46
 167 -161 167 -161 183.5 -149.5 c 128,-1,47
 200 -138 200 -138 214 -117.5 c 128,-1,48
 228 -97 228 -97 240 -65 c 2,49,-1
 260 -10 l 1,24,-1
EndSplineSet
EndChar

StartChar: Ocircumflex
Encoding: 212 212 191
Width: 712
Flags: W
LayerCount: 2
Fore
SplineSet
566 330 m 256,0,1
 566 401 566 401 551.5 458.5 c 128,-1,2
 537 516 537 516 510 556.5 c 128,-1,3
 483 597 483 597 444 618.5 c 128,-1,4
 405 640 405 640 356 640 c 256,5,6
 307 640 307 640 268 618.5 c 128,-1,7
 229 597 229 597 202 556.5 c 128,-1,8
 175 516 175 516 160.5 458.5 c 128,-1,9
 146 401 146 401 146 330 c 256,10,11
 146 259 146 259 160.5 201.5 c 128,-1,12
 175 144 175 144 202 103.5 c 128,-1,13
 229 63 229 63 268 41.5 c 128,-1,14
 307 20 307 20 356 20 c 256,15,16
 405 20 405 20 444 41.5 c 128,-1,17
 483 63 483 63 510 103.5 c 128,-1,18
 537 144 537 144 551.5 201.5 c 128,-1,19
 566 259 566 259 566 330 c 256,0,1
46 330 m 0,20,21
 46 403 46 403 67.5 467 c 128,-1,22
 89 531 89 531 129.5 578.5 c 128,-1,23
 170 626 170 626 227.5 653 c 128,-1,24
 285 680 285 680 356 680 c 256,25,26
 427 680 427 680 484.5 653 c 128,-1,27
 542 626 542 626 582.5 578.5 c 128,-1,28
 623 531 623 531 644.5 467 c 128,-1,29
 666 403 666 403 666 330 c 0,30,31
 666 256 666 256 644.5 192.5 c 128,-1,32
 623 129 623 129 582.5 81.5 c 128,-1,33
 542 34 542 34 484.5 7 c 128,-1,34
 427 -20 427 -20 356 -20 c 256,35,36
 285 -20 285 -20 227.5 7 c 128,-1,37
 170 34 170 34 129.5 81.5 c 128,-1,38
 89 129 89 129 67.5 192.5 c 128,-1,39
 46 256 46 256 46 330 c 0,20,21
351 800 m 1,40,-1
 266 720 l 1,41,-1
 216 720 l 1,42,-1
 296 835 l 1,43,-1
 406 835 l 1,44,-1
 486 720 l 1,45,-1
 436 720 l 1,46,-1
 351 800 l 1,40,-1
EndSplineSet
EndChar

StartChar: ae
Encoding: 230 230 192
Width: 759
Flags: W
LayerCount: 2
Fore
SplineSet
712 220 m 1,0,-1
 414 220 l 1,1,2
 414 179 414 179 423 144 c 128,-1,3
 432 109 432 109 449.5 83.5 c 128,-1,4
 467 58 467 58 492 44 c 128,-1,5
 517 30 517 30 549 30 c 0,6,7
 598 30 598 30 630.5 51 c 128,-1,8
 663 72 663 72 689 110 c 1,9,-1
 709 95 l 1,10,11
 675 38 675 38 630.5 14 c 128,-1,12
 586 -10 586 -10 529 -10 c 0,13,14
 470 -10 470 -10 427.5 11.5 c 128,-1,15
 385 33 385 33 359 75 c 1,16,17
 348 54 348 54 333.5 38.5 c 128,-1,18
 319 23 319 23 300 12 c 128,-1,19
 281 1 281 1 256.5 -4.5 c 128,-1,20
 232 -10 232 -10 199 -10 c 0,21,22
 173 -10 173 -10 144.5 -3.5 c 128,-1,23
 116 3 116 3 92.5 18.5 c 128,-1,24
 69 34 69 34 54 60 c 128,-1,25
 39 86 39 86 39 125 c 256,26,27
 39 164 39 164 60 190 c 128,-1,28
 81 216 81 216 116 231.5 c 128,-1,29
 151 247 151 247 197 253.5 c 128,-1,30
 243 260 243 260 294 260 c 2,31,-1
 324 260 l 1,32,33
 324 316 324 316 316 351.5 c 128,-1,34
 308 387 308 387 294 406.5 c 128,-1,35
 280 426 280 426 260.5 433 c 128,-1,36
 241 440 241 440 219 440 c 0,37,38
 177 440 177 440 148.5 422 c 128,-1,39
 120 404 120 404 109 355 c 1,40,-1
 64 355 l 1,41,42
 64 381 64 381 67 403.5 c 128,-1,43
 70 426 70 426 89 445 c 0,44,45
 98 454 98 454 114.5 461 c 128,-1,46
 131 468 131 468 151 472 c 128,-1,47
 171 476 171 476 193.5 478 c 128,-1,48
 216 480 216 480 239 480 c 0,49,50
 292 480 292 480 328 454 c 128,-1,51
 364 428 364 428 379 390 c 1,52,53
 394 428 394 428 429.5 454 c 128,-1,54
 465 480 465 480 514 480 c 0,55,56
 616 480 616 480 665 423 c 128,-1,57
 714 366 714 366 714 260 c 1,58,-1
 712 220 l 1,0,-1
624 260 m 1,59,60
 624 343 624 343 598 389 c 128,-1,61
 572 435 572 435 519 435 c 0,62,63
 496 435 496 435 477 421.5 c 128,-1,64
 458 408 458 408 444 385 c 128,-1,65
 430 362 430 362 422 329.5 c 128,-1,66
 414 297 414 297 414 260 c 1,67,-1
 624 260 l 1,59,60
324 220 m 1,68,-1
 294 220 l 2,69,70
 219 220 219 220 176.5 193.5 c 128,-1,71
 134 167 134 167 134 125 c 0,72,73
 134 80 134 80 162.5 57.5 c 128,-1,74
 191 35 191 35 229 35 c 0,75,76
 266 35 266 35 287.5 53.5 c 128,-1,77
 309 72 309 72 324 95 c 1,78,-1
 324 220 l 1,68,-1
EndSplineSet
EndChar

StartChar: odieresis
Encoding: 246 246 193
Width: 528
Flags: W
LayerCount: 2
Fore
SplineSet
389 235 m 256,0,1
 389 278 389 278 380 315.5 c 128,-1,2
 371 353 371 353 354.5 380.5 c 128,-1,3
 338 408 338 408 315 424 c 128,-1,4
 292 440 292 440 264 440 c 256,5,6
 236 440 236 440 213 424 c 128,-1,7
 190 408 190 408 173.5 380.5 c 128,-1,8
 157 353 157 353 148 315.5 c 128,-1,9
 139 278 139 278 139 235 c 256,10,11
 139 192 139 192 148 154.5 c 128,-1,12
 157 117 157 117 173.5 89.5 c 128,-1,13
 190 62 190 62 213 46 c 128,-1,14
 236 30 236 30 264 30 c 256,15,16
 292 30 292 30 315 46 c 128,-1,17
 338 62 338 62 354.5 89.5 c 128,-1,18
 371 117 371 117 380 154.5 c 128,-1,19
 389 192 389 192 389 235 c 256,0,1
44 235 m 256,20,21
 44 286 44 286 58.5 330.5 c 128,-1,22
 73 375 73 375 101.5 408 c 128,-1,23
 130 441 130 441 170.5 460.5 c 128,-1,24
 211 480 211 480 264 480 c 0,25,26
 316 480 316 480 357 460.5 c 128,-1,27
 398 441 398 441 426.5 408 c 128,-1,28
 455 375 455 375 469.5 330.5 c 128,-1,29
 484 286 484 286 484 235 c 256,30,31
 484 184 484 184 469.5 139.5 c 128,-1,32
 455 95 455 95 426.5 62 c 128,-1,33
 398 29 398 29 357 9.5 c 128,-1,34
 316 -10 316 -10 264 -10 c 0,35,36
 211 -10 211 -10 170.5 9.5 c 128,-1,37
 130 29 130 29 101.5 62 c 128,-1,38
 73 95 73 95 58.5 139.5 c 128,-1,39
 44 184 44 184 44 235 c 256,20,21
394 580 m 256,40,41
 394 561 394 561 381 548 c 128,-1,42
 368 535 368 535 349 535 c 256,43,44
 330 535 330 535 317 548 c 128,-1,45
 304 561 304 561 304 580 c 256,46,47
 304 599 304 599 317 612 c 128,-1,48
 330 625 330 625 349 625 c 256,49,50
 368 625 368 625 381 612 c 128,-1,51
 394 599 394 599 394 580 c 256,40,41
224 580 m 256,52,53
 224 561 224 561 211 548 c 128,-1,54
 198 535 198 535 179 535 c 256,55,56
 160 535 160 535 147 548 c 128,-1,57
 134 561 134 561 134 580 c 256,58,59
 134 599 134 599 147 612 c 128,-1,60
 160 625 160 625 179 625 c 256,61,62
 198 625 198 625 211 612 c 128,-1,63
 224 599 224 599 224 580 c 256,52,53
EndSplineSet
EndChar

StartChar: divide
Encoding: 247 247 194
Width: 564
Flags: W
LayerCount: 2
Fore
SplineSet
62 300 m 1,0,-1
 62 360 l 1,1,-1
 502 360 l 1,2,-1
 502 300 l 1,3,-1
 62 300 l 1,0,-1
327 190 m 256,4,5
 327 171 327 171 314 158 c 128,-1,6
 301 145 301 145 282 145 c 256,7,8
 263 145 263 145 250 158 c 128,-1,9
 237 171 237 171 237 190 c 256,10,11
 237 209 237 209 250 222 c 128,-1,12
 263 235 263 235 282 235 c 256,13,14
 301 235 301 235 314 222 c 128,-1,15
 327 209 327 209 327 190 c 256,4,5
327 470 m 256,16,17
 327 451 327 451 314 438 c 128,-1,18
 301 425 301 425 282 425 c 256,19,20
 263 425 263 425 250 438 c 128,-1,21
 237 451 237 451 237 470 c 256,22,23
 237 489 237 489 250 502 c 128,-1,24
 263 515 263 515 282 515 c 256,25,26
 301 515 301 515 314 502 c 128,-1,27
 327 489 327 489 327 470 c 256,16,17
EndSplineSet
EndChar

StartChar: dagger
Encoding: 8224 8224 195
Width: 523
Flags: W
LayerCount: 2
Fore
SplineSet
216 470 m 1,0,-1
 216 680 l 1,1,-1
 306 680 l 1,2,-1
 306 470 l 1,3,-1
 496 470 l 1,4,-1
 496 410 l 1,5,-1
 306 410 l 1,6,-1
 306 -190 l 1,7,-1
 216 -190 l 1,8,-1
 216 410 l 1,9,-1
 27 410 l 1,10,-1
 27 470 l 1,11,-1
 216 470 l 1,0,-1
EndSplineSet
EndChar

StartChar: daggerdbl
Encoding: 8225 8225 196
Width: 555
Flags: W
LayerCount: 2
Fore
SplineSet
232 470 m 1,0,-1
 232 680 l 1,1,-1
 322 680 l 1,2,-1
 322 470 l 1,3,-1
 512 470 l 1,4,-1
 512 410 l 1,5,-1
 322 410 l 1,6,-1
 322 80 l 1,7,-1
 512 80 l 1,8,-1
 512 20 l 1,9,-1
 322 20 l 1,10,-1
 322 -190 l 1,11,-1
 232 -190 l 1,12,-1
 232 20 l 1,13,-1
 43 20 l 1,14,-1
 43 80 l 1,15,-1
 232 80 l 1,16,-1
 232 410 l 1,17,-1
 43 410 l 1,18,-1
 43 470 l 1,19,-1
 232 470 l 1,0,-1
EndSplineSet
EndChar

StartChar: cent
Encoding: 162 162 197
Width: 483
Flags: W
LayerCount: 2
Fore
SplineSet
280 520 m 1,0,-1
 280 480 l 1,1,2
 322 480 322 480 355 471 c 128,-1,3
 388 462 388 462 405 445 c 0,4,5
 414 436 414 436 419.5 425 c 128,-1,6
 425 414 425 414 427 399 c 128,-1,7
 429 384 429 384 429.5 363.5 c 128,-1,8
 430 343 430 343 430 315 c 1,9,-1
 410 315 l 1,10,11
 406 379 406 379 369.5 409.5 c 128,-1,12
 333 440 333 440 280 440 c 1,13,-1
 280 30 l 1,14,15
 333 30 333 30 366 51 c 128,-1,16
 399 72 399 72 425 110 c 1,17,-1
 445 95 l 1,18,19
 414 43 414 43 373.5 18.5 c 128,-1,20
 333 -6 333 -6 280 -10 c 1,21,-1
 280 -50 l 1,22,-1
 240 -50 l 1,23,-1
 240 -10 l 1,24,25
 189 -6 189 -6 151.5 14.5 c 128,-1,26
 114 35 114 35 89.5 68 c 128,-1,27
 65 101 65 101 52.5 144 c 128,-1,28
 40 187 40 187 40 235 c 256,29,30
 40 283 40 283 52.5 326 c 128,-1,31
 65 369 65 369 89.5 402 c 128,-1,32
 114 435 114 435 151.5 455.5 c 128,-1,33
 189 476 189 476 240 480 c 1,34,-1
 240 520 l 1,35,-1
 280 520 l 1,0,-1
135 235 m 256,36,37
 135 198 135 198 141.5 165 c 128,-1,38
 148 132 148 132 161 105.5 c 128,-1,39
 174 79 174 79 194 60.5 c 128,-1,40
 214 42 214 42 240 35 c 1,41,-1
 240 435 l 1,42,43
 214 427 214 427 194 409 c 128,-1,44
 174 391 174 391 161 364.5 c 128,-1,45
 148 338 148 338 141.5 305 c 128,-1,46
 135 272 135 272 135 235 c 256,36,37
EndSplineSet
EndChar

StartChar: degree
Encoding: 176 176 198
Width: 412
Flags: W
LayerCount: 2
Fore
SplineSet
206 625 m 256,0,1
 185 625 185 625 167 617 c 128,-1,2
 149 609 149 609 135.5 595 c 128,-1,3
 122 581 122 581 114 561.5 c 128,-1,4
 106 542 106 542 106 520 c 0,5,6
 106 497 106 497 114 478 c 128,-1,7
 122 459 122 459 135.5 445 c 128,-1,8
 149 431 149 431 167 423 c 128,-1,9
 185 415 185 415 206 415 c 256,10,11
 227 415 227 415 245 423 c 128,-1,12
 263 431 263 431 276.5 445 c 128,-1,13
 290 459 290 459 298 478 c 128,-1,14
 306 497 306 497 306 520 c 0,15,16
 306 542 306 542 298 561.5 c 128,-1,17
 290 581 290 581 276.5 595 c 128,-1,18
 263 609 263 609 245 617 c 128,-1,19
 227 625 227 625 206 625 c 256,0,1
206 680 m 256,20,21
 240 680 240 680 269 667.5 c 128,-1,22
 298 655 298 655 319.5 633.5 c 128,-1,23
 341 612 341 612 353.5 583 c 128,-1,24
 366 554 366 554 366 520 c 256,25,26
 366 486 366 486 353.5 457 c 128,-1,27
 341 428 341 428 319.5 406.5 c 128,-1,28
 298 385 298 385 269 372.5 c 128,-1,29
 240 360 240 360 206 360 c 256,30,31
 172 360 172 360 143 372.5 c 128,-1,32
 114 385 114 385 92.5 406.5 c 128,-1,33
 71 428 71 428 58.5 457 c 128,-1,34
 46 486 46 486 46 520 c 256,35,36
 46 554 46 554 58.5 583 c 128,-1,37
 71 612 71 612 92.5 633.5 c 128,-1,38
 114 655 114 655 143 667.5 c 128,-1,39
 172 680 172 680 206 680 c 256,20,21
EndSplineSet
EndChar

StartChar: dotlessi
Encoding: 305 305 199
Width: 246
Flags: W
LayerCount: 2
Fore
SplineSet
177 0 m 1,0,-1
 87 0 l 1,1,-1
 87 350 l 2,2,3
 87 395 87 395 74.5 422.5 c 128,-1,4
 62 450 62 450 17 450 c 2,5,-1
 -3 450 l 1,6,-1
 -3 470 l 1,7,-1
 87 470 l 2,8,9
 113 470 113 470 130.5 465.5 c 128,-1,10
 148 461 148 461 158.5 447.5 c 128,-1,11
 169 434 169 434 173 410.5 c 128,-1,12
 177 387 177 387 177 350 c 2,13,-1
 177 0 l 1,0,-1
EndSplineSet
EndChar

